<?xml version="1.0" encoding="UTF-8" standalone="no"?><!DOCTYPE svg PUBLIC "-//W3C//DTD SVG 1.1//EN" "http://www.w3.org/Graphics/SVG/1.1/DTD/svg11.dtd"><svg width="100%" height="100%" viewBox="0 0 2134 2134" version="1.1" xmlns="http://www.w3.org/2000/svg" xmlns:xlink="http://www.w3.org/1999/xlink" xml:space="preserve" xmlns:serif="http://www.serif.com/" style="fill-rule:evenodd;clip-rule:evenodd;stroke-linejoin:round;stroke-miterlimit:2;"><g><path d="M0,1031.11l0,-711.112c0,-176.613 143.387,-320 320,-320l1493.33,-0c176.613,-0 320,143.387 320,320l0,1493.33c0,176.613 -143.387,320 -320,320l-1493.33,0c-176.613,0 -320,-143.387 -320,-320l-0.043,-564.307l0.001,0.001c-0.001,-1.121 0.013,-2.235 0.042,-3.337c0.789,-30.296 56.77,-32.878 86.277,-20.091l591.532,256.33c3.57,0.846 7.292,1.293 11.118,1.293c26.613,-0 48.22,-21.607 48.22,-48.22c-0,-17.495 -9.338,-32.827 -23.299,-41.279c-2.642,-0.722 -5.264,-1.64 -7.849,-2.76l-7.405,-3.209c-3.123,-0.637 -6.356,-0.971 -9.667,-0.971l-648.984,-284.445c-4.828,-2.124 -9.411,-4.752 -13.568,-8.008c-2.683,-2.101 -5.178,-4.441 -7.448,-6.983c-13.281,-14.872 -17.689,-35.195 -18.732,-54.568l-0.069,-1.6l-0.126,-0.067Zm122.4,337.144l-0,445.077c-0,109.059 88.542,197.6 197.6,197.6l1493.33,0c109.059,0 197.6,-88.541 197.6,-197.6l0,-1493.33c0,-109.058 -88.541,-197.6 -197.6,-197.6l-1493.33,-0c-109.058,-0 -197.6,88.542 -197.6,197.6l0,691.066l327.852,142.069c25.588,-21.815 54.008,-40.401 84.618,-55.121c0.422,-0.596 0.859,-1.189 1.309,-1.776l400.9,-523.338c2.35,-3.068 5.316,-5.556 8.719,-7.557c61.066,-218.612 261.812,-379.146 499.756,-379.146c286.335,0 518.803,232.468 518.803,518.803c-0,246.219 -171.893,452.608 -402.139,505.609l-491.886,382.522c-56.809,146.638 -199.272,250.72 -365.853,250.72c-216.451,0 -392.182,-175.731 -392.182,-392.182l0.002,-1.123l-189.899,-82.29Zm847.606,155.272l542.389,-421.797c190.253,-31.873 335.428,-197.482 335.428,-396.731c0,-222.018 -180.25,-402.269 -402.269,-402.269c-189.886,-0 -349.22,131.852 -391.363,308.918c-7.131,29.962 -123.1,160.696 -123.1,160.696l-322.332,420.775c-11.229,4.164 -22.114,9.038 -32.605,14.573l160.789,69.675c67.545,20.581 116.737,83.408 116.737,157.634c-0,90.93 -73.823,164.753 -164.753,164.753c-11.63,-0 -22.98,-1.208 -33.919,-3.503c-2.642,0.677 -6.442,0.009 -11.916,-2.363l-4.759,-2.062c-10.124,-3.268 -19.821,-7.49 -28.991,-12.563l-175.708,-76.14c24.135,127.586 136.297,224.194 270.845,224.194c126.643,-0 233.453,-85.589 265.692,-202.031l-0.165,-1.759Zm475.548,-1097.55c153.999,0 279.026,125.027 279.026,279.026c0,153.999 -125.027,279.026 -279.026,279.026c-153.998,-0 -279.026,-125.027 -279.026,-279.026c0,-153.999 125.028,-279.026 279.026,-279.026Zm0,116.533c89.682,0 162.493,72.811 162.493,162.493c-0,89.682 -72.811,162.493 -162.493,162.493c-89.682,-0 -162.492,-72.811 -162.492,-162.493c-0,-89.682 72.81,-162.493 162.492,-162.493Z"/></g></svg>