<?xml version="1.0" encoding="UTF-8" standalone="no"?><!DOCTYPE svg PUBLIC "-//W3C//DTD SVG 1.1//EN" "http://www.w3.org/Graphics/SVG/1.1/DTD/svg11.dtd"><svg width="100%" height="100%" viewBox="0 0 2707 1097" version="1.1" xmlns="http://www.w3.org/2000/svg" xmlns:xlink="http://www.w3.org/1999/xlink" xml:space="preserve" xmlns:serif="http://www.serif.com/" style="fill-rule:evenodd;clip-rule:evenodd;stroke-linejoin:round;stroke-miterlimit:2;"><path d="M467.994,236.344c41.033,-54.854 72.395,-88.916 84.267,-88.916c27.602,0 47.234,19.139 47.234,19.139c-11.282,16.958 -22.212,33.573 -32.805,49.861c141.875,-26.859 267.642,-42.42 315.618,-30.69c35.826,8.76 54.047,95.982 54.047,95.982c-107.826,-17.114 -252.464,-13.361 -417.278,9.344c-1.074,1.719 -34.392,1.719 -51.083,10.271c9.855,-2.131 50.742,-7.172 41.181,5.648c-212.317,342.986 -265.048,535.797 -329.063,789.426c-0,0 -81.587,-16.728 -81.587,-121.214c0,-142.829 184.162,-470.661 319.158,-668.212c-131.293,23.039 -272.374,56.867 -415.875,100.636c0,0 -5.251,-5.713 2.144,-30.884c7.542,-25.673 238.255,-92.185 464.042,-140.391Zm249.366,127.718c-106.241,125.854 -234.752,374.458 -204.682,374.511c78.724,0.141 349.248,-354.973 359.267,-366.424c10.019,-11.45 50.097,-5.725 50.097,11.451c0,160.311 -220.429,669.6 -495.245,668.438c-167.682,-0.709 -119.722,-289.994 -97.331,-320.621c-0,-0 15.745,214.701 128.821,214.701c170.33,0 376.443,-426.54 360.698,-426.54c-31.489,-0 -276.249,330.64 -340.66,330.64c-51.528,0 -64.41,-91.606 -64.41,-100.194c0,-173.193 220.427,-413.658 251.917,-413.658c34.117,-6.922 58.963,21.736 51.528,27.696Zm104.488,584.919c379.295,-129.488 763.872,-166.541 1152.23,-137.409c-0,-0 -21.832,-56.618 -51.529,-61.548c-231.693,-38.462 -786.37,22.902 -1077.8,148.86c-28.388,12.27 -22.901,50.097 -22.901,50.097Zm1606.05,-873.521c40.518,-47.736 73.766,-75.46 88.663,-75.46c20.441,0 35.783,20.039 35.783,20.039c-16.316,13.353 -32.161,29.855 -47.474,48.894c51.156,-2.424 91.434,0.449 109.993,11.098c21.641,12.417 21.999,100.798 21.999,100.798c-48.673,-20.696 -111.393,-32.313 -183.882,-34.917c-9.72,-1.359 -34.099,-1.545 -37.582,-0c-2.029,1.436 38.683,1.553 30.231,12.977c-133.476,240.449 -209.474,641.47 -173.828,645.526c106.928,12.168 476.694,-353.662 353.542,-478.069c-0,0 81.586,31.833 81.586,108.782c0,162.391 -248.404,453.736 -436.559,453.736c-27.845,0 -111.645,-55.878 -111.645,-147.428c-0,-51.874 6.075,-103.923 16.662,-155.056c-51.703,99.274 -112.778,197.996 -151.208,197.996c-54.391,0 -84.45,-103.056 -84.45,-140.271c0,-97.332 141.703,-312.033 131.684,-312.033c-14.554,-0 -151.192,126.243 -230.232,218.825c-58.882,68.97 -68.327,117.54 -73.213,117.54c-19.44,0 -67.273,-35.166 -67.273,-91.606c-0,-21.137 7.268,-48.901 19.168,-79.145c-40.159,64.169 -109.777,169.598 -133.676,169.598c-28.692,0 -73.067,-33.823 -83.82,-83.603c-48.77,57.169 -141.315,160.618 -172.39,160.618c-18.608,-0 -60.116,-47.235 -60.116,-101.626c-0.001,-14.563 6.069,-38.392 17.094,-67.518c-55.615,81.592 -139.981,200.633 -158.798,200.633c-28.626,0 -63.705,-39.478 -63.705,-102.457c0,-54.391 147.386,-296.204 147.386,-317.674c0,-10.471 -88.555,11.528 -137.846,20.13l-0,-0c-0,30.833 -237.829,440.079 -237.829,477.294c0,20.664 9.268,26.765 12.365,28.104c-0,0 -0,-0 0,0c2.481,1.073 1.003,-0.909 -12.365,-0.909c-30.058,0 -38.687,-37.215 -38.646,-64.41c0.068,-45.017 220.323,-358.551 220.289,-446.856l0.001,-0c-36.678,-27.257 -43.846,-100.68 -43.846,-100.68c-0,0 11.062,16.507 74.041,16.507c62.979,0 181.781,-22.901 211.839,-22.901c30.058,-0 65.842,32.921 65.842,57.254c-0,24.332 -187.506,336.365 -163.173,336.365c21.836,0 199.607,-232.345 235.86,-280.03c2.116,-2.829 4.25,-5.642 6.402,-8.437l0.039,-0.053l-0.001,0.003c32.274,-41.918 68.577,-79.828 106.886,-106.533c36.792,-25.649 51.223,-18.608 90.236,-18.608c39.441,0.03 33.575,81.237 24.658,128.851c4.537,-4.597 7.49,-7.187 8.263,-7.187c5.725,0 45.803,8.588 45.803,27.196c-5.073,8.921 -114.507,184.643 -84.449,184.643c21.47,0 192.434,-206.155 192.434,-206.155l-0.002,0.003c38.995,-57.89 81.902,-103.018 108.15,-103.018c14.387,-0 25.989,8.069 35.784,18.607c-23.763,12.886 -131.592,171.013 -131.684,238.206c38.037,-64.287 357.836,-341.262 375.012,-341.262c17.176,-0 35.784,12.882 44.372,18.607c-64.007,88.265 -211.839,463.755 -180.35,463.755c48.772,0 157.272,-199.362 213.261,-309.018c11.141,-24.229 22.86,-47.71 34.92,-70.281l0.003,-0.007l0,0.001c27.523,-51.509 56.823,-98.273 85.096,-138.339c-104.307,4.916 -223.093,25.575 -346.45,61.821c-0,-0 -2.603,-6.211 5.335,-30.399c8.424,-25.667 176.065,-70.005 331.089,-93.724c21.992,-3.365 43.729,-6.314 64.721,-8.737Zm-828.811,325.662c0.165,-28.483 1.245,-119.232 -10.037,-119.147c-49.262,0.369 -276.013,365.27 -226.75,365.27c35.511,0 113.847,-87.16 154.817,-135.824c20.438,-35.107 55.402,-79.388 81.97,-110.299Z" style="fill:#fff;"/></svg>