<?xml version="1.0" encoding="UTF-8" standalone="no"?>
<!DOCTYPE svg PUBLIC "-//W3C//DTD SVG 1.1//EN" "http://www.w3.org/Graphics/SVG/1.1/DTD/svg11.dtd">
<svg width="100%" height="100%" viewBox="0 0 5301 2689" version="1.1" xmlns="http://www.w3.org/2000/svg" xmlns:xlink="http://www.w3.org/1999/xlink" xml:space="preserve" xmlns:serif="http://www.serif.com/" style="fill-rule:evenodd;clip-rule:evenodd;stroke-linejoin:round;stroke-miterlimit:2;">
    <g transform="matrix(1,0,0,1,-856.723,-1205.65)">
        <path d="M2119.56,3061.91C2214.01,2869.89 2322.28,2697.2 2409.49,2630.99C2464.52,2589.22 2546.72,2636.23 2546.72,2636.23C2489.23,2695.68 2406.98,2826.32 2323.86,3007.12C2461.24,2973.66 2578.89,2951.2 2639.72,2940.31C2698.56,2831.43 2767.04,2734.16 2820.14,2694.9C2855.86,2668.48 2920.7,2730.51 2920.7,2730.51C2760.63,2976.04 2653.51,3220.98 2648.34,3459.62C2648.34,3459.62 2557.81,3445.74 2518.44,3341.24C2496.47,3282.93 2538.36,3147.99 2601.86,3014.78C2504.13,3039.15 2392.31,3072.63 2277.91,3112.2C2188.33,3327.53 2102.96,3597.2 2052.28,3894.35C2052.28,3894.35 1930.61,3867.6 1901.43,3749.79C1881.06,3667.59 1953.51,3431.72 2057.6,3195.07C1848.97,3280.26 1656.58,3379.64 1552.59,3474.28C1552.59,3474.28 1471.03,3321.92 1820.76,3168.39C1913.09,3127.86 2016.84,3092.31 2119.56,3061.91ZM2613.77,3758.17C2613.77,3758.17 2627.59,3703.76 2650.43,3661.79C2686.15,3596.16 3844.55,3235.95 4079.3,3322.91C4207.5,3370.39 4212.34,3450.19 4212.34,3450.19C3982,3364.89 3217.48,3498.01 2613.77,3758.17ZM2376.27,3548.24L2338.84,3581.51L2367.96,3620.33L2402.6,3577.35L2376.27,3548.24ZM4563.05,2567.8C4565.38,2530.85 4571.9,2497.4 4583.08,2470.36C4619.19,2383.03 4719.82,2282.18 4788.08,2320.45C4856.33,2358.73 4732.56,2613.77 4732.56,2613.77L4739.89,2459.78C4739.89,2459.78 4688.39,2516.83 4681.23,2615.87C4676.97,2674.67 4687.9,2736.79 4713.83,2811.97C4905.61,2691.26 5124.15,2577.39 5293,2542.54C5378.76,2524.83 5453.28,2660.91 5453.28,2660.91C5305.52,2599.08 5012.05,2695.42 4729.62,2854.73C4745.36,2894.93 4764.85,2938.87 4788.08,2987.75C4900.33,3224.01 4731.38,3356.01 4633.04,3387.92C4450.7,3447.07 4271.46,3210.32 4285.25,3202.5C4299.03,3194.68 4402.41,3345.45 4585.9,3211.93C4672.98,3148.56 4671.27,3045.44 4631.25,2913.05C4507.11,2990.27 4388.88,3077.8 4290.48,3167.19C4290.48,3167.19 4264.78,3160.19 4274.77,3145.93C4302.67,3106.1 4441.45,2992.6 4618.61,2873.85C4614.27,2861.09 4609.64,2848.06 4604.75,2834.81C4587.02,2786.65 4574.31,2733.69 4567.58,2681.83C4519.26,2759.1 4219.19,3235.61 4158.28,3251.63C4091.99,3269.06 4002.78,3187.76 4008.48,3129.06C4023.98,2969.65 4238.48,2706.34 4241.04,2683.85C4242.98,2666.88 4145.01,2715.46 4070.53,2748.89L4075.58,2752.08C4075.58,2752.08 3888.22,3189.11 3797.98,3201.49C3707.74,3213.86 3608.97,3135.28 3604.18,3103.01C3603.14,3096.02 3603.38,3087.48 3604.71,3077.75C3537.7,3190.1 3433.8,3348.82 3378.49,3354.86C3324.04,3360.8 3238.62,3315.14 3243.35,3264.77C3253.33,3158.58 3316.53,3008 3372.15,2903C3338.77,2927.22 3293.5,2958.72 3249.89,2984.8C3249.81,2985.94 3249.73,2987.07 3249.64,2988.21C3232.66,3203.73 3027.91,3525.09 2908.31,3498.45L2908.31,3498.45C2874.5,3493.77 2758.26,3467.53 2733.19,3326.58C2713.63,3216.57 2871.53,2906.18 3013.93,2830.03C3047.95,2811.84 3081.93,2818.04 3107.32,2828.7C3125.53,2821.92 3150.01,2819.42 3176.31,2835.27C3203.53,2851.68 3223.61,2868.68 3236,2892.37C3321.39,2859.76 3402.83,2812.74 3450.26,2783.21C3490.68,2751.95 3591.94,2694.99 3611.04,2757.75C3616.24,2774.83 3499.7,2891.2 3431.91,3142.2C3503.2,3115.71 3596.26,2983.51 3695.05,2854.18C3723.46,2802.13 3750.88,2760.15 3764.45,2748.94C3812.33,2709.38 3885.42,2747.36 3889.11,2757.32C3895.16,2773.6 3798.55,2844.92 3760.26,3076.83C3859.88,3022.37 3924.2,2901.39 3985.95,2775.59C3937.44,2766.63 3904.77,2684.89 3904.77,2684.89C3904.77,2684.89 3967.63,2699.12 4080.76,2639.85C4193.89,2580.58 4278.3,2496.6 4334.27,2496.33C4390.25,2496.07 4437.75,2545.87 4451.6,2579.09C4471.36,2626.5 4242.09,2823.26 4185.52,3091.35C4244.31,3037.38 4418.9,2778.84 4563.05,2567.8ZM3030.45,2983.13C2934.5,3114.71 2906.48,3247.33 2905.12,3357.02C2993.01,3334.85 3105.28,3177.44 3140.7,3033.65C3136.33,3034.25 3132.32,3034.41 3128.72,3034.1C3082.9,3030.01 3048.56,3001.87 3030.45,2983.13ZM5009.7,2898.49C4994.18,2968.45 4963.16,2988.53 4909.89,2991.37C4965.77,2994.36 4995.77,3033.6 5009.7,3095.33C5019.64,3022.79 5053.41,2987.05 5109.5,2985.82C5042.48,2970.36 5009.59,2947.52 5009.7,2898.49ZM1532.66,1776.87C1567.92,1719.78 1599,1678.26 1622.37,1659.91C1686.06,1609.87 1748.26,1615.06 1754.36,1630.58C1735.15,1656.75 1712.97,1692.25 1689.02,1734.95C1845.86,1695.02 1990.51,1665.2 2073.87,1662C2260.54,1654.85 2254.05,1758.38 2254.05,1758.38C2099.06,1744.84 1857.33,1790.59 1628.14,1851.31C1457.14,2198.56 1249.24,2783.62 1332.19,3016.5C1332.19,3016.5 1170.94,2961.89 1134.2,2831.08C1099.98,2709.22 1299.34,2206.95 1463.84,1897.85C1211.9,1973.72 1009.64,2055.14 1012.69,2072.65C1024.74,2141.97 1155.62,2350.11 1109.06,2411.01C1109.06,2411.01 1094.59,2285.55 967.641,2118.74C956.536,2104.15 873.557,2016.32 1025.26,1944.84C1102.35,1908.52 1313.79,1838.29 1532.66,1776.87ZM1838.36,2816.45C1867.41,2833.62 1861.3,2877.96 1843.35,2916.8C1825.4,2955.64 1795.63,2988.98 1777.37,2984.18C1738.13,2973.87 1780.25,2782.11 1838.36,2816.45ZM3135.23,2866.6C3122.93,2877.92 3111.24,2889.3 3100.14,2900.74C3108.31,2911.47 3123.13,2919.82 3149.89,2917.38C3147.43,2899.07 3142.65,2881.98 3135.23,2866.6ZM3484,1560.67C3558.73,1538.96 3622.66,1523.04 3654.63,1520.58C3737.3,1514.22 3768.82,1597.05 3768.82,1597.05C3732.89,1581.95 3700.04,1585.36 3668.22,1592.51C3587.12,1610.74 3509.73,1631.83 3434.03,1654.86C3302.73,1909.88 3148.63,2273.49 3058.57,2762.99C3012.88,2775.09 2935.36,2690.93 2933.91,2601.14C2933.1,2550.6 2987.22,2382.22 3058.06,2196.56C3003.3,2287.47 2927.09,2403.25 2896.2,2399.48C2857.91,2394.82 2787.05,2348.87 2782.01,2282.16C2779.28,2245.99 2814.74,2138.1 2850.18,2042.62C2664.76,2269.1 2633.51,2468.15 2594.5,2468.62C2565.67,2468.97 2545.49,2456.28 2495.05,2366.86L2495.05,2366.86C2378.34,2527.8 2223.32,2665.22 2170.24,2650.89L2170.18,2650.76C2140.37,2649.29 2081.34,2634.52 2037.2,2548.24C1975.71,2428.04 2236.93,2011.01 2386.04,2000.36C2411.89,1998.52 2437.14,2024.95 2449.47,2040.21L2449.47,2040.21L2449.47,2040.21C2454.41,2046.33 2457.27,2050.65 2457.27,2050.65C2457.27,2050.65 2456.76,2050.86 2455.76,2051.33C2515.32,2168.85 2380.91,2325.12 2181.23,2459.6C2175.17,2487.28 2172.32,2512.31 2171.53,2534.43C2332.88,2476.15 2436.11,2347.5 2508.94,2222.99C2540.37,2116.96 2603.92,1987.34 2666.78,1941.7C2695.33,1920.98 2770.49,1979.41 2770.49,1979.41C2721.14,2039.97 2691.6,2106.63 2672.02,2176.35L2917.04,1877.77C2956.18,1808.34 3058.7,1796.67 3083.71,1818.09C3100.16,1832.16 2952.3,2050.8 2936.01,2219.3C3020.29,2164.03 3105.52,2040.86 3179.67,1900.46C3212.06,1827.39 3243.82,1760.61 3272.19,1707.37C3188.07,1736.08 3104.24,1766.44 3017.72,1797.14C3017.72,1797.14 3017.8,1733.32 3054.38,1709.14C3072.94,1696.88 3199.85,1650.63 3334.24,1606.98C3340.27,1599.53 3345.83,1593.72 3350.84,1589.72C3418.95,1535.43 3503.78,1524.77 3503.78,1524.77C3497.31,1536.42 3490.71,1548.37 3484,1560.67ZM1810.41,2244.69C1821.8,2224.65 1832.72,2209.55 1842.35,2202.54C1891.55,2166.75 1939.48,2189.61 1941.87,2198.35C1945.81,2212.77 1857.21,2367.56 1862.26,2425.67C1903.74,2397.66 2107.16,2014.4 2279.19,1841.13C2383.75,1718.98 2490.79,1837.99 2490.79,1837.99C2490.79,1837.99 2301.31,1916.42 2145.1,2161.25C1961.11,2449.62 1874.46,2622.45 1810.93,2615.81C1740.77,2608.47 1691.17,2569.92 1700.93,2527.29C1704.06,2513.63 1714.65,2479.06 1729.22,2437.21C1672.24,2527.49 1561.64,2697.07 1529.13,2706.42C1499.07,2715.06 1442.61,2699.93 1423.33,2619.47C1404.05,2539.01 1566.23,2211.77 1654.84,2170.07C1707.44,2145.32 1766.93,2180.54 1766.93,2180.54C1669.79,2294.66 1610.38,2419.8 1580.46,2538.81C1659.46,2444.29 1734.96,2344.53 1810.41,2244.69ZM3739.46,1764.32C3750.1,1754.87 3767.04,1746.26 3792.91,1747.9C3847.11,1751.33 3865.46,1781.84 3867.29,1812.85C3900.41,2375.95 3639.83,2647.2 3481.78,2677.09C3283.72,2714.55 3164.77,2520.67 3181.14,2507.38C3201.76,2490.64 3246.71,2573.35 3406.56,2533.67C3592.89,2487.41 3719.89,2225.3 3726.73,1905.96C3658.08,2029.6 3543.45,2221.51 3460.83,2285.3C3406.21,2327.47 3317.89,2316.84 3299.51,2273.78C3262.81,2187.78 3360.89,1874.1 3474.45,1786.02C3537.81,1736.87 3599.11,1808.41 3599.11,1808.41C3498.63,1914.6 3457.81,2016.6 3437.81,2118.74C3528.25,2071.63 3651.54,1895.11 3723.7,1786.02C3723.74,1785.9 3726.89,1777.3 3735.39,1768.27C3736.42,1766.69 3737.44,1765.14 3738.44,1763.62L3739.46,1764.32ZM936.734,2447.26C936.637,2497.98 914.227,2531.58 856.723,2538.26C897.259,2548.77 919.121,2585.48 923.779,2646.32C933.878,2593.25 965.756,2565.64 1018.91,2562.9C973.385,2530.71 946.379,2492.03 936.734,2447.26ZM4446.14,1396.96C4318.32,1425.39 4174.97,1472.64 4021.28,1546.77C3970.6,1569.83 4089.31,1696.91 4064.23,1719.62C4058.19,1725.09 4060.89,1694.92 4003.03,1644.47C3967.25,1613.28 3933.95,1572.09 3949,1542.58C4022.16,1399.12 4935.44,1126.39 5059.41,1272.31C5087.35,1305.19 5017.51,1401.16 5017.51,1401.16C4966.68,1373.82 4829.38,1347.31 4634.57,1366.49C4577.29,1444.98 4524.01,1531.15 4475.4,1621.58C4563.54,1593.15 4634.37,1580.62 4644.53,1607.53C4668.92,1672.16 4570.2,1770.95 4570.2,1770.95C4570.2,1770.95 4592.89,1726.3 4462.3,1738.47C4446.59,1739.94 4429.86,1742.64 4412.49,1746.29C4276.34,2034.02 4186.77,2348.01 4162.7,2590.14C4162.7,2590.14 4026.16,2540.47 3999.28,2403.68C3981.1,2311.13 4092.54,2053.31 4215.94,1811.02C4137.16,1843.61 4076.8,1874.66 4076.8,1874.66C4076.8,1874.66 4052.48,1819.47 4084.13,1791.9C4096.28,1781.32 4177.44,1740.66 4274.46,1698.81C4338.93,1577.94 4401.63,1468.92 4446.14,1396.96ZM3866.01,2348.84C3850.49,2418.8 3819.47,2438.88 3766.2,2441.72C3822.08,2444.71 3852.08,2483.95 3866.01,2545.68C3875.95,2473.14 3909.72,2437.4 3965.81,2436.17C3898.79,2420.7 3865.9,2397.87 3866.01,2348.84ZM5310.5,2171.41C5295.53,2247.06 5267.18,2298.63 5167.72,2321.12C5271.95,2320.81 5309.61,2371.21 5306.34,2452.81C5309.74,2375.74 5357.73,2323.43 5453.28,2297.55C5361.84,2293.87 5320.03,2246.76 5310.5,2171.41ZM5650.65,1610.19C5619.13,1594.4 5600.94,1564.06 5584.24,1532.11C5584.24,1532.11 5627.37,1547.55 5676.42,1516.39C5725.48,1485.23 5983.54,1329.66 6011.64,1329.92C6039.75,1330.19 6159.2,1409.26 6157.25,1439.92C6153.97,1491.69 5944.56,1748.86 5789.69,2112.03C5694.37,2335.52 5731.55,2406.1 5710.99,2422.53C5699.85,2431.44 5569.55,2338.52 5570.62,2187.88C5571.67,2040.91 5916.07,1601.08 5976.03,1486.01C5910.93,1502.93 5839.8,1533.92 5764.84,1573.86C5758.58,1615.36 5520.01,2064.62 5459.58,2065.31C5409.28,2065.89 5332.62,2014.27 5319.21,1958.46C5316.35,1946.58 5319.5,1925.94 5326.46,1900.58C5267.39,1976.42 5111.61,2169.27 5054.17,2170.07C4982.68,2171.07 4939.58,2125.39 4939.99,2078.93C4940.65,2004.25 5049.05,1812.03 5118.94,1695.76L5117.03,1697.62C5079.94,1693.17 5033.08,1719.04 4986.2,1748.13C4975.84,1945.63 4750.15,2287.55 4597.44,2280.65L4597.44,2281.11C4597.44,2281.11 4595.02,2280.85 4590.77,2280.12C4584.43,2279.39 4578.23,2278.03 4572.19,2276.01L4572.19,2276.01C4524.8,2263.45 4427.38,2222.1 4428.78,2094.64C4430.42,1945.18 4748.53,1568.93 4875.04,1591.82C4895.93,1595.59 4909.44,1603.04 4918.05,1611.83C4922.78,1610.79 4927.51,1611.02 4932.25,1612.77C4932.25,1612.77 4953.31,1616.97 4971.6,1660.06C5013.18,1637.2 5060.93,1613.78 5107.6,1604.39C5207.29,1584.32 5230.16,1587.63 5230.16,1587.63L5223.37,1594.23L5261.59,1587.63C5261.59,1587.63 5284.04,1588.56 5285.68,1602.29C5292.27,1657.29 5148.65,1847.48 5115.98,1985.7C5195.72,1948.8 5299.66,1835.69 5414.81,1687.26C5430.33,1657.24 5443.48,1635.13 5450.15,1628.48C5492.83,1585.97 5570.62,1647.34 5570.62,1647.34C5498.59,1743.22 5454.1,1843.97 5428.15,1947.99C5527.76,1870.88 5593.31,1734.94 5650.65,1610.19ZM2388.32,2102.23C2349.48,2139.61 2297.57,2202.08 2241.47,2304.16C2223.36,2337.12 2209.6,2368.16 2199.28,2397.07C2281.98,2323.52 2368.63,2226.25 2388.32,2102.23ZM4792.04,1748.77C4711.5,1824.6 4640,1949.33 4611.02,2124.5C4751.7,2098.15 4835.47,1935.08 4879.82,1809.71C4868.89,1814.33 4858.51,1817.64 4848.85,1819.14C4808.19,1825.44 4795.1,1787.49 4792.04,1748.77ZM4919.28,1670.26C4894.02,1678.31 4867.96,1691.03 4842.13,1708.48C4847.41,1713.24 4854.65,1715.88 4864.57,1714.38C4876,1712.65 4893.21,1704.08 4914.34,1692.35C4916.53,1683.09 4918.16,1675.6 4919.28,1670.26ZM3768.97,1205.65C3758.16,1304.07 3746.47,1308.35 3680.26,1356.74C3716.39,1372.4 3768.01,1451.02 3777.29,1480.12C3777.23,1445.28 3811.83,1387.91 3852.14,1355.36C3788.63,1322.38 3789.58,1274.02 3768.97,1205.65Z" style="fill:white;"/>
    </g>
</svg>
