<?xml version="1.0" encoding="UTF-8" standalone="no"?><!DOCTYPE svg PUBLIC "-//W3C//DTD SVG 1.1//EN" "http://www.w3.org/Graphics/SVG/1.1/DTD/svg11.dtd"><svg width="100%" height="100%" viewBox="0 0 2883 941" version="1.1" xmlns="http://www.w3.org/2000/svg" xmlns:xlink="http://www.w3.org/1999/xlink" xml:space="preserve" xmlns:serif="http://www.serif.com/" style="fill-rule:evenodd;clip-rule:evenodd;stroke-linejoin:round;stroke-miterlimit:2;"><path d="M790.47,237.595c-314.304,-53.296 -763.539,222.365 -763.539,284.254c-19.396,0 -45.481,-134.154 -7.495,-172.139c125.503,-125.503 621.387,-250.36 783.314,-177.684c13.47,6.046 19.065,20.81 21.107,35.445c14.501,7.887 29.225,20.135 29.225,37.351c0,197.678 -385.763,696.046 -735.459,696.046c-48.686,0 -56.608,-93.784 -56.608,-93.784c28.079,-0 56.362,-3.016 84.631,-8.654c-15.842,-14.277 -28.687,-32.501 -28.687,-54.06c0,-149.305 223.959,-447.917 251.007,-466.31c27.048,-18.392 93.556,-17.716 78,-2.16c-45.832,45.833 -200.023,346.116 -234.611,504.846c277.657,-93.521 538.573,-413.053 579.115,-583.151Zm718.549,455.881c63.751,-63.495 212.507,-309.54 227.654,-399.591c-33.776,-28.065 -29.433,-103.466 -29.433,-103.466c34.581,67.929 240.263,-11.901 258.023,-11.901c32.458,-0 67.514,54.758 67.514,71.184c-15.673,0 -134.025,154.927 -192.047,298.881c81.925,-58.876 180.019,-158.943 209.021,-189.147c60.982,-84.484 132.545,-157.68 175.204,-157.68c5.604,-0 10.809,2.36 15.444,5.858c32.925,3.872 36.563,89.974 36.965,108.958c11.43,-12.955 20.051,-20.606 23.734,-20.606c32.601,0 32.936,13.393 32.936,13.393c-20.611,20.611 -90.939,144.666 -114.284,258.553c78.951,-76.984 252.742,-286.556 253.229,-287.142c58.548,-118.481 107.375,-228.523 107.375,-280.77c-0,-0 65.997,30.294 65.997,67.079c0,22.204 -115.891,257.22 -207.774,451.569c83.493,-112.207 175.13,-225.446 189.381,-225.446c6.88,-0 18.496,8.026 27.072,14.798c11.336,-2.581 28.481,-6.143 36.762,-6.143c38.472,0 -23.103,156.356 -38.476,269.491c79.461,-4.317 210.613,-183.169 210.613,-212.149c-0,0 18.765,0.247 18.765,33.786c0,44.359 -147.164,243.419 -224.894,243.419c-19.316,-0 -29.575,-14.882 -34.981,-32.123c-20.321,-9.91 -44.629,-26.971 -44.629,-51.883c-0,-46.298 45.337,-131.44 60.769,-201.234c-96.361,121.159 -213.126,268.615 -311.347,451.541c-0,0 -18.242,-25.363 -27.387,-47.181c-12.491,-12.569 -24.429,-30.123 -24.429,-51.313c0,-35.294 55.426,-144.886 119.004,-269.124c-60.805,85.864 -156.689,215.326 -182.039,215.326c-7.335,-0 -17.367,-12.694 -24.313,-25.841c-20.662,-11.233 -47.356,-29.339 -47.356,-47.906c-0,-14.152 3.517,-30.816 9.516,-48.848c-54.016,75.169 -118.905,157.265 -144.659,157.265c-11.21,0 -20.143,-12.741 -26.827,-28.029c-19.434,-14.843 -41.143,-38.78 -41.143,-71.657c0,-14.027 4.916,-33.032 13.541,-55.121c-51.887,59.332 -109.958,122.738 -142.616,148.641c-0.02,1.086 -0.03,2.18 -0.03,3.267c0,0 -0.832,-0.502 -2.315,-1.439c-6.057,4.638 -11.138,7.842 -15.018,9.313c85.706,4.404 172.959,13.764 262.208,28.414c49.91,8.192 70.146,80.71 66.786,118.938c-321.042,-142.151 -1014.84,-82.928 -1238.73,29.649c3.338,-20.918 5.335,-39.461 23.728,-45.878c198.257,-67.71 397.343,-112 603.486,-127.705Zm-540.386,1.127c158.873,-68.843 355.963,-408.682 355.96,-556.004c0,-22.72 -46.878,-13.096 -46.878,-13.096c0,0 9.738,-22.72 36.786,-22.72c27.048,-0 47.604,32.458 47.604,32.458c0,-0 53.015,-9.738 53.015,87.636c-0,125.503 -311.595,541.944 -455.141,541.944c-14.066,-0 -26.63,-19.043 -34.793,-35.296c-18.824,-15.261 -38.046,-36.117 -38.046,-57.649c0,-64.332 94.647,-224.862 177.721,-317.798c-9.807,3.95 -17.89,6.411 -22.81,6.411c-34.621,0 -29.408,-68.369 -29.408,-68.369c0.298,31.041 82.416,9.21 135.241,-7.574c2.157,0 4.163,0.202 6.02,0.555c2.041,-0.368 4,-0.555 5.881,-0.555c27.659,0 20.942,10.309 20.942,10.309c-42.649,45.075 -178.245,260.149 -212.094,399.748Zm634.227,-434.011c19.586,0.04 52.383,1.809 52.383,63.582c-0,78.981 -185.557,376.914 -257.434,376.914c-9.593,-0 -19.543,-9.426 -27.621,-21.056c-20.681,-3.399 -62.309,-16.021 -62.309,-62.556c0,-140.422 171.805,-354.568 229.498,-354.568c14.441,-0 18.733,6.521 20.007,10.292c14.5,-7.588 30.133,-12.609 44.553,-12.609l0.923,0.001Zm178.305,428.957c-12.055,-5.549 -22.134,-26.681 -27.82,-52.038c-8.917,-10.155 -15.286,-20.817 -15.286,-30.551c-0,-57.558 105.611,-248.85 168.664,-337.368c-41.249,10.805 -80.347,23.275 -109.065,29.915c-25.799,82.044 -149.546,292.618 -217.785,389.715c66.221,-2.908 133.244,-2.856 201.292,0.327Zm-181.88,-399.654c-32.886,19.492 -82.464,73.693 -82.464,124.482c-0,0 -8.626,-21.582 -12.444,-53.618c-42.521,72.055 -97.802,177.4 -116.39,265.372c72.121,-50.246 192.027,-222.002 211.298,-336.236Zm622.018,-20.328c-53.147,57.929 -138.784,182.8 -183.279,290.391c61.233,-51.536 143.136,-136.374 203.637,-197.843l-0.001,0.001c2.231,-3.107 4.441,-6.14 6.626,-9.095c-0.1,-35.784 -2.434,-67.69 -26.983,-83.454Zm-1264.92,-162.978c-0.009,102.696 -80.56,191.209 -80.55,249.953c-0,41.205 39.411,98.406 39.411,98.406c0.005,-111.153 113.541,-217.722 115.287,-268.957c0,-27.979 -74.148,-79.402 -74.148,-79.402Z" style="fill:#fff;"/><path d="M790.47,237.595c-314.304,-53.296 -763.539,222.365 -763.539,284.254c-19.396,0 -45.481,-134.154 -7.495,-172.139c125.503,-125.503 621.387,-250.36 783.314,-177.684c13.47,6.046 19.065,20.81 21.107,35.445c14.501,7.887 29.225,20.135 29.225,37.351c0,197.678 -385.763,696.046 -735.459,696.046c-48.686,0 -56.608,-93.784 -56.608,-93.784c28.079,-0 56.362,-3.016 84.631,-8.654c-15.842,-14.277 -28.687,-32.501 -28.687,-54.06c0,-149.305 223.959,-447.917 251.007,-466.31c27.048,-18.392 93.556,-17.716 78,-2.16c-45.832,45.833 -200.023,346.116 -234.611,504.846c277.657,-93.521 538.573,-413.053 579.115,-583.151Zm-720.057,617.71c1.667,11.376 5.566,31.642 13.782,48.983c7.098,14.98 17.227,28.247 33.428,28.247c172.823,-0 354.26,-123.691 492.79,-271.264c83.455,-88.903 151.323,-186.613 192.241,-271.761c26.828,-55.83 42.095,-106.099 42.095,-144.688c-0,-14.155 -12.951,-23.546 -24.874,-30.031c-2.321,-1.262 -3.906,-3.551 -4.271,-6.168c-1.646,-11.794 -5.412,-24.122 -16.266,-28.994c-63.763,-28.618 -180.135,-25.588 -304.724,-4.384c-187.959,31.989 -394.729,105.801 -469.286,180.358c-9.517,9.517 -14.077,25.951 -15.995,44.437c-3.106,29.938 1.346,65.272 8.26,89.522c1.837,6.444 3.829,12.073 5.92,16.525c1.886,-3.432 4.337,-7.09 7.38,-10.926c16.336,-20.594 50.453,-48.737 97.011,-79.06c153.221,-99.79 441.998,-224.36 663.96,-186.722c2.273,0.386 4.285,1.696 5.557,3.619c1.272,1.922 1.69,4.286 1.156,6.529c-16.422,68.9 -68.37,162.112 -143.006,255.102c-111.498,138.918 -273.542,277.423 -441.556,334.014c-2.844,0.958 -5.984,0.313 -8.219,-1.689c-2.236,-2.001 -3.223,-5.05 -2.584,-7.982c34.057,-156.288 183.359,-448.539 233.411,-505.27c-1.41,-0.328 -2.964,-0.624 -4.41,-0.765c-16.823,-1.636 -44.716,1.92 -59.561,12.015c-13.322,9.058 -74.773,87.385 -133.253,181.567c-58.486,94.191 -114.107,204.311 -114.107,277.851c0,19.179 11.84,35.169 25.933,47.87c2.341,2.11 3.292,5.36 2.456,8.399c-0.835,3.039 -3.314,5.347 -6.405,5.964c-25.661,5.118 -51.334,8.111 -76.863,8.702Zm1438.61,-161.829c63.751,-63.495 212.507,-309.54 227.654,-399.591c-33.776,-28.065 -29.433,-103.466 -29.433,-103.466c34.581,67.929 240.263,-11.901 258.023,-11.901c32.458,-0 67.514,54.758 67.514,71.184c-15.673,0 -134.025,154.927 -192.047,298.881c81.925,-58.876 180.019,-158.943 209.021,-189.147c60.982,-84.484 132.545,-157.68 175.204,-157.68c5.604,-0 10.809,2.36 15.444,5.858c32.925,3.872 36.563,89.974 36.965,108.958c11.43,-12.955 20.051,-20.606 23.734,-20.606c32.601,0 32.936,13.393 32.936,13.393c-20.611,20.611 -90.939,144.666 -114.284,258.553c78.951,-76.984 252.742,-286.556 253.229,-287.142c58.548,-118.481 107.375,-228.523 107.375,-280.77c-0,0 65.997,30.294 65.997,67.079c0,22.204 -115.891,257.22 -207.774,451.569c83.493,-112.207 175.13,-225.446 189.381,-225.446c6.88,-0 18.496,8.026 27.072,14.798c11.336,-2.581 28.481,-6.143 36.762,-6.143c38.472,0 -23.103,156.356 -38.476,269.491c79.461,-4.317 210.613,-183.169 210.613,-212.149c-0,0 18.765,0.247 18.765,33.786c0,44.359 -147.164,243.419 -224.894,243.419c-19.316,-0 -29.575,-14.882 -34.981,-32.123c-20.321,-9.91 -44.629,-26.971 -44.629,-51.883c-0,-46.298 45.337,-131.44 60.769,-201.234c-96.361,121.159 -213.126,268.615 -311.347,451.541c-0,0 -18.242,-25.363 -27.387,-47.181c-12.491,-12.569 -24.429,-30.123 -24.429,-51.313c0,-35.294 55.426,-144.886 119.004,-269.124c-60.805,85.864 -156.689,215.326 -182.039,215.326c-7.335,-0 -17.367,-12.694 -24.313,-25.841c-20.662,-11.233 -47.356,-29.339 -47.356,-47.906c-0,-14.152 3.517,-30.816 9.516,-48.848c-54.016,75.169 -118.905,157.265 -144.659,157.265c-11.21,0 -20.143,-12.741 -26.827,-28.029c-19.434,-14.843 -41.143,-38.78 -41.143,-71.657c0,-14.027 4.916,-33.032 13.541,-55.121c-51.887,59.332 -109.958,122.738 -142.616,148.641c-0.02,1.086 -0.03,2.18 -0.03,3.267c0,0 -0.832,-0.502 -2.315,-1.439c-6.057,4.638 -11.138,7.842 -15.018,9.313c85.706,4.404 172.959,13.764 262.208,28.414c49.91,8.192 70.146,80.71 66.786,118.938c-321.042,-142.151 -1014.84,-82.928 -1238.73,29.649c3.338,-20.918 5.335,-39.461 23.728,-45.878c198.257,-67.71 397.343,-112 603.486,-127.705Zm1078.81,-680.219c-6.755,56.901 -52.672,160.493 -107.381,271.204c-0.288,0.582 -0.642,1.128 -1.057,1.628c-0.487,0.588 -174.693,210.628 -253.826,287.789c-2.62,2.556 -6.601,3.102 -9.813,1.347c-3.212,-1.756 -4.903,-5.401 -4.168,-8.987c22.268,-108.631 86.871,-226.227 112.093,-257.688c-0.267,-0.189 -0.556,-0.371 -0.865,-0.538c-3.89,-2.102 -10.292,-3.615 -20.69,-3.703c-0.667,0.432 -2.345,1.547 -3.67,2.662c-3.968,3.338 -9.008,8.504 -14.841,15.115c-2.271,2.574 -5.889,3.492 -9.113,2.312c-3.224,-1.18 -5.394,-4.217 -5.467,-7.649c-0.234,-11.051 -1.545,-45.553 -9.499,-72.192c-2.439,-8.168 -5.468,-15.57 -9.44,-21.066c-2.947,-4.077 -6.309,-7.088 -10.669,-7.601c-1.469,-0.173 -2.866,-0.733 -4.046,-1.624c-3.151,-2.378 -6.614,-4.177 -10.424,-4.177c-15.706,0 -35.367,11.376 -57.261,29.289c-35.224,28.819 -75.063,74.891 -111.186,124.935l-0.746,0.894c-29.158,30.368 -127.802,130.949 -210.168,190.143c-3.012,2.165 -7.091,2.078 -10.008,-0.211c-2.918,-2.29 -3.971,-6.231 -2.585,-9.671c46.83,-116.188 132.647,-239.441 173.184,-284.102c7.188,-7.919 13.124,-13.488 17.291,-16.424c-0.551,-1.671 -1.314,-3.537 -2.214,-5.553c-3.506,-7.855 -9.347,-17.355 -16.532,-26.176c-11.155,-13.698 -25.347,-26.362 -39.467,-26.362c-3.472,0 -14.593,3.53 -30.401,8.123c-40.192,11.678 -107.816,31.043 -159.976,31.164c-23.932,0.056 -44.662,-4.195 -59.126,-14.086c0.507,9.12 1.655,20.264 4.104,31.517c3.63,16.683 9.964,33.794 22.135,43.907c2.283,1.897 3.384,4.865 2.892,7.792c-15.315,91.046 -165.535,339.915 -229.991,404.113l-5.248,2.404c-205.44,15.652 -403.844,59.803 -601.374,127.265c-8.2,2.86 -11.702,9.226 -13.977,17.01c-0.615,2.101 -1.138,4.298 -1.608,6.572c117.138,-53.185 338.769,-93.535 571.662,-104.245c237.3,-10.912 486.223,8.952 648.142,76.499c-0.695,-20.694 -7.075,-47.069 -19.797,-67.634c-9.555,-15.445 -22.731,-27.673 -40.3,-30.557c-88.936,-14.598 -175.882,-23.926 -261.287,-28.314c-1.936,-0.1 -3.707,-0.86 -5.08,-2.071c-1.483,1.071 -3.32,1.654 -5.258,1.564c-67.792,-3.171 -134.564,-3.224 -200.536,-0.327c-3.173,0.14 -6.149,-1.537 -7.675,-4.322c-1.525,-2.786 -1.335,-6.196 0.491,-8.795c67.849,-96.542 191.002,-305.848 216.653,-387.423c0.886,-2.817 3.196,-4.955 6.073,-5.62c28.656,-6.625 67.669,-19.075 108.83,-29.857c3.393,-0.888 6.979,0.442 8.971,3.329c1.992,2.886 1.963,6.711 -0.072,9.568c-43.87,61.588 -108.469,173.23 -143.279,254.296c-14.42,33.582 -23.839,61.648 -23.839,78.237c0,8.071 5.822,16.633 13.215,25.053c0.922,1.049 1.564,2.313 1.87,3.675c3.18,14.185 7.756,26.982 13.399,36.044c3.018,4.846 6.167,8.587 9.773,10.248c0.751,0.345 1.428,0.79 2.022,1.315c0.58,-0.418 1.222,-0.766 1.916,-1.029c3.349,-1.27 7.676,-4.133 12.906,-8.137c0.379,-0.291 0.777,-0.545 1.192,-0.758c0.315,-0.355 0.663,-0.684 1.04,-0.983c32.419,-25.713 90.015,-88.701 141.522,-147.598c2.665,-3.047 7.134,-3.739 10.595,-1.639c3.462,2.101 4.913,6.384 3.44,10.155c-8.156,20.892 -12.97,38.825 -12.97,52.091c0,29.943 20.168,51.516 37.869,65.034c1.124,0.859 2.011,1.989 2.577,3.285c2.97,6.794 6.373,13.061 10.345,17.591c2.695,3.072 5.468,5.443 8.846,5.443c1.994,0 4.279,-0.981 6.944,-2.407c5.714,-3.057 12.377,-8.303 19.802,-15.149c31.016,-28.597 73.694,-84.121 111.145,-136.239c2.404,-3.345 6.89,-4.432 10.557,-2.559c3.668,1.873 5.418,6.144 4.118,10.052c-5.678,17.068 -9.09,32.823 -9.09,46.218c0,5.55 3.643,10.813 8.461,15.946c9.104,9.698 22.873,18.295 34.543,24.639c1.442,0.784 2.621,1.977 3.388,3.428c3.726,7.054 8.383,14.006 12.979,18.403c0.961,0.92 1.905,1.713 2.837,2.318c0.406,0.264 1.099,0.579 1.307,0.67c1.854,-0.095 4.085,-1.711 7.027,-3.774c6.994,-4.904 15.738,-13.205 25.719,-23.862c40.518,-43.26 99.956,-124.35 142.313,-184.163c2.526,-3.567 7.38,-4.576 11.118,-2.311c3.739,2.264 5.093,7.033 3.101,10.924c-44.349,86.662 -84.738,166.164 -104.967,218.135c-8.188,21.035 -13.121,37.227 -13.121,47.192c-0,18.824 10.91,34.273 22.006,45.439c0.757,0.762 1.36,1.663 1.775,2.653c5.068,12.091 13.038,25.305 18.912,34.37c97.099,-177.856 211.127,-321.893 305.614,-440.696c2.414,-3.037 6.605,-4.005 10.107,-2.336c3.502,1.669 5.389,5.534 4.551,9.322c-9.326,42.184 -29.455,89.948 -44.1,131.473c-9.319,26.42 -16.472,50.157 -16.472,67.962c0,10.177 5.213,18.634 12.254,25.675c7.962,7.963 18.307,14.14 27.695,18.718c2.059,1.004 3.614,2.811 4.299,4.997c4.291,13.686 11.696,26.283 27.029,26.283c11.217,-0 23.958,-4.833 37.582,-12.718c22.085,-12.783 46.079,-33.617 69.151,-57.631c40.828,-42.494 78.696,-94.972 97.723,-131.647c7.443,-14.346 12.105,-25.906 12.105,-33.09c-0,-10.749 -2.641,-17.091 -5.318,-20.756c-1.473,3.823 -3.466,8.167 -5.983,12.927c-12.537,23.716 -37.959,60.064 -68.365,94.85c-26.145,29.911 -55.974,58.649 -84.378,77.361c-19.993,13.173 -39.434,21.372 -56.549,22.302c-2.482,0.134 -4.893,-0.845 -6.578,-2.672c-1.685,-1.826 -2.466,-4.309 -2.132,-6.771c10.752,-79.126 44.142,-179.408 50.012,-232.458c1.112,-10.05 1.301,-18.186 -0.256,-23.806c-0.575,-2.074 -1.141,-3.771 -3.022,-3.771c-7.868,-0 -24.142,3.482 -34.912,5.934c-2.458,0.56 -5.037,-0.023 -7.015,-1.585c-4.758,-3.758 -10.512,-7.958 -15.742,-10.697c-1.96,-1.027 -3.742,-1.945 -5.276,-2.22c-0.981,0.635 -3.514,2.322 -5.567,4.08c-5.323,4.554 -12.297,11.595 -20.597,20.627c-36.963,40.224 -99.174,119.015 -157.421,197.293c-2.557,3.436 -7.302,4.374 -10.975,2.169c-3.672,-2.204 -5.075,-6.834 -3.244,-10.706c73.447,-155.353 162.253,-336.709 194.835,-414.398c7.472,-17.815 12.14,-29.539 12.14,-33.609c-0,-12.52 -9.611,-23.781 -20.393,-33.238c-10.092,-8.851 -21.591,-15.995 -29.794,-20.584Zm-1619.2,681.346c158.873,-68.843 355.963,-408.682 355.96,-556.004c0,-22.72 -46.878,-13.096 -46.878,-13.096c0,0 9.738,-22.72 36.786,-22.72c27.048,-0 47.604,32.458 47.604,32.458c0,-0 53.015,-9.738 53.015,87.636c-0,125.503 -311.595,541.944 -455.141,541.944c-14.066,-0 -26.63,-19.043 -34.793,-35.296c-18.824,-15.261 -38.046,-36.117 -38.046,-57.649c0,-64.332 94.647,-224.862 177.721,-317.798c-9.807,3.95 -17.89,6.411 -22.81,6.411c-34.621,0 -29.408,-68.369 -29.408,-68.369c0.298,31.041 82.416,9.21 135.241,-7.574c2.157,0 4.163,0.202 6.02,0.555c2.041,-0.368 4,-0.555 5.881,-0.555c27.659,0 20.942,10.309 20.942,10.309c-42.649,45.075 -178.245,260.149 -212.094,399.748Zm52.499,-381.073c0.515,6.552 1.564,13.815 3.585,20.473c2.864,9.434 7.381,18.153 17.334,18.153c4.264,-0 11.198,-2.384 19.697,-5.808c3.593,-1.446 7.708,-0.228 9.934,2.942c2.225,3.17 1.973,7.455 -0.608,10.342c-57.617,64.457 -120.864,161.724 -153.62,236.151c-13.582,30.86 -21.981,57.592 -21.981,76.093c0,7.153 2.7,14.17 6.766,20.882c6.868,11.339 17.631,21.729 28.195,30.294c0.919,0.745 1.668,1.676 2.199,2.733c4.475,8.911 10.304,18.804 17.103,25.241c3.243,3.072 6.564,5.461 10.243,5.461c21.733,0 47.425,-10.393 75.441,-27.827c43.879,-27.306 92.911,-71.921 140.632,-124.084c83.927,-91.738 163.724,-206.831 204.025,-293.294c16.742,-35.92 26.709,-66.661 26.709,-88.405c0,-44.408 -11.019,-64.736 -23.107,-73.618c-10.073,-7.4 -20.068,-5.822 -20.068,-5.822c-3.344,0.614 -6.726,-0.865 -8.546,-3.738c0,0 -6.692,-10.531 -17.307,-18.967c-6.439,-5.117 -14.374,-9.616 -23.257,-9.616c-6.722,0 -12.101,1.758 -16.314,4.165c6.579,-0.016 13.515,0.617 19.104,2.63c9.364,3.372 15.636,9.883 15.636,20.688c0.001,74.674 -49.562,198.288 -119.644,311.809c-70.132,113.6 -160.751,216.922 -241.337,251.842c-2.9,1.257 -6.263,0.764 -8.681,-1.272c-2.418,-2.037 -3.476,-5.266 -2.731,-8.338c33.09,-136.468 162.536,-344.366 209.788,-398.698c-2.59,-0.522 -6.3,-1.062 -10.537,-1.062c-1.409,-0 -2.876,0.147 -4.405,0.422c-1.003,0.181 -2.03,0.176 -3.031,-0.014c-1.028,-0.196 -2.118,-0.327 -3.269,-0.38c-37.963,12.004 -89.975,25.943 -118.03,22.716c-3.658,-0.421 -6.972,-1.12 -9.918,-2.094Zm581.728,-52.938c19.586,0.04 52.383,1.809 52.383,63.582c-0,78.981 -185.557,376.914 -257.434,376.914c-9.593,-0 -19.543,-9.426 -27.621,-21.056c-20.681,-3.399 -62.309,-16.021 -62.309,-62.556c0,-140.422 171.805,-354.568 229.498,-354.568c14.441,-0 18.733,6.521 20.007,10.292c14.5,-7.588 30.133,-12.609 44.553,-12.609l0.923,0.001Zm-0.015,8.333l-0.908,-0c-13.182,-0 -27.435,4.723 -40.69,11.659c-2.159,1.129 -4.704,1.257 -6.966,0.35c-2.261,-0.907 -4.012,-2.758 -4.792,-5.067c-0.735,-2.173 -3.79,-4.626 -12.112,-4.626c-5.797,0 -12.869,2.87 -21.004,7.618c-14.073,8.213 -30.6,22.096 -48.055,39.926c-69.008,70.486 -152.105,202.202 -152.105,298.691c-0,40.87 37.163,51.348 55.327,54.333c2.224,0.366 4.206,1.618 5.492,3.469c3.564,5.132 7.504,9.81 11.648,13.172c3.03,2.458 6.035,4.304 9.129,4.304c7.338,0 15.922,-4.01 25.605,-10.55c16.59,-11.204 35.576,-29.891 55.367,-53.02c54.957,-64.228 115.605,-162.456 147.048,-234.408c12.995,-29.74 21.08,-54.747 21.08,-70.602c0,-27.003 -6.277,-41.187 -15.585,-48.329c-9.011,-6.913 -20.191,-6.903 -28.479,-6.92Zm178.32,420.624c-12.055,-5.549 -22.134,-26.681 -27.82,-52.038c-8.917,-10.155 -15.286,-20.817 -15.286,-30.551c-0,-57.558 105.611,-248.85 168.664,-337.368c-41.249,10.805 -80.347,23.275 -109.065,29.915c-25.799,82.044 -149.546,292.618 -217.785,389.715c66.221,-2.908 133.244,-2.856 201.292,0.327Zm-265.673,-311.603c3.533,-9.61 8.25,-19.044 13.78,-28.068c18.212,-29.719 45.153,-54.935 65.764,-67.152c2.791,-1.654 6.289,-1.538 8.964,0.298c2.676,1.836 4.042,5.058 3.502,8.257c-19.584,116.091 -141.458,290.625 -214.752,341.687c-2.804,1.954 -6.517,1.997 -9.367,0.109c-2.849,-1.888 -4.256,-5.325 -3.549,-8.669c18.761,-88.789 74.45,-195.16 117.366,-267.884c1.817,-3.078 5.394,-4.655 8.892,-3.92c3.498,0.736 6.137,3.62 6.56,7.169c0.78,6.545 1.767,12.636 2.84,18.173Zm83.793,-88.051c-32.886,19.492 -82.464,73.693 -82.464,124.482c-0,0 -8.626,-21.582 -12.444,-53.618c-42.521,72.055 -97.802,177.4 -116.39,265.372c72.121,-50.246 192.027,-222.002 211.298,-336.236Zm648.314,78.065l0.001,0.001c-60.667,61.638 -142.808,146.695 -204.21,198.373c-2.939,2.473 -7.187,2.617 -10.287,0.349c-3.1,-2.267 -4.248,-6.36 -2.78,-9.91c44.871,-108.501 131.243,-234.421 184.84,-292.839c2.74,-2.987 7.232,-3.569 10.643,-1.379c14.101,9.055 22.023,22.613 26.233,39.179c3.817,15.016 4.528,32.632 4.58,51.264c0.005,1.791 -0.567,3.536 -1.632,4.977c-2.162,2.925 -4.35,5.927 -6.558,9.002c-0.254,0.353 -0.531,0.682 -0.83,0.983Zm-26.296,-98.393c-53.147,57.929 -138.784,182.8 -183.279,290.391c61.233,-51.536 143.136,-136.374 203.637,-197.843l-0.001,0.001c2.231,-3.107 4.441,-6.14 6.626,-9.095c-0.1,-35.784 -2.434,-67.69 -26.983,-83.454Zm-1264.92,-162.978c-0.009,102.696 -80.56,191.209 -80.55,249.953c-0,41.205 39.411,98.406 39.411,98.406c0.005,-111.153 113.541,-217.722 115.287,-268.957c0,-27.979 -74.148,-79.402 -74.148,-79.402Zm7.709,15.977c-4.339,56.738 -30.736,108.934 -52.408,153.815c-14.818,30.687 -27.522,57.645 -27.518,80.161c0,23.647 13.745,52.765 24.694,72.202c8.567,-58.968 43.795,-115.653 73.289,-162.405c13.021,-20.639 24.839,-39.277 32.338,-55.254c4.475,-9.534 7.42,-17.962 7.708,-25.202c-0.031,-2.951 -1.427,-6.194 -3.416,-9.7c-2.585,-4.555 -6.257,-9.343 -10.514,-14.169c-13.218,-14.987 -31.934,-30.145 -44.173,-39.448Z" style="fill:#fff;"/></svg>