<?xml version="1.0" encoding="UTF-8" standalone="no"?>
<!DOCTYPE svg PUBLIC "-//W3C//DTD SVG 1.1//EN" "http://www.w3.org/Graphics/SVG/1.1/DTD/svg11.dtd">
<svg width="100%" height="100%" viewBox="0 0 1444 472" version="1.1" xmlns="http://www.w3.org/2000/svg" xmlns:xlink="http://www.w3.org/1999/xlink" xml:space="preserve" xmlns:serif="http://www.serif.com/" style="fill-rule:evenodd;clip-rule:evenodd;stroke-linejoin:round;stroke-miterlimit:2;">
    <g transform="matrix(1,0,0,1,-265.084,-760.482)">
        <g transform="matrix(0.848308,0,0,0.848308,-1.93875,244.927)">
            <g transform="matrix(1.17882,0,0,1.17882,2.28544,-288.724)">
                <path d="M379.322,1041.68C346.055,1095.4 318.417,1147.28 295.917,1197.48C280.625,1181.54 269.718,1161.22 265.084,1134.62C327.507,1034.43 408.013,926.49 514.709,807.324C448.376,835.02 386.363,868.765 327.935,907.53C305.565,902.437 291.619,886.515 281.686,865.431C319.331,872.872 462.848,790.267 557.401,760.482L571.038,784.199C441.686,934.233 352.535,1071.16 295.917,1197.48L418.393,981.568C475.943,946.222 559.273,868.082 741.153,784.684C759.676,792.982 770.475,804.983 779.999,816.946C649.939,865.945 531.634,940.803 418.524,1027.09C502.685,1107.89 709.412,1159.13 822.455,1178.31C812.927,1202.07 797.604,1220.87 773.657,1232.28C621.784,1181.81 485.994,1121.06 379.322,1041.68ZM1220.92,1149.98L1190.33,1119.39C1259.67,987.924 1322.29,903.02 1424.41,789.21L1450.89,799.613C1357.02,917.84 1303.94,1011.42 1254.16,1140.05C1352.48,1112.12 1442.18,1099.92 1559.65,1097.51L1582.35,1160.88C1451.8,1136.55 1298.5,1158.68 1137.06,1210.32L1136.11,1179.11C1165.77,1168.13 1193.8,1158.46 1220.92,1149.98ZM1013.09,919.39C1041.46,885.117 1072.12,851.973 1105.91,820.399L1128.62,837.206L1129.01,908.705C1131.08,906.221 1133.15,903.752 1135.23,901.288L1167.87,927.295C1130.26,964.358 1097.38,1007.33 1066.76,1053.12C1094.38,1046.46 1120.55,1038.99 1145.44,1030.81L1187.25,1094.56C1137.48,1093.12 1088.16,1093.65 1039.22,1095.87C1024.02,1120.23 1009.22,1145.09 994.481,1170.03L919.519,1210.32C899.08,1175.66 864.49,1135.34 823.648,1092.52L842.006,1084.36L843.551,1085.6C904.644,1081.64 960.218,1074.63 1011.16,1065.03C1035.67,1029.73 1060.88,994.867 1087.27,960.743L961.007,1057.06L940.112,1016.18C948.157,1004.57 956.356,993.032 964.743,981.58L884.305,1046.14L872.706,1046.14L851.339,1005.24L911.823,919.004C854.397,966.285 797.547,1021.69 741.45,1087.65C731.222,1067.7 725.223,1048.59 723.135,1030.27C733.367,1015.61 743.783,1001.19 754.395,987.024C728.341,1010.61 699.969,1040.86 669.605,1069.64C653.334,1057.1 641.657,1040.37 635.183,1018.92C640.594,1010.36 646.172,1001.76 651.933,993.218C618.202,1023.55 586.802,1055.68 554.105,1090.37L526.965,1049.88C559.008,984.115 600.956,933.757 648.148,891.557L670.869,901.656C636.914,941.244 608.691,979.475 590.712,1016.53L689.801,941.974C706.305,921.903 724.149,903.24 743.583,887.328L763.932,901.947C734.13,934.452 712.101,967.953 697.69,1002.43L808.348,919.39L808.347,919.39C822.317,902.991 836.637,887.025 851.339,871.536L872.095,886.799L779.3,1019.28C830.011,960.544 884.469,913.989 941.692,876.42L967.943,896.567L905.673,991.193L1013.09,919.39L1013.09,919.39ZM987.996,1098.79C949.6,1101.43 911.435,1105.05 873.465,1109.5L943.486,1165.44C958.192,1143.15 972.988,1120.91 987.996,1098.79ZM1581.06,943.343C1614.64,897.01 1648.76,858.373 1660.53,847.081C1671.46,847.081 1708.92,896.256 1708.92,918.284C1708.92,940.312 1615.17,1101.47 1584.56,1101.47C1572.4,1101.47 1562.82,1096.85 1562.82,1096.85C1545.94,1078.67 1536.11,1052.97 1530.03,1023.26C1532.45,1018.74 1534.99,1014.19 1537.62,1009.62L1477.38,1071.68C1463.16,1054.46 1454.01,1034.47 1449.99,1011.69L1357.43,1092.39L1326.83,1044.31C1365.52,969.042 1419.98,907.421 1479.66,860.127L1500.64,874.464L1500.68,874.856C1502.69,894.861 1502.57,914.866 1500.29,934.873C1503.92,930.443 1507.54,926.091 1511.17,921.818L1539.76,927.449C1511.07,968.311 1499.57,994.441 1495.14,1014.51L1581.06,943.343ZM1564.75,1076.42C1564.75,1059.79 1580.46,1016.26 1600.77,974.562C1621.07,932.868 1645.97,893.011 1664.35,883.731C1664.35,918.716 1591.76,1076.42 1564.75,1076.42ZM1482.87,895.878C1449.2,937.369 1419.13,979.767 1391.64,1022.81C1421.18,1004.31 1449.64,983.619 1478.14,963.011C1480.16,960.346 1482.18,957.708 1484.2,955.096C1486.2,933.455 1484.89,914.388 1482.87,895.878ZM1104.17,860.045C1064.69,898.741 1029.94,942.476 1002.8,994.374L1110.85,922.506C1110.32,901.426 1108.14,880.597 1104.17,860.045Z" style="fill:white;"/>
            </g>
        </g>
    </g>
</svg>
