<?xml version="1.0" encoding="UTF-8" standalone="no"?><!DOCTYPE svg PUBLIC "-//W3C//DTD SVG 1.1//EN" "http://www.w3.org/Graphics/SVG/1.1/DTD/svg11.dtd"><svg width="100%" height="100%" viewBox="0 0 2775 1267" version="1.1" xmlns="http://www.w3.org/2000/svg" xmlns:xlink="http://www.w3.org/1999/xlink" xml:space="preserve" xmlns:serif="http://www.serif.com/" style="fill-rule:evenodd;clip-rule:evenodd;stroke-linejoin:round;stroke-miterlimit:2;"><g><path d="M609.442,1154.36c328.113,-89.047 1048.34,-189.108 1411.94,-152.108c65.267,6.642 83.45,79.187 83.45,79.187c-370.955,-69.199 -1084.78,-0.429 -1486.64,88.357l-8.748,-15.436Z" style="fill:#fff;"/><path d="M801.638,593.211l2.866,7.133c-0,-0 99.18,-12.071 197.977,-16.679c18.884,-0.881 -20.154,-22.241 -20.154,-22.241c-46.949,2.19 -180.689,31.787 -180.689,31.787Z" style="fill:#fff;"/><path d="M1879.54,489.579l2.531,7.259c-0,-0 99.635,-7.436 198.539,-7.436c18.905,-0 -19.095,-23.156 -19.095,-23.156c-47,-0 -181.975,23.333 -181.975,23.333Z" style="fill:#fff;"/><path d="M1663.77,1100.69l431.536,-23.728c0.532,-22.305 -33.399,-37.747 -58.603,-60.052c0,-0 -104.376,64.022 -343.654,64.022c-29.279,0 -29.279,19.758 -29.279,19.758Z" style="fill:#fff;"/></g><g><path d="M426.373,527.358c20.394,1.288 63.248,72.472 63.248,72.472l-238.697,395.801c0,0 370.553,-376.296 407.517,-373.963c36.963,2.334 71.372,1.354 70.526,14.756c-33.366,28.194 -215.022,380.626 -222.404,497.552c0,-0 -85.279,-39.545 -81.413,-100.792c3.867,-61.247 121.391,-260.66 121.391,-260.66c-22.943,-1.449 -437.051,454.012 -439.379,493.535c0,-0 -49.666,-24.099 -44.481,-106.225c8.173,-129.453 355.331,-576.192 355.331,-576.192c-124.088,-7.05 -368.513,206.52 -371.954,256.583c-0,0 -47.693,-60.246 -46.015,-86.832c5.449,-86.302 347.305,-231.024 426.33,-226.035Z" style="fill:#fff;"/><g><path d="M861.098,727.518c-47.811,47.407 -159.843,195.689 -159.847,344.942c-0,0 -90.805,-38.017 -90.805,-99.959c-0,-61.941 140.713,-274.078 204.57,-274.078c46.082,0 46.082,29.095 46.082,29.095Z" style="fill:#fff;"/><path d="M815.016,708.36c0,0 55.022,-25.542 86.951,-25.542c31.928,-0 61.303,44.7 61.303,91.954c-0,47.254 -117.906,297.688 -262.019,297.688c-13.845,0 -13.845,-34.596 -13.845,-34.596c0,-0 214.577,-134.101 214.561,-305.238c-0.002,-20.434 -76.629,0 -76.629,0l-10.322,-24.266Z" style="fill:#fff;"/></g><path d="M1101.97,650.12c-25.093,-0.002 -38.249,-56.467 -38.032,-99.93c0,0 18.114,22.999 43.657,22.999c25.543,-0 134.1,-8.94 169.86,-8.94c35.76,-0 55.101,52.647 55.101,60.31c-0,7.663 -134.981,220.08 -134.981,268.607c21.629,-0 267.047,-265.881 267.047,-265.881l-26.992,76.239c-0,0 -236.803,309.002 -277.672,309.002c-26.82,0 -70.243,-46.615 -70.243,-83.014c0,-36.399 144.317,-275.863 144.317,-288.634c0,-12.772 -75.08,3.553 -75.08,3.553c-0,0 -217.385,434.507 -254.423,434.507c-37.037,-0 -48.531,-39.478 -48.531,-39.478c19.465,-0.054 245.74,-330.644 245.972,-389.34Z" style="fill:#fff;"/><g><path d="M1543.1,860.546c0,-71.752 183.909,-374.226 203.066,-374.203c11.565,0.014 55.325,9.829 55.325,22.156c-24.048,24.048 -148.897,280.295 -137.871,280.295c11.026,-0 216.583,-222.236 216.583,-222.236c-0,-0 17.88,-2.554 26.82,8.94c-0,-0 -263.028,355.291 -293.68,355.291c-30.651,0 -70.243,-37.676 -70.243,-70.243Z" style="fill:#fff;"/><path d="M1953.09,586.626c-0,0 -90.699,205.31 -90.699,248.377c19.157,0 226.055,-253.486 226.055,-253.486l10.217,23.601c-0,-0 -231.368,363.986 -259.26,363.986c-27.893,-0 -85.569,-51.086 -85.569,-95.786c-0,-44.7 134.1,-312.9 150.703,-312.9c16.603,-0 48.553,26.208 48.553,26.208Z" style="fill:#fff;"/><path d="M1428.03,834.855c0.19,-31.929 99.448,-192.271 99.448,-192.271c0,0 -32.906,-20.864 -54.618,-20.864c-21.711,0 -158.365,252.875 -158.365,295.021c-0,42.145 52.362,67.688 65.134,67.688c12.771,0 293.08,-362.709 293.08,-362.709l40.053,-96.352c0,0 -264.482,309.487 -284.732,309.487Z" style="fill:#fff;"/></g><g><path d="M2254.53,639.45c-0,-0 -37.091,-116.07 -89.454,-116.07c-65.134,0 -212.791,258.551 -212.791,333.902c0,48.532 69.155,95.02 83.204,95.02c26.82,-0 189.188,-276.86 189.188,-276.86l0,-31.929c0,0 -155.189,195.421 -165.407,195.421c0,-65.171 99.421,-245.311 121.132,-245.311c21.711,0 48.585,58.598 48.585,58.598l25.543,-12.771Z" style="fill:#fff;"/><path d="M2306.43,622.998c-0,-0 -65.324,108.279 -65.324,172.141c25.972,-0 218.581,-244.949 218.581,-244.949l6.386,35.77c-0,0 -203.066,314.178 -234.995,314.178c-31.928,-0 -92.467,-60.7 -92.467,-92.93c-0,-32.23 86.888,-171.739 98.853,-179.102c16.603,-10.217 68.966,-5.108 68.966,-5.108Z" style="fill:#fff;"/></g><g><path d="M2611.06,416.779c-0,0 -219.162,378.852 -247.793,601.918c-28.862,-3.704 -87.384,-61.548 -81.693,-105.884c21.624,-168.478 263.725,-519.828 296.661,-515.601c21.534,2.764 32.825,19.567 32.825,19.567Z" style="fill:#fff;"/><path d="M2326.18,1001.96c-0,-0 45.492,37.734 64.608,36.493c83.156,-5.399 368.976,-171.574 382.761,-253.757c9.719,-57.939 -63.532,-123.345 -63.532,-123.345c6.333,93.971 -193.016,302.252 -383.837,340.609Z" style="fill:#fff;"/></g></g><g><g><path d="M833.367,127.802c0,0 -243.129,367.996 -243.068,445.621c0.006,7.512 -67.493,-30.326 -67.493,-81.658c0,-51.332 261.83,-380.18 274.351,-380.18c12.52,-0 36.21,16.217 36.21,16.217Z" style="fill:#fff;"/><path d="M421.183,224.082c-0,-0 550.889,-82.097 653.833,-64.575c46.506,7.916 54.143,23.975 54.143,23.975c-0,0 -24.956,-84.159 -55.801,-89.409c-128.351,-21.846 -625.993,85.663 -637.847,94.068c-11.854,8.406 -14.328,35.941 -14.328,35.941Z" style="fill:#fff;"/></g><g><path d="M997.725,85.234c-0,-0 -253.169,390.529 -253.108,468.153c0.006,7.512 -54.789,-12.858 -54.789,-64.19c0,-51.332 265.329,-416.483 277.849,-416.483c12.52,-0 30.048,12.52 30.048,12.52Z" style="fill:#fff;"/><path d="M1041.2,237.383c0,-0 -59.04,106.507 -90.799,194.144c-4.322,11.927 137.477,-138.977 137.477,-138.977l-2.721,30.27c-44.203,58.76 -120.299,191.769 -154.433,191.594c0,-0 -54.789,-12.858 -54.789,-64.19c0,-25.312 122.697,-225.362 135.217,-225.362c12.52,0 30.048,12.521 30.048,12.521Z" style="fill:#fff;"/><path d="M744.955,547.985c66.311,-93.501 226.667,-306.861 269.236,-306.861c-0,0 -4.744,-17.872 -15.972,-17.872c-53.712,-0.114 -261.025,238.138 -257.501,251.356l4.237,73.377Z" style="fill:#fff;"/></g><g><path d="M1099.72,485.514c-0,-156.258 110.957,-270.34 110.957,-270.34c-0,0 -8.862,-11.748 -30.146,-11.748c-38.812,0 -146.165,155.448 -146.165,199.588c-0,33.286 34.239,82.5 65.354,82.5Z" style="fill:#fff;"/><path d="M1294.17,165.499c-0,-0 84.045,25.456 80.508,85.311c-3.537,59.854 -185.912,252.531 -266.917,247.744c0,-0 -37.183,-30.731 -26.831,-30.119c64.094,3.788 261.947,-218.408 213.24,-302.936Z" style="fill:#fff;"/><path d="M1195.56,212.487c-0,0 22.536,-9.061 36.308,-9.061c13.772,0 17.528,20.032 17.528,45.073c0,25.04 -51.332,116.436 -93.9,116.436c-28.796,0 -36.309,-20.465 -36.309,-20.465c27.898,-0 112.681,-95.675 76.373,-131.983Z" style="fill:#fff;"/></g><path d="M1888.93,428.025c62.525,0.007 265.404,-277.162 266.099,-286.001l-3.789,-20.601c-0,0 -221.579,241.542 -267.557,241.542c22.169,-124.48 100.989,-220.941 100.989,-220.941c0,0 -8.699,-11.532 -29.592,-11.532c-38.1,-0 -141.29,171.221 -141.29,214.551c0,32.674 44.597,82.982 75.14,82.982Z" style="fill:#fff;"/><path d="M1980.62,141.324c0,-0 -35.756,136.839 -76.177,136.839c0,0 4.203,21.09 31.589,21.09c34.786,0 90.437,-114.502 90.437,-140.949c-0,-26.448 -45.849,-16.98 -45.849,-16.98Z" style="fill:#fff;"/><path d="M1544.99,335.419c1.045,-20.212 133.421,-234.824 133.421,-234.824c-0,0 -25.496,-23.143 -40.286,-23.908c-14.79,-0.764 -219.75,285.988 -223.132,351.389c-3.383,65.402 64.208,98.061 64.208,98.061c3.154,-60.975 373.045,-462.218 373.045,-462.218l-15.035,-16.681l-292.221,288.181Z" style="fill:#fff;"/><path d="M1661.41,91.742c0,-0 -1.696,-14.728 -16.172,-24.072c-22.446,-14.488 -251.023,-1.665 -273.338,11.161c-25.438,14.622 -40.231,90.695 -40.231,90.695c40.787,-82.259 329.741,-77.784 329.741,-77.784Z" style="fill:#fff;"/><path d="M1887.58,72.647c0,-0 -125.377,207.493 -129.007,250.983c14.038,1.172 157.416,-164.651 157.416,-164.651l0,35.183c0,-0 -173.164,246.833 -196.435,244.891c-23.271,-1.942 -73.751,-44.016 -70.599,-81.786c4.435,-53.136 196.851,-310.221 206.159,-309.444c19.628,1.638 32.466,24.824 32.466,24.824Z" style="fill:#fff;"/><g><path d="M2151.97,238.761c-0,-15.977 51.423,-119.419 51.423,-119.419c-0,-0 -22.123,-17.206 -34.413,-17.206c-12.29,-0 -119.488,173.562 -119.488,225.263c-0,51.7 57.417,74.693 57.417,74.693c-0,-48.201 220.35,-286.681 220.35,-286.681l-27.635,-14.707l-147.654,138.057Z" style="fill:#fff;"/><path d="M2337.41,117.982c0,-0 -83.046,295.827 -64.846,295.827c-0,-56.314 205.946,-416.302 275.634,-413.796c22.761,0 57.663,41.315 57.663,41.315c-64.348,23.263 -248.032,256.508 -327.691,446.823c-25.955,0 -83.655,-36.743 -83.655,-71.581c0,-94.634 99.896,-315.41 110.367,-315.41c20.957,0 32.528,16.822 32.528,16.822Z" style="fill:#fff;"/></g></g></svg>