<?xml version="1.0" encoding="UTF-8" standalone="no"?>
<!DOCTYPE svg PUBLIC "-//W3C//DTD SVG 1.1//EN" "http://www.w3.org/Graphics/SVG/1.1/DTD/svg11.dtd">
<svg width="100%" height="100%" viewBox="0 0 2789 808" version="1.1" xmlns="http://www.w3.org/2000/svg" xmlns:xlink="http://www.w3.org/1999/xlink" xml:space="preserve" xmlns:serif="http://www.serif.com/" style="fill-rule:evenodd;clip-rule:evenodd;stroke-linejoin:round;stroke-miterlimit:2;">
    <g transform="matrix(1,0,0,1,-493,-777.403)">
        <path d="M1492.18,1394.65C1478.9,1375.9 1465,1348.6 1465,1316.39C1465.02,1228.36 1713.35,837.961 1702,788.799C1702,788.799 1748.5,811.299 1748.5,853.299C1748.58,873.512 1678.65,988.731 1614.42,1128.86C1663.67,1066.54 1714.01,1010.8 1736.5,1010.8C1743.54,1010.8 1749.11,1013.88 1753.36,1017.82C1755.82,1014.9 1758.21,1012.54 1760.5,1010.8C1780.81,995.382 1807,1018.3 1807,1018.3C1783.32,1043.74 1759.51,1133.15 1747.8,1213.42C1808.58,1152.99 1866.1,1081.21 1923.81,1010.46L1923.24,1013.62C1932.23,996.659 1941.25,980.046 1950.07,964.128C1900.68,976.888 1860.5,986.804 1841.5,986.799C1817.5,986.799 1804,941.799 1804,941.799C1826.97,949.175 1904.54,927.042 1985.92,901.595C2010.79,859.828 2030.64,830.372 2038.6,824.799C2068.6,803.799 2098.6,812.799 2098.6,812.799C2084.4,835.318 2071.02,857.254 2058.42,878.63C2123.43,858.015 2180.74,840.448 2202.21,840.448C2244.21,840.448 2276.22,912.18 2276.22,912.18C2217.89,900.002 2113.43,922.634 2020.2,946.087C1950.17,1075.03 1910.27,1181.47 1889.2,1269.69C1942.05,1217.92 1995.21,1148.87 2048.58,1067.75C2072.74,1022.57 2096.74,987.249 2108.5,982.299C2137,970.299 2159.96,980.761 2159.96,980.761C2117.37,1041.61 2083.13,1144.4 2062.49,1230.53C2115.85,1169.56 2176.59,1089.71 2224.28,1026.54C2228.68,1019.13 2232.67,1013.25 2236,1009.3C2246.45,996.888 2279.5,1016.8 2279.5,1016.8C2250.58,1092.15 2233.71,1158.14 2223.67,1218.81C2409.36,1019.99 2433.46,841.351 2384.5,793.299C2437.34,818.617 2457.43,862.418 2457.28,926.164C2457,1046.8 2255.36,1320.75 2212.13,1321.3L2211.86,1321.3C2206.85,1321.24 2202.95,1318.23 2199.93,1313.51C2182.9,1301.67 2153.86,1278.05 2153.86,1254.52C2153.86,1230.91 2157.97,1204.54 2164.46,1178C2114.49,1256.42 2057.2,1341 2042.33,1341.3L2042.09,1341.3C2033.1,1341.22 2026.99,1334.81 2022.83,1326.24C2004.4,1310.53 1979.5,1284.92 1979.5,1261.3C1979.5,1254.91 1980.2,1247.73 1981.5,1239.92C1951.99,1288.98 1918.25,1339.86 1893.26,1362.37C2128.02,1353.02 2373.02,1360.2 2617.65,1390.65C2630.22,1392.21 2661.76,1448.01 2649.23,1446.21C2233.91,1386.7 1817.74,1387.27 1411.44,1448.67C1411.44,1448.67 1377.69,1453.91 1343.49,1459.52C1374.1,1457.94 1408.54,1457.94 1406.33,1464.26C1383.33,1530.1 1347.44,1578.18 1282.22,1584.11C1203.51,1591.27 1163.59,1546.06 1143.34,1498.36C1038.93,1521.34 935.321,1548.44 832.726,1579.69C820.363,1583.46 848.909,1517.54 861.377,1514.21C944.409,1492.06 1034.04,1471.18 1129.08,1452.34C1122.5,1421.53 1122.5,1397.54 1122.5,1397.54C1122.5,1397.54 1126.96,1423.73 1146.26,1448.96C1210.55,1436.47 1277.25,1424.91 1345.91,1414.54C1372.25,1351.55 1381.4,1262.08 1394.06,1185.32C1340,1265.68 1249.89,1397.54 1240.67,1397.54C1233.8,1397.54 1228.01,1392.2 1223.19,1384.27C1223.12,1384.79 1223.06,1385.3 1223,1385.8C1223,1385.8 1166.57,1333.5 1160.42,1290.99C1127.02,1337.78 1096.05,1378.09 1088.5,1378.09C1084.91,1378.09 1081.26,1375.83 1077.71,1372.21C1063.73,1364.54 1018,1336.24 1018,1294.3C1018,1290.51 1019.07,1284.85 1021.04,1277.73C969.099,1360.24 909.13,1453.13 902.41,1453.13C901.563,1453.13 900.726,1452.62 899.898,1451.66C887.667,1444.32 834.895,1410.56 834.895,1374.3C834.895,1299.29 911.411,1133.56 965.597,1030.38C747.744,1247.73 628.263,1440.03 583.293,1544.12L583,1544.8C583,1544.8 524.5,1501.3 524.5,1438.3C524.5,1316.89 710.872,1019.47 788.392,903.594C715.242,937.353 587.791,1004.8 554.5,1004.8C517,1004.8 493,911.799 493,911.799C581.159,969.674 774.195,844.299 818.5,844.299C823.051,844.299 826.635,848.027 829.422,853.223C847.681,850.495 875.5,868.299 875.5,868.299C783.412,1028.68 723.361,1151.26 680.884,1253.11C801.79,1102.95 966.384,923.991 1012,924.549C1018.75,924.549 1024.89,928.897 1029.93,934.33C1051.34,926.918 1089.3,927.057 1084.26,936.509C1020.76,1055.51 964.713,1180.53 932.108,1291.76L1106.38,1102.68C1126.47,1072.59 1147.13,1048.46 1165,1039.3C1184.43,1029.33 1202.33,1054.77 1202.33,1054.77C1160.28,1127.75 1128.07,1197.97 1105.89,1271.15C1170.69,1207.37 1222.21,1140.33 1273.54,1078.85C1308.82,1035 1347.16,997.604 1380.5,982.299C1388.84,978.471 1395.65,982.284 1400.72,987.907C1412.8,989.795 1428.42,994.778 1434.5,1007.8C1438.49,1016.36 1438.36,1033.36 1436.67,1051.15C1437.04,1050.69 1437.41,1050.24 1437.79,1049.8C1477.04,1003.52 1530.5,1042.3 1530.5,1042.3C1457.86,1103.36 1453.75,1270.63 1423.4,1403.45C1446.14,1400.38 1469.08,1397.45 1492.18,1394.65ZM2676.29,1321.71C2662.14,1305.9 2643.5,1278.88 2643.5,1246.3C2644.76,1158.16 2867.77,800.077 2915.38,780.938C2934.32,773.327 2957.71,780.373 2957.71,780.373C2878.41,896.94 2808.18,1035.05 2746.59,1189.27C2829.47,1113.18 2906.75,1033.2 2978.34,956.753L2978.34,956.753C2998.35,929.23 3013.74,910.716 3020.5,905.799C3034.06,895.933 3061,914.799 3061,914.799C3017.23,976.173 2981.22,1037.03 2951.55,1096.48C3001.19,1069.28 3126.55,1004.54 3195.27,1004.54C3249.16,1004.54 3281.5,1108.3 3281.5,1108.3C3212.69,1045.82 3084.4,1087.74 2951.41,1137.9C2968.78,1155.21 2986.35,1189.56 2986.35,1257.73C2986.35,1346.23 2904.55,1497.08 2826.97,1497.08C2818.93,1497.08 2813.17,1487.64 2809.18,1476.63C2792.37,1458.38 2770,1428.35 2770,1397.8C2770,1332.59 2810.87,1236.18 2859.83,1145.87C2784.93,1239 2703.48,1336.85 2691.89,1336.85C2685.46,1336.85 2680.33,1330.59 2676.29,1321.71ZM1315.9,1464.26C1276.32,1471.2 1236.84,1478.73 1197.45,1486.83C1211.3,1491.94 1227.63,1495.05 1246.87,1495.05C1275.95,1495.05 1298.32,1483.59 1315.9,1464.26ZM2927.41,1147.63C2905.38,1197.04 2887.59,1245.27 2873.19,1291.79C2858.78,1338.3 2847.77,1383.1 2839.31,1425.66C2907.82,1371.4 2961.18,1205.45 2927.41,1147.63ZM1860.14,1363.8C1860.01,1363.56 1859.88,1363.32 1859.76,1363.08C1841.86,1345.21 1809.82,1309.83 1809.82,1285.72C1809.82,1271.24 1816.36,1247.53 1827.25,1218.29C1794.6,1273.62 1763.02,1322.41 1753.12,1322.41C1748.86,1322.41 1744.7,1320.18 1740.74,1316.51L1740.76,1316.89C1740.76,1316.89 1669,1289.95 1669,1247.8C1669,1218.3 1696.91,1126.87 1725.49,1065.65C1659.93,1128.57 1578.55,1251.9 1523.61,1390.95C1632.29,1378.5 1744.88,1369.18 1860.14,1363.8ZM2448.6,1280.48C2448.47,1281.08 2448.34,1281.69 2448.2,1282.3C2448.2,1282.3 2407,1241.8 2407,1186.3C2407,1109.8 2524,932.799 2572,928.299C2599.4,925.73 2612.21,939.013 2616.97,945.98C2631.55,939.038 2645.2,933.099 2651.49,931.896C2668.24,928.699 2690.5,928.299 2690.5,977.799C2690.5,1112.8 2539.53,1306.09 2475.32,1306.09C2465.3,1306.09 2456,1294.21 2448.6,1280.48ZM1393.07,1027.19C1330.03,1103.92 1280.28,1204.59 1251.08,1283.92C1293.13,1247.36 1343.39,1187.94 1398.59,1121.53C1398.56,1088.48 1397.22,1056.58 1393.07,1027.19ZM2458.28,1239.88C2516.9,1215.3 2623.45,1062.24 2645.4,976.398C2607.41,980.116 2583.19,997.557 2559.43,1015.5C2512.02,1079.45 2479.84,1157.27 2458.28,1239.88ZM1340.5,860.799C1340.5,860.799 1327,854.799 1318,854.799C1309,854.799 1297.61,832.055 1282.61,832.055C1249.61,832.055 1196.95,916.636 1196.95,954.136C1196.95,984.035 1222,1003.3 1222,1003.3C1253.16,933.694 1290.91,881.567 1340.5,860.799Z" style="fill:white;"/>
    </g>
</svg>
