<?xml version="1.0" encoding="UTF-8" standalone="no"?><!DOCTYPE svg PUBLIC "-//W3C//DTD SVG 1.1//EN" "http://www.w3.org/Graphics/SVG/1.1/DTD/svg11.dtd"><svg width="100%" height="100%" viewBox="0 0 595 477" version="1.1" xmlns="http://www.w3.org/2000/svg" xmlns:xlink="http://www.w3.org/1999/xlink" xml:space="preserve" xmlns:serif="http://www.serif.com/" style="fill-rule:evenodd;clip-rule:evenodd;stroke-linecap:round;stroke-linejoin:round;stroke-miterlimit:1.5;"><g><g><g><path d="M129.913,202.976c-4.274,0 -12.535,-7.977 -12.535,-21.652c-0,-13.674 56.571,-76.12 56.856,-80.963c0.285,-4.843 17.785,8.601 13.796,12.875c-3.988,4.273 -58.117,68.097 -58.117,89.74Z" style="fill:#e6e6e6;stroke:#e6e6e6;stroke-width:3.47px;"/><path d="M48.094,176.813c-0,33.805 64.253,42.651 72.028,55.293c3.329,5.413 0.104,10.47 -1.32,13.034c-0,-15.309 -77.356,-21.187 -77.359,-51.1c-0.002,-11.694 6.651,-17.227 6.651,-17.227Z" style="fill:#e6e6e6;stroke:#e6e6e6;stroke-width:3.47px;"/><path d="M112.776,226.819c0,-0 10.553,7.823 10.553,12.951c-0,10.541 -57.801,60.354 -87.43,60.354c-8.617,-0 -11.111,-13.39 -11.111,-21.367c0,-15.384 38.745,-41.879 38.745,-41.879c-10.199,9.223 -19.881,19.584 -27.634,34.187c34.859,-0.137 76.877,-33.156 76.877,-44.246Z" style="fill:#e6e6e6;stroke:#e6e6e6;stroke-width:3.47px;"/><path d="M184.662,109.762c-0,0 0.03,-11.145 -6.807,-11.145c-44.267,-0 -141.101,55.412 -141.101,76.259c-0,15.384 6.552,29.525 9.686,29.525c-0,-19.302 78.568,-94.645 138.222,-94.639Z" style="fill:#e6e6e6;stroke:#e6e6e6;stroke-width:3.47px;"/></g><g><path d="M188.436,152.347c-16.377,1.624 -56.005,55.94 -54.347,72.667c2.39,24.097 19.447,27.479 19.447,27.479c-3.919,-39.523 29.447,-91.016 37.444,-91.809c0.062,-3.952 0.072,-8.596 -2.544,-8.337Z" style="fill:#e6e6e6;stroke:#e6e6e6;stroke-width:3.47px;"/><path d="M186.77,153.65c0,0 5.628,5.429 12.432,4.754c3.119,-0.309 3.858,2.034 4.099,4.466c0.957,9.651 -24.615,55.718 -41.625,57.404c-5.242,0.52 -6.401,-6.808 -6.401,-6.808c-0,-0 1.047,1.9 4.449,1.562c4.344,-0.43 29.441,-37.25 27.046,-61.378Z" style="fill:#e6e6e6;stroke:#e6e6e6;stroke-width:3.47px;"/><path d="M232.358,168.597c-27.515,29.025 -53.29,77.542 -85.689,80.692c-0,0 8.99,7.489 17.17,6.678c20.2,-2.003 69.7,-75.463 69.7,-75.463l-1.181,-11.907Z" style="fill:#e6e6e6;stroke:#e6e6e6;stroke-width:3.47px;"/></g><g><path d="M281.584,137.318c-0,-0 -4.201,-4.419 -13.888,-4.419c-21.366,-0 -67.519,85.182 -67.519,99.427c0,14.244 15.684,20.098 15.684,20.098c-0,-27.755 42.587,-114.971 65.723,-115.106Z" style="fill:#e6e6e6;stroke:#e6e6e6;stroke-width:3.47px;"/><path d="M203.105,242.756c4.434,4.434 7.022,16.967 12.72,16.967c24.216,-0 86.058,-85.8 86.058,-85.8l0,-11.965c0,-0 -61.621,80.798 -98.778,80.798Z" style="fill:#e6e6e6;stroke:#e6e6e6;stroke-width:3.47px;"/><path d="M291.342,119.224c0,4.34 8.944,8.081 14.815,10.256c-5.763,0 -33.158,38.628 -32.478,47.292c-8.422,-0 11.681,-57.548 17.663,-57.548Z" style="fill:#e6e6e6;stroke:#e6e6e6;stroke-width:3.47px;"/></g><g><path d="M293.052,226.343c-0.021,-30.704 42.38,-86.978 51.28,-86.978c-0,0 -5.698,-8.176 -9.402,-8.176c-4.864,0 -53.559,43.019 -53.559,72.078c0,13.105 11.681,23.076 11.681,23.076Z" style="fill:#e6e6e6;stroke:#e6e6e6;stroke-width:3.47px;"/><path d="M341.524,139.439c0.021,30.704 -46.456,78.728 -55.356,78.728c-0,0 1.994,10.17 5.698,10.17c11.701,0 60.728,-52.498 60.728,-81.557c-0,-8.369 -11.07,-7.341 -11.07,-7.341Z" style="fill:#e6e6e6;stroke:#e6e6e6;stroke-width:3.47px;"/><path d="M335.5,134.608c0,0 -3.727,12.249 0,12.249c33.311,0 69.229,-30.482 69.229,-30.482l2.279,-11.965c-21.239,13.731 -44.945,27.875 -71.508,30.198Z" style="fill:#e6e6e6;stroke:#e6e6e6;stroke-width:3.47px;"/></g><g><path d="M407.59,101.993c0,-0 6.854,7.016 6.854,12.714c0,5.698 -63.783,122.446 -63.783,122.446c0,0 -8.353,-13.556 -8.353,-26.435c-0.194,-12.878 64.385,-99.756 65.282,-108.725Z" style="fill:#e6e6e6;stroke:#e6e6e6;stroke-width:3.47px;"/><path d="M352.417,235.557c32.716,-59.253 56.73,-73.444 89.973,-107.16c0,-0 -1.466,-9.173 -4.036,-9.173c-4.567,0 -79.716,73.145 -79.716,73.145l-6.221,43.188Z" style="fill:#e6e6e6;stroke:#e6e6e6;stroke-width:3.47px;"/><path d="M406.438,181.9c-0,6.268 15.954,18.233 15.954,18.233c-0,-22.006 24.747,-68.04 30.14,-75.781c0,0 -2.799,-3.703 -7.634,-3.703c-4.834,-0 -38.46,50.14 -38.46,61.251Z" style="fill:#e6e6e6;stroke:#e6e6e6;stroke-width:3.47px;"/><path d="M411.717,188.581c10.675,-0 48.487,-41.338 73.351,-65.938l-8.056,20.655c-0,-0 -48.068,58.259 -54.62,58.259c-6.553,0 -10.675,-12.976 -10.675,-12.976Z" style="fill:#e6e6e6;stroke:#e6e6e6;stroke-width:3.47px;"/></g><g><path d="M516.975,90.165c-12.25,0 -70.182,79.622 -70.182,95.507c-0,15.885 12.634,31.839 12.634,31.839c0,-31.839 41.025,-92.874 63.816,-121.933c1.934,-2.466 -6.268,-5.413 -6.268,-5.413Z" style="fill:#e6e6e6;stroke:#e6e6e6;stroke-width:3.47px;"/><path d="M449.465,199.4c0,0 4.265,20.96 9.962,20.96c5.698,0 79.2,-101.136 79.2,-101.136l-0,-10.541c-37.758,47.496 -69.963,83.07 -89.162,90.717Z" style="fill:#e6e6e6;stroke:#e6e6e6;stroke-width:3.47px;"/><path d="M511.188,93.034c-0,0 5.807,-4.389 10.924,-4.389c5.118,-0 12.811,39.696 12.811,39.696l-6.267,13.105c-3.432,-15.29 -12.889,-43.833 -17.468,-48.412Z" style="fill:#e6e6e6;stroke:#e6e6e6;stroke-width:3.47px;"/><path d="M592.683,30.585c-18.743,16.263 -68.244,142.782 -62.913,223.064c0,-0 -23.887,-13.361 -24.836,-27.643c-2.573,-38.752 55.516,-195.219 78.258,-196.73c4.264,-0.283 9.491,1.309 9.491,1.309Z" style="fill:#e6e6e6;stroke:#e6e6e6;stroke-width:3.47px;"/></g><g><path d="M2.158,319.533c0,-0 4.65,9.106 16.615,9.106c28.489,-0 65.718,-29.619 69.707,-29.619c3.988,0 6.743,4.848 6.743,4.848c-9.972,0 -59.733,48.712 -67.994,48.712c-13.39,-0 -28.205,-33.047 -25.071,-33.047Z" style="fill:#e6e6e6;stroke:#e6e6e6;stroke-width:3.47px;"/><path d="M87.154,298.186c0,0 13.256,3.21 13.256,11.472c-0.387,7.005 -34.99,95.715 -34.986,124.085c0,-0 -16.808,-6.553 -16.808,-18.233c-0,-21.251 38.538,-105.852 38.538,-117.324Z" style="fill:#e6e6e6;stroke:#e6e6e6;stroke-width:3.47px;"/><path d="M53.246,425.719c0,0 9.614,10.873 13.888,10.873c-0,-7.454 91.734,-149.888 91.734,-149.888c0,-0 2.349,-8.866 -1.817,-8.866c-5.408,2.662 -101.883,137.957 -101.883,137.957l-1.922,9.924Z" style="fill:#e6e6e6;stroke:#e6e6e6;stroke-width:3.47px;"/><path d="M171.688,271.356c0,7.801 -49.965,151.173 -49.965,200.097c0,0 -13.769,-7.692 -13.769,-17.093c-0,-24.216 49.905,-177.168 49.905,-177.168c-0,0 4.428,-5.836 13.829,-5.836Z" style="fill:#e6e6e6;stroke:#e6e6e6;stroke-width:3.47px;"/><path d="M117.065,463.197c-0,-0 7.104,11.675 12.232,11.675c0.093,-44.635 79.712,-198.673 142.388,-198.673c-0,-0 -9.916,-19.974 -23.476,-19.974c-34.193,0.012 -131.142,155.399 -131.144,206.972Z" style="fill:#e6e6e6;stroke:#e6e6e6;stroke-width:3.47px;"/></g><g><path d="M244.353,299.93c-16.879,1.521 -64.321,75.115 -62.8,91.994c1.521,16.879 20.39,24.064 20.39,24.064c-3.624,-40.23 42.668,-107.41 48.343,-107.921c-0.498,-5.533 -2.884,-8.424 -5.933,-8.137Z" style="fill:#e6e6e6;stroke:#e6e6e6;stroke-width:3.47px;"/><path d="M189.279,404.129c-0,0 7.218,14.906 12.893,14.395c5.994,-0.54 47.596,-74.941 47.596,-74.941l-0.716,-7.945c-19.404,23.673 -39.141,46.807 -59.773,68.491Z" style="fill:#e6e6e6;stroke:#e6e6e6;stroke-width:3.47px;"/><path d="M239.22,309.064c3.122,-0.282 11.227,10.054 11.892,17.431c0.665,7.377 4.463,-1.26 4.463,-1.26c0,-0 -3.259,-26.022 -11.204,-25.306c-3.121,0.281 -8.272,9.416 -5.151,9.135Z" style="fill:#e6e6e6;stroke:#e6e6e6;stroke-width:3.47px;"/><path d="M265.392,316.325c-6.571,25.885 -11.273,51.132 -9.232,74.171c-0,-0 -18.8,-3.666 -19.64,-12.983c-1.453,-16.127 16.191,-55.834 18.092,-58.111c1.901,-2.277 10.78,-3.077 10.78,-3.077Z" style="fill:#e6e6e6;stroke:#e6e6e6;stroke-width:3.47px;"/><path d="M241.398,384.483c0,-0 9.507,8.257 12.247,8.257c7.299,0 65.146,-100.637 65.146,-114.756c-0,-3.989 -0.353,-4.328 -6.906,-4.328c0,15.687 -63.709,110.827 -70.487,110.827Z" style="fill:#e6e6e6;stroke:#e6e6e6;stroke-width:3.47px;"/></g><g><path d="M312.139,272.78c0,-3.134 23.612,-8.437 23.605,-0.989c0.192,16.163 -56.427,122.561 -59.083,159.746c-0,-0 -5.261,-9.777 -5.261,-14.887c-0,-13.657 40.739,-110.823 40.739,-143.87Z" style="fill:#e6e6e6;stroke:#e6e6e6;stroke-width:3.47px;"/><path d="M272.418,421.76c0,2.012 2.266,13.297 4.922,13.297c0,-18.805 112.004,-207.29 176.105,-207.29c4.843,0 -15.196,-13.39 -25.925,-13.39c-40.928,0 -155.102,171.298 -155.102,207.383Z" style="fill:#e6e6e6;stroke:#e6e6e6;stroke-width:3.47px;"/></g><g><path d="M418.403,271.64c-20.856,0 -74.926,68.944 -74.926,94.584c0,23.646 18.847,32.889 18.847,32.889c-0.038,-51.28 29.751,-98.987 60.638,-120.635c-0.312,-2.372 -4.559,-6.838 -4.559,-6.838Z" style="fill:#e6e6e6;stroke:#e6e6e6;stroke-width:3.47px;"/><path d="M436.64,278.849c0,30.291 -31.525,61.383 -51.931,61.383c-5.804,-0 -7.9,-8.48 -7.9,-8.48c18.914,-0.112 43.816,-28.333 43.816,-57.507c-0,0 16.015,1.092 16.015,4.604Z" style="fill:#e6e6e6;stroke:#e6e6e6;stroke-width:3.47px;"/><path d="M365.963,403.984c38.714,-0 128.221,-102.715 128.221,-143.739c0,-15.384 -22.791,-29.059 -22.791,-29.059c0.136,63.723 -74.733,161.599 -117.031,161.501c-0,-0 5.986,11.297 11.601,11.297Z" style="fill:#e6e6e6;stroke:#e6e6e6;stroke-width:3.47px;"/></g><g><path d="M284.782,25.78c-0,0 -66.039,101.415 -66.026,117.721c0.001,1.578 -14.178,-6.37 -14.178,-17.153c-0,-10.784 69.967,-103.974 72.597,-103.974c2.63,-0 7.607,3.406 7.607,3.406Z" style="fill:#e6e6e6;"/><path d="M196.552,50.122c-0,-0 128.869,-34.067 161.771,-34.847c14.864,-0.352 17.541,2.01 17.541,2.01c-0,0 -11.166,-7.456 -12.417,-8.826c-3.653,-4.002 -4.216,-8.558 -8.478,-8.457c-41.023,0.972 -152.869,39.879 -156.055,42.113c-3.187,2.235 -2.362,8.007 -2.362,8.007Z" style="fill:#e6e6e6;"/></g><g><path d="M327.109,14.169c-0,0 -53.183,82.037 -53.17,98.344c0.001,1.578 -11.509,-2.701 -11.509,-13.485c-0,-10.783 55.737,-87.489 58.367,-87.489c2.63,0 6.312,2.63 6.312,2.63Z" style="fill:#e6e6e6;"/><path d="M323.596,50.978c-6.275,52.991 17.515,64.477 17.515,64.477c0,0 -18.718,1.744 -26.342,-5.88c-6.358,-6.358 -7.718,-26.106 0.325,-59.037c0.624,-2.555 8.502,0.44 8.502,0.44Z" style="fill:#e6e6e6;"/><path d="M274.01,111.378c13.93,-19.642 39.441,-59.011 48.383,-59.011c-0,-0 -0.997,-3.755 -3.355,-3.755c-11.284,-0.024 -46.658,44.575 -45.918,47.352l0.89,15.414Z" style="fill:#e6e6e6;"/></g><g><path d="M351.62,104.383c0,-42.064 29.87,-72.775 29.87,-72.775c-0,-0 -2.386,-3.163 -8.115,-3.163c-10.449,0 -39.348,41.847 -39.348,53.729c-0,8.961 9.217,22.209 17.593,22.209Z" style="fill:#e6e6e6;"/><path d="M399.81,23.775c0,0 17.308,10.635 16.825,18.811c-0.952,16.113 -41.044,66.596 -62.851,65.308c0,-0 -10.01,-8.273 -7.223,-8.108c17.254,1.019 66.361,-53.256 53.249,-76.011Z" style="fill:#e6e6e6;"/><path d="M377.419,30.884c0,0 6.067,-2.439 9.774,-2.439c3.708,0 4.719,5.393 4.719,12.134c-0,6.74 -13.819,31.344 -25.278,31.344c-7.752,0 -9.774,-5.509 -9.774,-5.509c7.51,0 30.333,-25.756 20.559,-35.53Z" style="fill:#e6e6e6;"/></g><path d="M156.415,465.479c19.786,3.238 160.119,-58.341 189.462,-53.539c5.409,0.885 0.973,7.161 4.973,13.345c5.333,8.244 18.289,16.799 18.289,16.799c-36.254,-24.033 -191.786,32.306 -211.029,32.306c-5.73,0 -3.895,-5.878 -1.695,-8.911Z" style="fill:#e6e6e6;stroke:#e6e6e6;stroke-width:3.47px;"/><path d="M267.767,249.968c0,-0 36.451,-14.836 56.082,-14.836c7.267,0 11.925,11.965 11.925,11.965c-28.484,0 -66.3,7.691 -66.3,7.691l-1.707,-4.82Z" style="fill:#e6e6e6;stroke:#e6e6e6;stroke-width:3.47px;"/></g></g></svg>