<?xml version="1.0" encoding="UTF-8" standalone="no"?><!DOCTYPE svg PUBLIC "-//W3C//DTD SVG 1.1//EN" "http://www.w3.org/Graphics/SVG/1.1/DTD/svg11.dtd"><svg width="100%" height="100%" viewBox="0 0 915 312" version="1.1" xmlns="http://www.w3.org/2000/svg" xmlns:xlink="http://www.w3.org/1999/xlink" xml:space="preserve" xmlns:serif="http://www.serif.com/" style="fill-rule:evenodd;clip-rule:evenodd;stroke-linecap:round;stroke-linejoin:round;stroke-miterlimit:1.5;"><g><g><g><g><path d="M97.31,220.259c-3.904,0 -11.452,-7.287 -11.452,-19.78c0,-12.493 51.682,-69.541 51.943,-73.966c0.26,-4.424 16.247,7.858 12.603,11.762c-3.643,3.904 -53.094,62.212 -53.094,81.984Z" style="fill:#ebebeb;stroke:#ebebeb;stroke-width:2.54px;"/><path d="M22.563,196.357c-0,30.884 58.7,38.965 65.803,50.515c3.041,4.945 0.095,9.564 -1.206,11.907c-0,-13.986 -70.67,-19.356 -70.673,-46.684c-0.002,-10.683 6.076,-15.738 6.076,-15.738Z" style="fill:#ebebeb;stroke:#ebebeb;stroke-width:2.54px;"/><path d="M81.655,242.041c-0,-0 9.64,7.147 9.64,11.832c0,9.63 -52.805,55.137 -79.873,55.137c-7.872,0 -10.15,-12.232 -10.15,-19.52c-0,-14.054 35.396,-38.259 35.396,-38.259c-9.318,8.426 -18.163,17.891 -25.246,31.232c31.846,-0.125 70.233,-30.291 70.233,-40.422Z" style="fill:#ebebeb;stroke:#ebebeb;stroke-width:2.54px;"/><path d="M147.327,135.102c0,0 0.028,-10.182 -6.219,-10.182c-40.44,-0 -128.905,50.623 -128.905,69.668c-0,14.054 5.986,26.973 8.849,26.973c-0,-17.633 71.777,-86.465 126.275,-86.459Z" style="fill:#ebebeb;stroke:#ebebeb;stroke-width:2.54px;"/></g><g><path d="M149.935,171.206c-14.962,1.484 -51.165,51.105 -49.649,66.386c2.183,22.015 17.766,25.105 17.766,25.105c-3.58,-36.108 26.901,-83.15 34.207,-83.875c0.056,-3.61 0.066,-7.853 -2.324,-7.616Z" style="fill:#ebebeb;stroke:#ebebeb;stroke-width:2.54px;"/><path d="M148.413,172.397c0,-0 5.142,4.959 11.358,4.342c2.849,-0.282 3.524,1.859 3.744,4.081c0.874,8.817 -22.488,50.901 -38.027,52.442c-4.789,0.475 -5.848,-6.22 -5.848,-6.22c-0,0 0.957,1.736 4.065,1.428c3.968,-0.394 26.896,-34.031 24.708,-56.073Z" style="fill:#ebebeb;stroke:#ebebeb;stroke-width:2.54px;"/><path d="M190.061,186.051c-25.137,26.517 -48.684,70.84 -78.283,73.718c-0,0 8.213,6.842 15.686,6.101c18.454,-1.83 63.676,-68.941 63.676,-68.941l-1.079,-10.878Z" style="fill:#ebebeb;stroke:#ebebeb;stroke-width:2.54px;"/></g><g><path d="M235.032,157.476c-0,-0 -3.838,-4.037 -12.687,-4.037c-19.52,-0 -61.683,77.819 -61.683,90.833c-0,13.013 14.327,18.361 14.327,18.361c0,-25.356 38.906,-105.033 60.043,-105.157Z" style="fill:#ebebeb;stroke:#ebebeb;stroke-width:2.54px;"/><path d="M163.336,253.801c4.051,4.051 6.415,15.5 11.621,15.5c22.122,0 78.62,-78.384 78.62,-78.384l-0,-10.931c-0,-0 -56.296,73.815 -90.241,73.815Z" style="fill:#ebebeb;stroke:#ebebeb;stroke-width:2.54px;"/><path d="M243.947,140.946c-0,3.964 8.171,7.382 13.534,9.37c-5.265,-0 -30.292,35.288 -29.671,43.204c-7.694,-0 10.671,-52.574 16.137,-52.574Z" style="fill:#ebebeb;stroke:#ebebeb;stroke-width:2.54px;"/></g><g><path d="M245.508,238.806c-0.019,-28.05 38.718,-79.46 46.849,-79.46c-0,0 -5.206,-7.469 -8.589,-7.469c-4.444,0 -48.93,39.3 -48.93,65.848c-0,11.972 10.67,21.081 10.67,21.081Z" style="fill:#ebebeb;stroke:#ebebeb;stroke-width:2.54px;"/><path d="M289.792,159.414c0.019,28.05 -42.441,71.923 -50.572,71.923c-0,0 1.822,9.291 5.205,9.291c10.69,0 55.479,-47.961 55.479,-74.508c0,-7.646 -10.112,-6.706 -10.112,-6.706Z" style="fill:#ebebeb;stroke:#ebebeb;stroke-width:2.54px;"/><path d="M284.288,155c0,0 -3.405,11.191 0,11.191c30.432,-0 63.245,-27.848 63.245,-27.848l2.082,-10.931c-19.403,12.545 -41.06,25.466 -65.327,27.588Z" style="fill:#ebebeb;stroke:#ebebeb;stroke-width:2.54px;"/></g><g><path d="M350.148,125.204c-0,-0 6.261,6.41 6.261,11.615c-0,5.206 -58.27,111.863 -58.27,111.863c-0,0 -7.631,-12.384 -7.631,-24.15c-0.177,-11.765 58.82,-91.134 59.64,-99.328Z" style="fill:#ebebeb;stroke:#ebebeb;stroke-width:2.54px;"/><path d="M299.742,247.224c29.89,-54.132 51.828,-67.096 82.197,-97.898c0,-0 -1.339,-8.38 -3.687,-8.38c-4.172,-0 -72.826,66.823 -72.826,66.823l-5.684,39.455Z" style="fill:#ebebeb;stroke:#ebebeb;stroke-width:2.54px;"/><path d="M349.095,198.205c-0,5.725 14.575,16.657 14.575,16.657c-0,-20.104 22.608,-62.159 27.535,-69.231c0,-0 -2.558,-3.384 -6.974,-3.384c-4.417,0 -35.136,45.807 -35.136,55.958Z" style="fill:#ebebeb;stroke:#ebebeb;stroke-width:2.54px;"/><path d="M353.918,204.308c9.752,-0 44.295,-37.765 67.01,-60.239l-7.359,18.87c-0,-0 -43.913,53.224 -49.899,53.224c-5.987,0 -9.752,-11.855 -9.752,-11.855Z" style="fill:#ebebeb;stroke:#ebebeb;stroke-width:2.54px;"/></g><g><path d="M450.078,114.399c-11.191,-0 -64.116,72.739 -64.116,87.252c-0,14.512 11.542,29.087 11.542,29.087c0,-29.087 37.479,-84.847 58.3,-111.394c1.767,-2.253 -5.726,-4.945 -5.726,-4.945Z" style="fill:#ebebeb;stroke:#ebebeb;stroke-width:2.54px;"/><path d="M388.403,214.192c0,0 3.896,19.149 9.101,19.149c5.206,-0 72.354,-92.395 72.354,-92.395l0,-9.63c-34.494,43.391 -63.916,75.89 -81.455,82.876Z" style="fill:#ebebeb;stroke:#ebebeb;stroke-width:2.54px;"/><path d="M444.791,117.02c0,-0 5.305,-4.01 9.98,-4.01c4.676,-0 11.704,36.264 11.704,36.264l-5.726,11.973c-3.135,-13.968 -11.775,-40.044 -15.958,-44.227Z" style="fill:#ebebeb;stroke:#ebebeb;stroke-width:2.54px;"/><path d="M519.243,59.968c-17.124,14.858 -62.346,130.442 -57.476,203.784c0,-0 -21.823,-12.206 -22.689,-25.254c-2.351,-35.402 50.718,-178.346 71.493,-179.726c3.896,-0.258 8.672,1.196 8.672,1.196Z" style="fill:#ebebeb;stroke:#ebebeb;stroke-width:2.54px;"/></g></g><g><g><path d="M549.02,76.277c0,-0 11.863,2.872 11.863,10.266c-0.346,6.27 -31.314,85.662 -31.31,111.051c-0,0 -15.043,-5.864 -15.043,-16.317c-0,-19.019 34.49,-94.734 34.49,-105Z" style="fill:#ebebeb;stroke:#ebebeb;stroke-width:2.54px;"/><path d="M518.674,190.414c0,-0 8.604,9.73 12.429,9.73c-0,-6.671 82.098,-134.143 82.098,-134.143c0,-0 2.103,-7.935 -1.626,-7.935c-4.84,2.383 -91.181,123.466 -91.181,123.466l-1.72,8.882Z" style="fill:#ebebeb;stroke:#ebebeb;stroke-width:2.54px;"/><path d="M624.675,52.265c-0,6.981 -44.717,135.293 -44.717,179.078c0,0 -12.323,-6.884 -12.323,-15.297c0,-21.672 44.663,-158.558 44.663,-158.558c-0,0 3.963,-5.223 12.377,-5.223Z" style="fill:#ebebeb;stroke:#ebebeb;stroke-width:2.54px;"/><path d="M575.789,223.954c-0,0 6.358,10.449 10.947,10.449c0.084,-39.946 71.339,-177.804 127.431,-177.804c0,-0 -8.874,-17.876 -21.01,-17.876c-30.601,0.011 -117.366,139.076 -117.368,185.231Z" style="fill:#ebebeb;stroke:#ebebeb;stroke-width:2.54px;"/></g><g><path d="M689.707,77.838c-15.106,1.361 -57.565,67.224 -56.204,82.33c1.361,15.106 18.249,21.537 18.249,21.537c-3.244,-36.005 38.186,-96.128 43.265,-96.586c-0.446,-4.951 -2.582,-7.538 -5.31,-7.281Z" style="fill:#ebebeb;stroke:#ebebeb;stroke-width:2.54px;"/><path d="M640.418,171.092c-0,-0 6.459,13.34 11.538,12.882c5.364,-0.483 42.597,-67.069 42.597,-67.069l-0.641,-7.11c-17.366,21.186 -35.029,41.89 -53.494,61.297Z" style="fill:#ebebeb;stroke:#ebebeb;stroke-width:2.54px;"/><path d="M685.113,86.012c2.793,-0.252 10.048,8.998 10.643,15.6c0.594,6.602 3.994,-1.128 3.994,-1.128c-0,0 -2.917,-23.288 -10.027,-22.648c-2.793,0.252 -7.403,8.427 -4.61,8.176Z" style="fill:#ebebeb;stroke:#ebebeb;stroke-width:2.54px;"/><path d="M708.535,92.51c-5.88,23.166 -10.088,45.761 -8.262,66.38c0,0 -16.825,-3.281 -17.576,-11.619c-1.301,-14.433 14.49,-49.969 16.191,-52.007c1.701,-2.038 9.647,-2.754 9.647,-2.754Z" style="fill:#ebebeb;stroke:#ebebeb;stroke-width:2.54px;"/><path d="M687.062,153.509c0,-0 8.508,7.39 10.961,7.39c6.532,-0 58.302,-90.066 58.302,-102.703c0,-3.569 -0.316,-3.873 -6.18,-3.873c0,14.04 -57.017,99.186 -63.083,99.186Z" style="fill:#ebebeb;stroke:#ebebeb;stroke-width:2.54px;"/></g><g><path d="M750.372,53.539c0,-2.804 21.132,-7.55 21.126,-0.885c0.172,14.466 -50.5,109.687 -52.877,142.966c-0,0 -4.709,-8.75 -4.709,-13.323c0,-12.223 36.46,-99.182 36.46,-128.758Z" style="fill:#ebebeb;stroke:#ebebeb;stroke-width:2.54px;"/><path d="M714.824,186.87c-0,1.801 2.028,11.901 4.405,11.901c-0,-16.83 100.239,-185.516 157.606,-185.516c4.334,-0 -13.6,-11.983 -23.202,-11.983c-36.628,-0 -138.809,153.304 -138.809,185.598Z" style="fill:#ebebeb;stroke:#ebebeb;stroke-width:2.54px;"/></g><g><path d="M845.474,52.519c-18.665,0 -67.055,61.702 -67.055,84.649c-0,21.162 16.867,29.434 16.867,29.434c-0.034,-45.894 26.625,-88.589 54.268,-107.963c-0.279,-2.123 -4.08,-6.12 -4.08,-6.12Z" style="fill:#ebebeb;stroke:#ebebeb;stroke-width:2.54px;"/><path d="M861.795,58.971c0,27.109 -28.213,54.935 -46.476,54.935c-5.194,-0 -7.07,-7.589 -7.07,-7.589c16.928,-0.1 39.213,-25.357 39.213,-51.466c0,-0 14.333,0.977 14.333,4.12Z" style="fill:#ebebeb;stroke:#ebebeb;stroke-width:2.54px;"/><path d="M798.542,170.961c34.648,0 114.753,-91.925 114.753,-128.64c-0,-13.768 -20.397,-26.007 -20.397,-26.007c0.122,57.03 -66.883,144.625 -104.738,144.537c-0,-0 5.357,10.11 10.382,10.11Z" style="fill:#ebebeb;stroke:#ebebeb;stroke-width:2.54px;"/></g></g><g><g><path d="M232.661,67.591c-0,0 -55.116,84.641 -55.105,98.25c0.001,1.317 -11.833,-5.317 -11.833,-14.317c-0,-8.999 58.394,-86.776 60.589,-86.776c2.195,-0 6.349,2.843 6.349,2.843Z" style="fill:#ebebeb;"/><path d="M159.024,87.906c0,0 107.554,-28.431 135.014,-29.082c12.406,-0.294 14.64,1.677 14.64,1.677c-0,0 -9.319,-6.223 -10.363,-7.366c-3.049,-3.34 -3.519,-7.143 -7.077,-7.059c-34.237,0.812 -127.583,33.283 -130.242,35.148c-2.66,1.866 -1.972,6.682 -1.972,6.682Z" style="fill:#ebebeb;"/></g><g><path d="M267.987,57.901c-0,-0 -44.386,68.468 -44.375,82.077c0.001,1.317 -9.606,-2.254 -9.606,-11.254c-0,-9 46.518,-73.018 48.713,-73.018c2.195,-0 5.268,2.195 5.268,2.195Z" style="fill:#ebebeb;"/><path d="M265.055,88.621c-5.237,44.226 14.618,53.812 14.618,53.812c0,0 -15.622,1.456 -21.985,-4.907c-5.307,-5.306 -6.441,-21.788 0.272,-49.272c0.52,-2.133 7.095,0.367 7.095,0.367Z" style="fill:#ebebeb;"/><path d="M223.671,139.031c11.626,-16.393 32.917,-49.251 40.38,-49.251c-0,0 -0.832,-3.133 -2.8,-3.133c-9.417,-0.02 -38.941,37.202 -38.323,39.519l0.743,12.865Z" style="fill:#ebebeb;"/></g><g><path d="M288.444,133.193c-0,-35.107 24.929,-60.738 24.929,-60.738c0,-0 -1.991,-2.64 -6.773,-2.64c-8.72,0 -32.839,34.925 -32.839,44.842c-0,7.479 7.692,18.536 14.683,18.536Z" style="fill:#ebebeb;"/><path d="M328.663,65.918c0,-0 14.445,8.875 14.042,15.699c-0.794,13.448 -34.255,55.581 -52.455,54.506c-0,-0 -8.354,-6.905 -6.028,-6.767c14.4,0.851 55.384,-44.447 44.441,-63.438Z" style="fill:#ebebeb;"/><path d="M309.976,71.851c-0,-0 5.063,-2.036 8.157,-2.036c3.094,0 3.938,4.501 3.938,10.127c0,5.626 -11.533,26.16 -21.097,26.16c-6.47,0 -8.157,-4.598 -8.157,-4.598c6.268,0 25.316,-21.496 17.159,-29.653Z" style="fill:#ebebeb;"/></g></g><path d="M89.075,303.256c14.681,-15.669 646.313,-131.949 672.827,-114.937c4.514,-0.031 0.812,5.838 4.15,10.43c4.451,6.121 15.264,11.418 15.264,11.418c-32.216,-31.531 -676.663,81.444 -690.826,100.286c-4.783,0.815 -3.251,-4.352 -1.415,-7.197Z" style="fill:#ebebeb;stroke:#ebebeb;stroke-width:2.54px;"/><path d="M226.3,253.972c-0,0 32.609,-16.757 48.993,-16.757c6.065,0 9.952,9.987 9.952,9.987c-23.772,-0 -57.521,10.794 -57.521,10.794l-1.424,-4.024Z" style="fill:#ebebeb;stroke:#ebebeb;stroke-width:2.54px;"/></g></g></svg>