<?xml version="1.0" encoding="UTF-8" standalone="no"?>
<!DOCTYPE svg PUBLIC "-//W3C//DTD SVG 1.1//EN" "http://www.w3.org/Graphics/SVG/1.1/DTD/svg11.dtd">
<svg width="100%" height="100%" viewBox="0 0 2669 889" version="1.1" xmlns="http://www.w3.org/2000/svg" xmlns:xlink="http://www.w3.org/1999/xlink" xml:space="preserve" xmlns:serif="http://www.serif.com/" style="fill-rule:evenodd;clip-rule:evenodd;stroke-linejoin:round;stroke-miterlimit:2;">
    <g transform="matrix(1,0,0,1,-424.763,-763.876)">
        <path d="M587.291,1119.07C589.7,1098.36 594.823,1076.06 605.134,1058.47C659.566,965.647 1126.03,744.494 1268.89,800.741C1274.91,803.708 1279.78,808.1 1283.7,813.496L1283.7,813.496C1283.7,813.496 1298.87,828.911 1298.87,873.058C1298.87,873.27 1298.86,873.49 1298.83,873.72C1298.85,874.344 1298.86,874.963 1298.87,875.581L1298.43,875.631C1289.95,904.074 1160.3,1022.7 1160.12,1154.34C1160.12,1154.34 1094.53,1107.67 1094.53,1037.03C1094.53,999.482 1147.99,938.684 1198.08,889.956C950.937,932.669 765.381,1022.43 627.296,1142.6C742.314,1186.32 989.921,1155.31 1033.99,1194.7C1045.93,1203.65 1050.41,1222.23 1051.46,1241.45C1056.39,1251.61 1061.74,1269.99 1061.74,1301.91C1061.74,1420.48 700.995,1652.56 516.84,1652.56C472.076,1652.56 450.015,1625.04 439.152,1598.71C430.617,1591.26 424.763,1582.67 424.763,1573.1C424.858,1478.78 657.494,1250.93 680.814,1280.47C697.06,1280.47 725.608,1272.71 725.608,1272.71C652.319,1349.4 565.742,1459.66 523.219,1569.79C667.678,1543.02 921.78,1384.86 1013.62,1275.81C906.36,1213.1 714.861,1266.13 608.734,1214.93C569.332,1195.93 587.291,1119.07 587.291,1119.07L587.291,1119.07ZM1121.64,1554.65C1109.53,1542.68 1072.4,1500.99 1072.4,1439.76C1072.4,1366.6 1366.71,832.791 1491.58,768.73C1507.65,760.487 1536.35,765.239 1536.35,765.239C1438.13,895.221 1347.78,1045.04 1268.07,1210.99C1353.21,1107.82 1447.11,1009.03 1486.11,1009.03C1496.51,1009.03 1504.33,1012.07 1510.03,1015.83C1514.01,1012.01 1516.94,1009.9 1518.59,1009.8C1549.6,1007.84 1565.59,1025.04 1565.59,1025.04C1489.22,1158.75 1443.5,1256.38 1417.5,1330.77C1499.32,1263.3 1584.06,1165.5 1688.18,1051.69C1717.43,1016.87 1741.9,993.248 1751.6,993.248C1754.24,993.248 1756.81,993.323 1759.31,993.462L1759.16,993.248C1759.16,993.248 1815.92,985.68 1839.89,1009.64C1863.85,1033.61 1759.16,1281.61 1644.17,1281.61C1635.84,1303.83 1628.68,1326.13 1623.2,1348C1724.61,1308.11 1846.36,1167.11 1977.03,1041.1C2016.1,992.121 2050.4,956.689 2062.41,956.689C2080.82,956.689 2093.62,963.091 2101.43,968.871C2118.6,970.45 2137.62,975.039 2149.3,986.605C2174.79,1011.84 2070.46,1253.95 1948.15,1253.95C1945.48,1253.95 1943.02,1253.9 1940.76,1253.79C1927.25,1285.26 1915.67,1317.12 1907.39,1348.04C2023.58,1300.41 2185.47,1123.75 2314.41,979.15C2333.1,943.27 2345.81,915.153 2345.81,902.483C2345.81,902.483 2400.05,927.658 2400.05,956.689C2400.05,986.789 2281.66,1180.62 2246.08,1325.64C2357.45,1264.19 2523.66,953.592 2523.66,816.661C2523.66,816.661 2601.86,857.447 2601.86,916.725C2601.86,1034.03 2325.63,1406.96 2243.64,1406.96C2239.95,1403.27 2236.67,1399.37 2233.75,1395.37C2221.42,1387.19 2164.18,1346.34 2164.18,1293.44C2164.18,1269.06 2183.71,1223.79 2209.97,1172.23C2123.34,1280.03 2013.91,1406.87 1952.37,1442.34C2140.7,1431.64 2319.57,1433.52 2453.89,1456.69C2520.6,1468.19 2519.67,1527.53 2530.03,1579.83C2303.77,1421.93 1477.79,1474.49 893.846,1651.56C893.846,1651.56 895.191,1637.56 918.965,1618.7C940.534,1601.59 1014.86,1578.57 1121.64,1554.65ZM1439.47,1107.51C1350.6,1197.99 1233.9,1342.43 1131.35,1552.49C1325.78,1509.62 1622.04,1464.36 1904.16,1445.34C1900.54,1442.97 1897.09,1440.05 1893.82,1436.74C1893.81,1437.57 1893.81,1438.38 1893.81,1439.19C1893.81,1439.19 1821.76,1400.03 1821.76,1309.05C1821.76,1296.15 1827.67,1277.54 1837.66,1255.54C1754.71,1349.51 1663.33,1446.07 1638.08,1446.07C1626.77,1446.07 1616.74,1439.84 1608.12,1430.72C1592.9,1423.82 1532.83,1391.91 1531.97,1317.55C1489.88,1373.26 1443.52,1428.49 1388.86,1480.79L1387.3,1482.27C1387.3,1482.27 1312.72,1423.36 1312.72,1371.65C1312.72,1312.87 1381.21,1193.14 1439.47,1107.51ZM2565.93,1402.38C2565.9,1403.91 2565.88,1405.44 2565.87,1406.96C2565.87,1406.96 2491.27,1355.25 2491.27,1286.9C2491.27,1218.54 2690.22,893.099 2772.64,893.099C2779.46,893.099 2788.6,898.315 2796.98,904.454C2800.61,903.386 2804.24,902.76 2807.76,902.76C2854.97,902.76 2845.71,991.074 2837.44,1038.08C2851.59,1017.44 2863.7,1003.8 2870.95,1000.82C2889.29,993.26 2916.93,1004.95 2916.93,1004.95C2854.59,1120.25 2829.39,1237.89 2823.44,1361.74C2937.12,1306.72 3074.36,1121.01 3042.49,1039.92C3042.49,1039.92 3093.11,1063.88 3093.11,1125.69C3093.11,1231.64 2907.3,1440.44 2844.78,1440.44C2827.94,1440.44 2807.48,1422.11 2792.18,1405.2C2765.26,1385.68 2729.85,1354.22 2729.85,1323.72C2729.85,1295.76 2735.96,1263.85 2745.69,1231.24C2684,1312.27 2603.8,1410.36 2577.04,1410.36C2573.48,1410.36 2569.71,1407.35 2565.93,1402.38ZM2781.5,956.328C2710.32,1027.39 2625.91,1162.62 2587.2,1286.4C2650.27,1247.34 2724.18,1171.41 2788.99,1093.99C2789.28,1049.53 2792.97,989.487 2781.5,956.328ZM1766.02,1053.05C1733.97,1098.9 1690.8,1170.61 1658.24,1246.63C1706.57,1228.75 1756.33,1125.09 1766.02,1053.05ZM2072.38,1023.95C2039.37,1069.11 1993.46,1141.3 1956.46,1219.12C2010.81,1208.57 2065.56,1098.2 2072.38,1023.95Z" style="fill:white;"/>
    </g>
</svg>
