<?xml version="1.0" encoding="UTF-8" standalone="no"?>
<!DOCTYPE svg PUBLIC "-//W3C//DTD SVG 1.1//EN" "http://www.w3.org/Graphics/SVG/1.1/DTD/svg11.dtd">
<svg width="100%" height="100%" viewBox="0 0 1419 538" version="1.1" xmlns="http://www.w3.org/2000/svg" xmlns:xlink="http://www.w3.org/1999/xlink" xml:space="preserve" xmlns:serif="http://www.serif.com/" style="fill-rule:evenodd;clip-rule:evenodd;stroke-linejoin:round;stroke-miterlimit:2;">
    <g transform="matrix(1,0,0,1,-1020.36,-1018.38)">
        <path d="M1030.45,1377.1C1025.14,1366.45 1020.36,1350.66 1020.36,1328.34C1020.36,1241.75 1294.5,1092.64 1442.49,1092.64C1446.49,1092.64 1449.81,1094.45 1452.52,1097.06C1461.96,1101.21 1474.28,1109.79 1474.28,1119.88C1409.92,1175.84 1349.98,1276.3 1325.53,1348.86C1325.53,1348.86 1294.88,1331.59 1294.88,1292.31C1294.88,1258.12 1370.79,1168.22 1414.14,1122.27C1276.42,1153.3 1067.31,1296.39 1046.25,1382.31C1087.52,1440.75 1283.52,1380.23 1342.01,1400.96C1363.35,1408.52 1366.33,1424.77 1364.86,1437.52C1369.07,1443.65 1372.76,1453.45 1372.76,1468.94C1372.76,1505.07 1287.29,1555.65 1195.99,1555.65C1122.32,1555.65 1123.46,1493.08 1123.46,1493.08C1184.67,1559.28 1315.04,1491.72 1346.03,1444.77C1288.73,1426.86 1079.72,1472.69 1030.1,1420.96C1022.76,1413.31 1026,1393.51 1030.45,1377.1ZM1947.93,1209.92C1985.23,1132.03 2032.05,1052.76 2071.14,1022.21C2079.66,1015.55 2105.64,1023.72 2105.64,1023.72C2032.53,1097.76 1950.55,1310.76 1936.82,1429.43C2026.4,1423.09 2101.47,1423.21 2138.87,1433.8C2173.77,1443.67 2181.3,1495.89 2181.3,1495.89C2036.65,1450.16 1621.14,1487.45 1356.43,1555.65C1356.43,1555.65 1355,1533.37 1371.82,1526.15C1399.68,1514.19 1452.68,1500.43 1518.64,1487C1507.16,1476.14 1493.78,1458.41 1493.78,1434.81C1493.78,1420.61 1503.31,1388.12 1517.99,1349.23C1479.49,1399.23 1433.66,1455.93 1423.45,1456.33L1423.34,1456.33L1423.24,1456.33C1420.46,1456.29 1417.92,1454.93 1415.63,1452.65C1402.11,1445.5 1375.55,1428.03 1375.55,1401.16C1375.55,1374.81 1404.57,1274.78 1457.8,1212.72C1472.2,1195.93 1505.01,1207.62 1505.01,1207.62C1467.53,1262.35 1444.38,1328.9 1432.51,1387.9C1479.08,1356.52 1534.93,1276.84 1572.48,1226.33C1591.33,1189.72 1610.84,1157.63 1627.63,1139.24C1640.18,1125.48 1663.42,1139.35 1663.42,1139.35C1623.69,1209.02 1593.57,1278.9 1571.27,1348.95C1615.74,1277.86 1679.48,1187.14 1715.22,1187.14C1720.93,1187.14 1725.37,1190.95 1728.59,1195.38C1743.85,1180.68 1770.47,1192.28 1770.47,1192.28C1734.2,1245.22 1715.75,1296.36 1706.35,1345.73C1745.04,1320.78 1791.69,1263.37 1827.85,1216.97C1839.8,1199.75 1852.93,1183.34 1866.62,1168.31C1868.52,1165.5 1871.19,1162.38 1874.86,1159.51L1875,1159.37C1875.7,1158.65 1876.51,1158.09 1877.4,1157.69C1880.77,1155.46 1884.84,1153.49 1889.76,1152.1C1919.31,1143.69 1933.89,1183.35 1940.56,1220.31C1943.06,1216.78 1945.52,1213.31 1947.93,1209.92ZM1702.75,1231.12C1639.36,1287.27 1575.88,1412.34 1542.86,1482.19C1650.51,1461.36 1786.21,1441.95 1903.35,1432.03C1891.94,1419.38 1881.81,1404.32 1881.81,1390.74C1881.81,1380.5 1887.15,1359.91 1896.32,1333.38C1861.98,1380.11 1825.77,1426.37 1816.74,1426.73L1816.64,1426.73L1816.53,1426.73C1813.76,1426.7 1811.22,1425.33 1808.92,1423.05C1795.4,1415.9 1768.85,1398.44 1768.85,1371.56C1768.85,1359.27 1770.41,1346.51 1773.3,1333.48C1740.15,1374.54 1706.84,1413.04 1698.33,1413.37L1698.22,1413.37L1698.12,1413.37C1695.27,1413.33 1692.67,1411.89 1690.33,1409.5C1677.73,1402.55 1654.48,1386.17 1654.48,1359.88C1654.48,1339.53 1675.81,1277.03 1702.75,1231.12ZM2231.56,1140.67C2257.97,1090.71 2288.4,1045.42 2318.1,1022.21C2326.62,1015.55 2354.41,1019.6 2354.41,1019.6C2285.54,1089.34 2220.29,1260.56 2203.37,1370.11C2242.88,1347.84 2347.18,1264.1 2385.9,1271.71C2431.14,1280.61 2438.56,1312.39 2438.56,1312.39C2348.44,1294.67 2222.04,1428.12 2188.47,1421.52C2177.77,1419.41 2174.71,1404.83 2174.27,1391.12C2164.28,1378.14 2155.07,1362.32 2155.07,1348.13C2155.07,1331.18 2166.21,1291.57 2184.18,1245.08C2130.21,1313.03 2054.09,1404.69 2034.57,1406.88L2034.57,1406.92C2034.43,1406.92 2034.29,1406.92 2034.15,1406.91C2034.06,1406.92 2033.97,1406.92 2033.88,1406.92C2033.35,1406.92 2032.83,1406.86 2032.31,1406.75C2014.72,1404.2 1987.4,1372.96 1987.4,1328.65C1987.4,1282.4 2058.22,1161.55 2109.69,1135.81C2119.07,1131.12 2128.96,1140.01 2134.25,1146.07C2141.72,1150.04 2148.63,1156.12 2148.63,1165.04C2148.63,1205.83 2107,1285.19 2069.82,1285.19C2063.2,1285.19 2058.84,1283.32 2055.99,1281.11C2048.94,1300.88 2043.05,1322.82 2039.24,1346.86C2071.02,1329.96 2203.58,1173.86 2231.56,1140.67ZM1893.89,1190.38C1861.63,1242.44 1836.19,1301.26 1824.18,1358.43C1854.54,1336.97 1888.66,1292.67 1919.22,1250.25C1915.03,1227.18 1907.92,1204.26 1893.89,1190.38ZM2111.87,1179.78C2095.63,1200.27 2074.93,1231.52 2059.04,1272.89C2085.44,1264.93 2104.07,1219.11 2111.87,1179.78ZM1573.68,1090.24C1564.18,1084.46 1552.7,1081.09 1535.16,1085.08C1518.62,1088.83 1503.09,1120.8 1501.58,1139.31C1500.07,1157.83 1514.92,1184.08 1514.92,1184.08C1530.03,1150.11 1547.07,1117.31 1573.68,1090.24Z" style="fill:white;"/>
    </g>
</svg>
