<?xml version="1.0" encoding="UTF-8" standalone="no"?><!DOCTYPE svg PUBLIC "-//W3C//DTD SVG 1.1//EN" "http://www.w3.org/Graphics/SVG/1.1/DTD/svg11.dtd"><svg width="100%" height="100%" viewBox="0 0 10215 3619" version="1.1" xmlns="http://www.w3.org/2000/svg" xmlns:xlink="http://www.w3.org/1999/xlink" xml:space="preserve" xmlns:serif="http://www.serif.com/" style="fill-rule:evenodd;clip-rule:evenodd;stroke-linecap:round;stroke-linejoin:round;stroke-miterlimit:1.5;"><g><path d="M2548.87,448.866c-783.334,-0 -1970.83,687.5 -1970.83,1016.67c0,266.667 116.667,341.667 116.667,341.667c-0.277,-263.481 1410.17,-1119.75 2052.69,-1119.36c0,-0 -86.027,-238.972 -198.527,-238.972Z" style="fill:#fff;stroke:#fff;stroke-width:6.06px;"/><path d="M661.812,1576.42c-0,0 -46.28,97.444 -46.28,251.61c0,355.159 1595.83,522.849 1595.83,845.834c-0,-0 58.333,-137.5 58.333,-275c-0.346,-258.996 -1607.89,-547.917 -1607.89,-822.444Z" style="fill:#fff;stroke:#fff;stroke-width:6.06px;"/><path d="M2303.03,2653.03c0,225 -545.833,754.167 -1562.5,754.167c-520.833,-0 -737.5,-220.833 -737.5,-400c0,-179.167 54.167,-250 54.167,-250c0.754,200.717 707.295,215.112 850.366,215.112c643.07,-0 1316.3,-322.744 1316.3,-556.779c-0,0 79.166,87.5 79.166,237.5Z" style="fill:#fff;stroke:#fff;stroke-width:6.06px;"/><path d="M140.21,3057.64c-0,-131.504 396.144,-372.814 678.355,-374.692c-54.217,-55.036 -809.452,-12.133 -809.452,129.534c0,58.333 131.097,245.158 131.097,245.158Z" style="fill:#fff;stroke:#fff;stroke-width:6.06px;"/><path d="M2823.87,644.699c-0,408.333 -587.5,1108.33 -787.5,1108.33c-0,0 537.499,-681.814 537.5,-1275c-0,0 250,83.334 250,166.667Z" style="fill:#fff;stroke:#fff;stroke-width:6.06px;"/></g><g><path d="M3573.87,757.199c-477.104,684.927 -991.018,2286.57 -1000,2537.5c-0,-0 -254.167,-200 -254.167,-416.667c-0,-287.5 983.333,-2166.67 1104.17,-2166.67c37.5,-0 150,45.833 150,45.833Z" style="fill:#fff;stroke:#fff;stroke-width:6.06px;"/><path d="M4336.37,1069.7c-2.429,458.352 -865.823,840.073 -1144.99,840.073c-119.74,0 -159.178,-160.906 -159.178,-160.906c348.985,-0 1172.1,-591.502 1170.83,-995.834c0,0 133.334,154.167 133.334,316.667Z" style="fill:#fff;stroke:#fff;stroke-width:6.06px;"/><path d="M3886.37,3615.53c200,0 316.666,-75 316.666,-75c-596.103,-342.327 -1186.26,-1612.5 -1186.26,-1887.05c0,0 -88.744,145.387 -88.744,197.47c0,257.369 468.708,1771.2 958.334,1764.58Z" style="fill:#fff;stroke:#fff;stroke-width:6.06px;"/><path d="M3937.99,3615.55c122.504,-158.652 197.203,-330.583 235.873,-512.522c34.796,85.024 46.632,214.099 46.632,390.343c-0,75.022 -282.505,122.179 -282.505,122.179Z" style="fill:#fff;stroke:#fff;stroke-width:6.06px;"/><path d="M3148.87,953.032c-75,0 -141.667,-225 -141.667,-225c-0,0 37.5,50 104.167,50c66.666,0 287.5,-79.166 329.166,-79.166c41.667,-0 62.5,54.166 62.5,54.166c-70.833,0 -300,200 -354.166,200Z" style="fill:#fff;stroke:#fff;stroke-width:6.06px;"/></g><g><path d="M4771.97,1125.95c-165.517,114.422 -782.372,1251.89 -782.372,1612.98c-0,0 -286.561,-102.56 -286.561,-252.56c0,-329.156 745.834,-1395.83 895.834,-1395.83c87.5,0 173.099,35.419 173.099,35.419Z" style="fill:#fff;stroke:#fff;stroke-width:6.06px;"/><path d="M4007.2,2807.2c108.333,-0 866.667,-1095.83 866.667,-1095.83l-33.334,-125c0,-0 -810.975,903.881 -1060.97,903.881c-0,125.728 119.309,316.952 227.642,316.952Z" style="fill:#fff;stroke:#fff;stroke-width:6.06px;"/><path d="M4755.74,1101.49c101.455,-0 141.574,519.635 141.574,519.635l-77.619,102.739c-70.427,-172.885 -207.077,-508.334 -304.167,-508.334c0,0 97.09,-114.04 240.212,-114.04Z" style="fill:#fff;stroke:#fff;stroke-width:6.06px;"/><path d="M5215.53,1386.37c-125.122,125.122 -359.835,664.42 -358.333,1075c-0,-0 -300,-58.334 -300,-204.167c-0,-220.833 393.933,-923.961 528.218,-923.961c55.115,0 130.115,53.128 130.115,53.128Z" style="fill:#fff;stroke:#fff;stroke-width:6.06px;"/></g><g><path d="M5578.03,1073.87c-1.226,351.398 -658.84,1203.07 -877.288,1203.04c-0,-0 102.74,227.795 177.514,227.795c245.608,-0.741 903.941,-1308.69 903.941,-1430.84l-204.167,-0Z" style="fill:#fff;stroke:#fff;stroke-width:6.06px;"/><path d="M5401.4,911.783c0,0 64.136,62.083 143.303,62.083c283.333,-0 675,-195.834 783.333,-195.834c108.334,0 216.667,170.834 216.667,170.834c-163.508,-0 -636.884,311.529 -867.738,308.234c-253.196,0 -275.565,-345.317 -275.565,-345.317Z" style="fill:#fff;stroke:#fff;stroke-width:6.06px;"/><path d="M6350.95,832.371l193.744,116.495c-169.766,249.14 -870.833,1472.5 -870.833,2141.67c-0,0 -320.834,-66.666 -320.834,-387.5c0,-245.833 997.923,-1870.66 997.923,-1870.66Z" style="fill:#fff;stroke:#fff;stroke-width:6.06px;"/></g><g><path d="M7435.63,61.366c-291.666,-0 -1340.93,1697.69 -1340.93,2158.33c-0,267.822 306.571,330.415 306.571,330.415c0.631,-498.194 649.725,-1882.54 1180.93,-2413.75c-0,-0 -60.581,-75.562 -146.569,-75Z" style="fill:#fff;stroke:#fff;stroke-width:6.06px;"/><path d="M6399.24,2624.3c145.464,-0 999.631,-1112.93 999.631,-1112.93l-70.834,-129.167c0,-0 -797.361,969.951 -1145,969.951c0,-0 70.739,272.149 216.203,272.149Z" style="fill:#fff;stroke:#fff;stroke-width:6.06px;"/><path d="M6628.03,1548.87c281.045,-0 954.167,-726.43 954.167,-1412.5c-0,-144.404 -241.667,112.5 -241.667,112.5c0,313.631 -450.312,1239.45 -698.088,1238.92l-14.412,61.079Z" style="fill:#fff;stroke:#fff;stroke-width:6.06px;"/></g><g><path d="M7990.53,803.032c-312.5,0 -1033.33,1047.92 -1033.33,1283.33c-0,162.5 275,262.5 275,262.5c-0.18,-211.732 603.611,-1368.61 875,-1487.5c-0,-0 -65.102,-58.334 -116.667,-58.334Z" style="fill:#fff;stroke:#fff;stroke-width:6.06px;"/><path d="M8248.87,953.032c-4.01,410.843 -636.231,897.917 -828.533,897.917l0,-118.75c220.092,-0 603.769,-587.796 602.591,-850c0,-0 109.275,-29.167 167.608,-29.167c58.334,0 58.334,100 58.334,100Z" style="fill:#fff;stroke:#fff;stroke-width:6.06px;"/><path d="M7290.53,2482.2c437.5,-0 1366.05,-1187.16 1366.05,-1187.16l-78.554,-150.341c0,-0 -877.723,1072.25 -1521.69,1072.25c-0,0 67.52,265.251 234.186,265.251Z" style="fill:#fff;stroke:#fff;stroke-width:6.06px;"/></g><g><path d="M8078.03,2624.3c0,266.233 354.167,399.567 354.167,399.567c-0,-1007.95 777.239,-2650.28 1095.83,-2962.5c0,0 -62.5,-58.33 -104.166,-58.33c-230.037,0 -1345.83,1900 -1345.83,2621.27Z" style="fill:#fff;stroke:#fff;stroke-width:6.06px;"/><path d="M7959.49,365.532c131.694,141.56 1349.74,-161.076 1840.13,-161.056c245.833,0.011 411.746,377.723 411.746,377.723c-239.766,-240.837 -1691.56,27.274 -2031.39,27.274c-140.627,-0 -220.48,-243.941 -220.48,-243.941Z" style="fill:#fff;stroke:#fff;stroke-width:6.06px;"/><path d="M8524.14,3098.6c497.726,-0 1133.7,-1123.4 937.229,-1362.24c-161.173,492.664 -816.331,1100.35 -1186.55,1099.88c-0,0 70.427,262.357 249.323,262.357Z" style="fill:#fff;stroke:#fff;stroke-width:6.06px;"/></g></svg>