<?xml version="1.0" encoding="UTF-8" standalone="no"?><!DOCTYPE svg PUBLIC "-//W3C//DTD SVG 1.1//EN" "http://www.w3.org/Graphics/SVG/1.1/DTD/svg11.dtd"><svg width="100%" height="100%" viewBox="0 0 2008 1527" version="1.1" xmlns="http://www.w3.org/2000/svg" xmlns:xlink="http://www.w3.org/1999/xlink" xml:space="preserve" xmlns:serif="http://www.serif.com/" style="fill-rule:evenodd;clip-rule:evenodd;stroke-linejoin:round;stroke-miterlimit:2;"><path d="M0,0c-0,0 267.936,79.45 267.936,79.45c19.004,5.635 35.95,5.842 86.934,33.267c0,-0 158.435,85.224 158.435,85.224l101.511,-34.623l310.463,-106.511l-196.146,147.334c-3.453,2.593 -6.864,5.409 -10.129,8.423l108.369,51.221l176.557,75.656l71.459,-92.337l-9.614,70.902l223.082,-105.442c-3.265,-3.014 -6.676,-5.83 -10.129,-8.423l-196.146,-147.334l310.463,106.511l101.51,34.623l158.436,-85.224c50.984,-27.425 67.93,-27.632 86.933,-33.267c0,0 267.937,-79.45 267.937,-79.45c-0,-0 -238.924,151.293 -240.232,152.335c-8.953,7.125 -15.736,18.121 -24.3,38.804l-129.179,311.985l82.989,63.171c11.315,-34.158 18.506,-78.856 20.63,-136.502c0,0 23.517,65.673 44.841,126.124l33.903,98.688c9.05,29.074 19.307,57.203 31.945,83.506l69.835,145.35l-163.855,-124.726l-225.103,393.349l89.905,374.356l-290.902,-311.496c-0,0 -55.972,-59.502 -109.587,-59.502c-2.045,0 -194.821,1.172 -194.821,1.172l-35.943,0.246l4.158,11.03l-59.221,47.037c-15.019,14.986 -146.763,139.832 -164.586,156.716c-0.93,1.467 -1.61,2.13 -1.99,1.888l1.99,-1.888c10.879,-17.03 56.359,-142.373 69.438,-216.179c-0,0 9.597,-42.154 -7.995,-58.583l-401.16,429.559l89.905,-374.356l-225.103,-393.349l-163.855,124.726l69.835,-145.35c12.638,-26.303 22.895,-54.432 31.945,-83.506l78.744,-224.812c2.124,57.646 9.315,102.344 20.63,136.502l82.989,-63.171l-129.179,-311.985c-8.521,-20.579 -15.279,-31.568 -24.166,-38.697c-1.348,-1.083 -240.366,-152.442 -240.366,-152.442Zm1340.79,1113.14l-60.441,-275.974c-6.229,-28.441 -4.708,-35.463 3.462,-45.994l-97.645,-45.496c19.287,18.686 28.758,40.162 36.182,74.062l54.181,247.39c4.358,19.897 -5.006,33.491 -16.122,39.635l266.736,285.619l-57.063,-237.605c-0.267,77.594 -9.78,88.838 -24.001,73.313l-105.289,-114.95Zm-505.695,-196.058l-5.46,-44.065c-2.607,-21.041 -13.343,-25.891 -19.218,-30.47c30.24,-24.073 45.117,-81.109 73.17,-119.247c-6.607,42.897 -8.517,85.957 -4.667,117.034l32.773,264.521c2.336,18.853 13.491,48.449 13.491,48.449c-27.587,19.209 -59.364,53.502 -92.508,92.717c19.832,-35.784 31.685,-92.717 25.683,-141.166l-13.73,-110.816l-82.229,-68.739l-31.062,141.828c-4.358,19.897 5.006,33.491 16.122,39.635l-266.736,285.619l57.063,-237.605c0.267,77.594 9.78,88.838 24.001,73.313l105.289,-114.95l49.523,-226.125l-46.154,-38.582c9.155,0.023 18.285,-0.9 27.214,-2.944c10.53,-2.41 20.647,-6.309 30.294,-11.139l0.19,-0.096c5.488,-26.025 3.796,-32.919 -4.088,-43.082l97.645,-45.496c-19.287,18.686 -28.758,40.162 -36.182,74.062l-10.349,47.251l59.925,50.093Zm179.621,2.495c-12.85,-27.187 -27.764,-49.36 -45.018,-65.85l167.468,-57.91c22.112,-7.646 33.392,-17.679 43.273,-25.589l22.165,113.132c-12.294,-17.77 -30.445,-43.639 -51.532,-36.347l-105.714,36.555c-0,0 15.568,17.667 25.449,17.667c12.529,-0 66.359,-9.702 66.359,-9.702l-49.92,93.128l-7.086,-38.101l-36.135,14.121l-39.554,104.238l179.144,-1.119l-16.272,-79.139c-6.204,-30.174 -15.174,-46.213 -23.984,-61.167c30.769,17.414 58.332,48.24 93.354,75.265c-6.274,4.036 -10.529,9.265 -7.647,23.282l23.303,113.34c0,-0 -22.205,-18.745 -53.615,-18.745c-31.411,0 -271.162,1.694 -271.162,1.694l56.086,-147.805c5.667,-14.934 7.865,-29.491 -4.27,-47.031l35.308,-3.917Zm-411.811,41.48l-55.916,-380.364c-5.422,-36.885 -11.861,-49.098 -17.249,-65.5c20.032,17.913 42.764,38.893 66.286,65.5l118.429,135.539c-14.586,20.801 -27.085,47.514 -37.25,80.839c-1.295,-21.843 -6.172,-51.625 -18.464,-65.529l-43.274,-48.947l57.246,389.407l-220.076,-148.475c-18.57,10.511 -12.712,35.271 -5.334,60.918l-119.659,-209.094l275.261,185.706Zm802.057,-0l55.916,-380.364c5.422,-36.885 11.861,-49.098 17.249,-65.5c-20.032,17.913 -42.765,38.893 -66.286,65.5l-41.841,47.885c0,0 30.34,0 22.399,54.017l-57.245,389.407l220.075,-148.475c18.571,10.511 12.713,35.271 5.335,60.918l119.659,-209.094l-275.261,185.706Zm-466.449,-387.204l-111.393,143.939l-113.514,49.453c19.661,-16.503 39.043,-39.707 67.879,-76.967l236.008,-304.963l-88.151,650.069l-29.158,-230.672c-0,0 8.192,-8.611 10.755,-27.515l27.574,-203.344Zm-618.589,149.484l231.805,156.387l-44.049,-299.307l-187.756,142.92Zm1368.02,-0l-187.755,-142.92l-44.049,299.307l231.804,-156.387Zm-627.491,-217.386l129.935,-127.776l14.355,-24.393l-93.582,44.232c-0,0 -36.751,16.999 -38.616,52.324l-29.011,-78.903l294.012,-138.968l-105.087,178.579l-158.29,155.402l-26.079,183.486c-3.336,23.47 8.064,46.497 8.064,46.497l-85.96,29.725c10.953,-20.006 20.482,-48.413 25.185,-81.503l37.772,-265.751l27.302,27.049Zm198.016,-86.708c-0,0 64.494,-122.148 64.494,-122.148l-37.62,405.319c-3.543,38.172 6.992,47.753 33.711,78.748l-103.734,-48.685c12.119,-4.934 18.613,-48.88 18.613,-48.88l13.08,-140.926l-135.955,230.072l-34.701,13.041l15.507,-164.5c1.577,-16.731 -2.508,-30.125 -2.508,-30.125l70.917,-69.739c-0,-0 -8.747,30.932 -11.381,58.879l-2.734,29.005l112.311,-190.061Zm308.401,96.648l140.613,-339.6c14.364,-34.69 27.258,-49.38 43.478,-59.644c-17.381,5.154 -32.952,5.154 -79.584,30.238l-46.216,24.86c13.505,7.091 17.406,22.972 2.614,58.695l-107.566,259.789c-5.587,13.493 -21.494,28.935 -30.027,33.807l303.306,230.875c-27.8,-57.86 -44.774,-124.141 -62.051,-190.187c2.349,40.057 -6.285,71.651 -29.831,53.728l-134.736,-102.561Zm-1125.87,0l-140.613,-339.6c-14.364,-34.69 -27.258,-49.38 -43.478,-59.644c17.381,5.154 32.952,5.154 79.584,30.238l145.634,78.338l-47.304,60.423c1.881,-14.122 -4.611,-28.247 -15.293,-33.993l-39.435,-21.213l107.566,259.789c5.587,13.493 21.494,28.935 30.027,33.807l-303.306,230.875c27.8,-57.86 44.774,-124.141 62.051,-190.187c-2.349,40.057 6.285,71.651 29.831,53.728l134.736,-102.561Zm313.05,-46.559l137.682,-51.318l14.9,-15.31l-145.387,-68.718c-15.16,-6.586 -24.197,-5.21 -31.145,-1.119l-56.614,-98.906l322.76,152.556l-74.88,76.938l-77.498,28.886l25.091,49.521l-35.859,46.336l-39.143,-77.254l-34.839,12.986l6.622,71.352c3.754,20.135 12.214,30.907 33.553,38.191l-75.047,87.462l-31.051,-334.547c-2.697,-29.055 -14.145,-52.065 -19.709,-66.349l87.304,37.748c-11.829,9.534 -15.765,14.304 -14.438,28.601l7.698,82.944Zm-149.873,-152.41l-9.799,-105.573l111.455,-38.237c-31.65,23.774 -56.643,62.418 -53.455,96.762l32.738,346.375c1.992,21.461 5.285,35.506 11.014,49.095l-75.085,-85.933c3.526,-3.433 6.8,-7.488 5.791,-18.364l-17.669,-190.362l-73.615,22.085l69.448,168.277c-33.051,-33.405 -66.461,-65.875 -103.673,-88.461c5.551,-5.751 4.507,-13.079 0.768,-22.14l-61.441,-148.877l74.285,-84.484c-11.191,23.91 -22.202,71.942 -10.278,100.833l10.598,25.68l88.918,-26.676Zm798.692,244.125l-91.13,104.297c5.729,-13.589 9.022,-27.634 11.014,-49.095l32.738,-346.375c3.188,-34.344 -21.805,-72.988 -53.455,-96.762l111.455,38.237l78.901,33.365l125.478,-67.478l-30.943,76.738l-91.502,49.206l-87.136,-35.791l-3.938,42.427l51.961,25.676c13.079,6.463 34.257,10.376 42.678,10.842c-24.274,16.208 -52.153,35.631 -63.254,61.546c-3.511,-12.524 -2.474,-24.739 -16.094,-31.469l-20.53,-10.145l-13.203,142.252c117.181,-108.714 168.512,-175.949 168.512,-175.949l-48.647,117.877c-3.74,9.061 -4.783,16.389 0.768,22.14c-37.212,22.586 -70.623,55.056 -103.673,88.461Z" style="fill:#fff;"/></svg>