<?xml version="1.0" encoding="UTF-8" standalone="no"?>
<!DOCTYPE svg PUBLIC "-//W3C//DTD SVG 1.1//EN" "http://www.w3.org/Graphics/SVG/1.1/DTD/svg11.dtd">
<svg width="100%" height="100%" viewBox="0 0 5597 4134" version="1.1" xmlns="http://www.w3.org/2000/svg" xmlns:xlink="http://www.w3.org/1999/xlink" xml:space="preserve" xmlns:serif="http://www.serif.com/" style="fill-rule:evenodd;clip-rule:evenodd;stroke-linejoin:round;stroke-miterlimit:2;">
    <g transform="matrix(1,0,0,1,-701.807,-433.043)">
        <path d="M2862.49,3123.64C2860.64,3120.95 2858.79,3118.28 2856.93,3115.62C2740.05,2947.58 2635.1,2826.79 2527.6,2722.84L2527.6,3819C2534.15,3819.16 2539.42,3824.54 2539.42,3831.13C2539.42,3837.72 2534.15,3843.09 2527.6,3843.26L2527.6,3901.18C2531.84,3901.35 2535.23,3904.84 2535.23,3909.12C2535.23,3913.4 2531.84,3916.89 2527.6,3917.06L2527.6,3968.5C2531.84,3968.66 2535.23,3972.16 2535.23,3976.44C2535.23,3980.7 2531.86,3984.19 2527.63,3984.37C2527.83,4005.18 2527.84,4021.99 2527.79,4034.01C2531.94,4034.27 2535.23,4037.72 2535.23,4041.93C2535.23,4046.19 2531.88,4049.67 2527.67,4049.87C2527.63,4053.37 2527.6,4055.2 2527.6,4055.2L2527.6,4049.87C2527.49,4049.88 2527.39,4049.88 2527.28,4049.88C2522.9,4049.88 2519.34,4046.32 2519.34,4041.93C2519.34,4037.55 2522.9,4033.99 2527.28,4033.99C2527.39,4033.99 2527.49,4033.99 2527.6,4034L2527.6,3984.38C2527.49,3984.38 2527.39,3984.38 2527.28,3984.38C2522.9,3984.38 2519.34,3980.82 2519.34,3976.44C2519.34,3972.05 2522.9,3968.49 2527.28,3968.49L2527.45,3968.49C2527.24,3953.02 2526.93,3935.78 2526.46,3917.02C2522.46,3916.61 2519.34,3913.23 2519.34,3909.12C2519.34,3905.16 2522.24,3901.87 2526.04,3901.27C2525.53,3882.98 2524.87,3863.43 2524.04,3842.82C2518.91,3841.4 2515.15,3836.7 2515.15,3831.13C2515.15,3825.92 2518.43,3821.47 2523.04,3819.76C2518.74,3724.98 2510.66,3610.96 2495.68,3495.91C2457.94,3332.59 2332.18,3087.83 2068.7,2864.44C2069.99,2880.62 2068.45,2887.32 2059.43,2905.75C1904.27,3274.88 1876.91,3833.22 1872.62,4075.22C1878.2,4076.31 1882.42,4081.23 1882.42,4087.13C1882.42,4093.15 1878.01,4098.16 1872.25,4099.1C1871.95,4122.51 1871.87,4142.13 1871.88,4157.34C1875.5,4158.08 1878.23,4161.28 1878.23,4165.12C1878.23,4168.94 1875.53,4172.13 1871.93,4172.89C1872.01,4186.66 1872.16,4194.03 1872.16,4194.03L1871.47,4172.98C1871.08,4173.03 1870.68,4173.06 1870.28,4173.06C1865.9,4173.06 1862.34,4169.5 1862.34,4165.12C1862.34,4160.73 1865.9,4157.17 1870.28,4157.17C1870.51,4157.17 1870.73,4157.18 1870.95,4157.2C1870.33,4138.17 1869.69,4118.82 1869.04,4099.2C1862.93,4098.57 1858.15,4093.4 1858.15,4087.13C1858.15,4081.13 1862.51,4076.14 1868.24,4075.16C1866.36,4019.33 1864.31,3961.44 1861.98,3902.38C1838.62,3833.03 1770.63,3664.08 1613.85,3477.24C1442.06,3272.49 1337.07,3210.98 1236.09,3115.62C1135.1,3020.25 1018.84,2791.7 1258.69,2660.36C1352.81,2608.82 1455.22,2594.76 1551.9,2601.37C1530.39,2563.2 1507.95,2526.53 1484.7,2492.46C1419.91,2397.49 1343.11,2290.59 1265.57,2181.79C1275.88,2200.25 1281.29,2211.56 1281.29,2211.56C1281.29,2211.56 1107.28,1901.13 916.439,1895.14C749.252,1889.9 761.455,2088.87 761.455,2088.87C761.455,2088.87 723.667,2081.42 707.38,2038.84C683.113,1975.4 738.355,1888.13 868.005,1879C983.963,1870.82 1082.49,1944.36 1154.22,2024.34C1036.82,1856.29 930.642,1695.28 877.691,1578.72C774.172,1350.84 744.019,1098.27 916.437,942.648C1040.47,830.701 1184.42,836.099 1184.42,836.099C1184.42,836.099 1006.74,903.863 926.123,1120.23C845.509,1336.6 852.202,1535.31 1013.3,1772.45C1174.4,2009.58 1234.96,2103.59 1456.45,2406.94C1496.77,2462.16 1539.81,2530.8 1581.92,2604.1C1630.52,2609.57 1677.24,2619.97 1720.24,2633.06C1720.35,2626.56 1720.4,2619.53 1720.4,2611.93L1720.4,2169.59C1720.4,2157.75 1719.27,2130.49 1712.26,2092.25C1660.82,2058.67 1629.74,2039.49 1629.74,2039.49L1629.74,2039.49C1551.53,1991.23 1419.05,1908.21 1326.49,1843.48C1187.48,1746.25 931.76,1492.57 1200.57,1459.25C1368.97,1438.38 1552.6,1569.23 1701.92,1795.09C1763.15,1887.71 1811.59,2001.77 1832.25,2147.76C1865.76,2170.33 1899.59,2193.45 1933.5,2216.98L1933.5,2004.92C1933.5,1744.86 1848.07,1682.39 1565.42,1417.28C1429.81,1290.08 1438.63,1116.97 1604.17,1087.94C1735.23,1064.96 1856.24,1161.25 1976.96,1290.57C1960.7,1241.16 1952.19,1163.8 2022.93,1103.34C2104.18,1033.9 2219.96,1076.27 2359.59,1209.27C2536.24,1377.52 2615.75,1434.48 2699.23,1458.14C2718.92,1435.73 2739.98,1419.7 2757.65,1408.69L2757.64,1408.69L2757.65,1408.69C2781.28,1393.96 2798.82,1388.22 2798.82,1388.22C2798.82,1388.22 2807.78,1385.91 2812.08,1383.82C2802.54,1367.97 2791.72,1352.23 2779.44,1336.56C2695.37,1229.23 2574.68,1206.2 2574.68,1206.2L2574.68,1206.2C2564.02,1204.77 2552.66,1203.02 2540.51,1200.95C2446.74,1184.95 2370.14,1041.18 2453.34,984.623C2536.53,928.061 2592.18,994.309 2592.18,994.309C2592.18,994.309 2462.09,1020.46 2517.33,1126.48C2546.61,1182.67 2650.06,1209.7 2750.39,1152.52C2875.13,1081.41 2939.5,985.963 3063.58,852.243C3187.66,718.522 3361.87,827.373 3321.88,991.08C3270.69,1200.65 3073.74,1289.68 2921.51,1365.62C2895.56,1378.56 2875.36,1389.35 2859.69,1398.33C2863.32,1405.51 2866.72,1412.9 2869.85,1420.51C2878.58,1441.71 2887.57,1461.83 2896.63,1480.8C3067.78,1475.68 3265.93,1355.23 3382.25,1122.54C3497.72,891.539 3491.95,539.077 3491.95,539.077C3494.51,534.508 3497.2,432.65 3500,433.045C3502.8,432.65 3505.49,534.508 3508.06,539.077C3508.06,539.077 3502.28,891.539 3617.75,1122.54C3734.07,1355.23 3932.22,1475.68 4103.37,1480.8C4112.43,1461.83 4121.42,1441.71 4130.15,1420.51C4133.28,1412.9 4136.68,1405.51 4140.31,1398.33C4124.65,1389.35 4104.44,1378.56 4078.49,1365.62C3926.26,1289.68 3729.31,1200.65 3678.12,991.08C3638.13,827.373 3812.34,718.522 3936.42,852.243C4060.5,985.963 4124.87,1081.41 4249.61,1152.52C4349.94,1209.7 4453.39,1182.67 4482.67,1126.48C4537.91,1020.46 4407.82,994.309 4407.82,994.309C4407.82,994.309 4463.47,928.061 4546.66,984.623C4629.86,1041.18 4553.26,1184.95 4459.49,1200.95C4409.14,1209.54 4347.19,1222.45 4286.36,1198.45C4265.96,1190.4 4246.43,1179.67 4223.99,1165.43C4114.22,1095.78 3958.97,916.846 3862.16,907.132C3765.35,897.418 3745.83,995.859 3823.42,1107.32C3906.14,1226.16 4060.91,1318.89 4157.41,1368.55C4172.72,1344.85 4190.52,1323.84 4209.43,1305.3L4209.47,1305.26L4209.55,1305.18C4211.94,1302.87 4241.01,1275.85 4313.65,1253.39C4282.54,1272.84 4249.4,1299.74 4220.56,1336.56C4217.6,1340.34 4214.72,1344.12 4211.93,1347.9L4211.93,1347.9L4211.88,1347.97C4203.11,1359.87 4195.15,1371.82 4187.92,1383.82L4188.24,1383.97C4181.95,1394.67 4176.05,1405.72 4170.49,1417.08L4170,1416.73C4163.36,1430.28 4157.57,1443.92 4152.53,1457.67L4152.17,1458.65C4149.62,1465.64 4147.27,1472.66 4145.09,1479.71C4145.68,1479.66 4146.28,1479.61 4146.87,1479.56C4166.25,1477.84 4184.02,1476.35 4200.66,1474.75C4193.51,1457.87 4186.67,1445.24 4181.91,1437.22C4188.4,1420.33 4196.49,1404.59 4206.39,1390.17C4213.28,1392.93 4226.44,1398.77 4242.35,1408.69L4242.36,1408.69L4242.35,1408.69C4260.02,1419.7 4281.08,1435.73 4300.77,1458.14C4384.25,1434.48 4463.76,1377.52 4640.41,1209.27C4780.04,1076.27 4895.82,1033.9 4977.07,1103.34C5047.81,1163.8 5039.3,1241.16 5023.04,1290.57C5143.76,1161.25 5264.77,1064.96 5395.83,1087.94C5561.36,1116.97 5570.19,1290.08 5434.58,1417.28C5151.93,1682.39 5066.5,1744.86 5066.5,2004.92L5066.5,2216.98C5100.41,2193.45 5134.24,2170.33 5167.75,2147.76C5188.41,2001.77 5236.85,1887.71 5298.08,1795.09C5447.4,1569.23 5631.03,1438.38 5799.43,1459.25C6068.24,1492.57 5812.52,1746.25 5673.51,1843.48C5580.95,1908.21 5448.47,1991.23 5370.26,2039.49L5370.26,2039.49C5370.26,2039.49 5339.18,2058.67 5287.74,2092.25C5280.73,2130.49 5279.6,2157.75 5279.6,2169.59L5279.6,2611.93C5279.6,2619.53 5279.65,2626.56 5279.76,2633.06C5322.76,2619.97 5369.48,2609.57 5418.08,2604.1C5460.19,2530.8 5503.23,2462.16 5543.55,2406.94C5765.04,2103.59 5825.6,2009.58 5986.7,1772.45C6147.8,1535.31 6154.49,1336.6 6073.88,1120.23C5993.26,903.863 5815.57,836.099 5815.57,836.099C5815.57,836.099 5959.53,830.701 6083.56,942.648C6255.98,1098.27 6225.83,1350.84 6122.31,1578.72C6069.36,1695.28 5963.18,1856.29 5845.78,2024.34C5917.52,1944.36 6016.04,1870.82 6131.99,1879C6261.65,1888.13 6316.89,1975.4 6292.62,2038.84C6276.33,2081.42 6238.55,2088.87 6238.55,2088.87C6238.55,2088.87 6250.75,1889.9 6083.56,1895.14C5892.72,1901.13 5718.71,2211.56 5718.71,2211.56C5718.71,2211.56 5724.13,2200.25 5734.44,2181.79C5656.89,2290.59 5580.09,2397.49 5515.3,2492.46C5492.05,2526.53 5469.61,2563.2 5448.1,2601.37C5544.78,2594.76 5647.19,2608.82 5741.31,2660.36C5981.16,2791.7 5864.9,3020.25 5763.91,3115.62C5662.93,3210.98 5557.94,3272.49 5386.15,3477.24C5229.37,3664.08 5161.39,3833.03 5138.02,3902.38C5135.69,3961.44 5133.65,4019.33 5131.76,4075.16C5137.49,4076.14 5141.85,4081.13 5141.85,4087.13C5141.85,4093.4 5137.07,4098.57 5130.96,4099.2C5130.31,4118.82 5129.67,4138.17 5129.05,4157.2C5129.27,4157.18 5129.49,4157.17 5129.72,4157.17C5134.1,4157.17 5137.66,4160.73 5137.66,4165.12C5137.66,4169.5 5134.1,4173.06 5129.72,4173.06C5129.32,4173.06 5128.92,4173.03 5128.53,4172.98L5127.84,4194.03C5127.84,4194.03 5127.99,4186.66 5128.07,4172.89C5124.47,4172.13 5121.77,4168.94 5121.77,4165.12C5121.77,4161.28 5124.5,4158.08 5128.12,4157.34C5128.13,4142.13 5128.05,4122.51 5127.75,4099.1C5121.99,4098.16 5117.58,4093.15 5117.58,4087.13C5117.58,4081.23 5121.8,4076.31 5127.38,4075.22C5123.09,3833.22 5095.73,3274.88 4940.57,2905.75C4931.55,2887.32 4930.01,2880.62 4931.3,2864.44C4667.82,3087.82 4542.07,3332.59 4504.32,3495.9C4489.34,3610.96 4481.26,3724.97 4476.96,3819.76C4481.57,3821.47 4484.85,3825.92 4484.85,3831.13C4484.85,3836.7 4481.09,3841.4 4475.96,3842.82C4475.13,3863.43 4474.47,3882.98 4473.96,3901.27C4477.76,3901.87 4480.66,3905.16 4480.66,3909.12C4480.66,3913.23 4477.54,3916.61 4473.54,3917.02C4473.07,3935.78 4472.76,3953.02 4472.55,3968.49L4472.72,3968.49C4477.1,3968.49 4480.66,3972.05 4480.66,3976.44C4480.66,3980.82 4477.1,3984.38 4472.72,3984.38C4472.61,3984.38 4472.51,3984.38 4472.4,3984.38L4472.4,4034C4472.51,4033.99 4472.61,4033.99 4472.72,4033.99C4477.1,4033.99 4480.66,4037.55 4480.66,4041.93C4480.66,4046.32 4477.1,4049.88 4472.72,4049.88C4472.61,4049.88 4472.51,4049.88 4472.4,4049.87L4472.4,4055.2C4472.4,4055.2 4472.37,4053.37 4472.33,4049.87C4468.12,4049.67 4464.77,4046.19 4464.77,4041.93C4464.77,4037.72 4468.06,4034.27 4472.21,4034.01C4472.16,4021.99 4472.17,4005.18 4472.37,3984.37C4468.15,3984.19 4464.77,3980.7 4464.77,3976.44C4464.77,3972.16 4468.16,3968.66 4472.4,3968.5L4472.4,3917.06C4468.16,3916.89 4464.77,3913.4 4464.77,3909.12C4464.77,3904.84 4468.16,3901.35 4472.4,3901.18L4472.4,3843.26C4465.85,3843.09 4460.58,3837.72 4460.58,3831.13C4460.58,3824.54 4465.85,3819.16 4472.4,3819L4472.4,2722.84C4364.9,2826.79 4259.95,2947.58 4143.07,3115.62C4141.21,3118.28 4139.36,3120.95 4137.52,3123.64C4200.18,3231.9 4236.05,3357.57 4236.05,3491.55C4236.05,3819.14 4021.58,4097.03 3725.51,4192.36C3714.25,4334.99 3728.25,4464.33 3774.98,4566.96C3774.98,4566.96 3631.31,4542.21 3616.77,4307.04C3615.08,4279.62 3615.59,4249.74 3617.89,4218.19C3579.5,4224.39 3540.12,4227.6 3500,4227.6C3459.88,4227.6 3420.5,4224.39 3382.11,4218.19C3384.41,4249.74 3384.92,4279.62 3383.23,4307.04C3368.69,4542.21 3225.02,4566.96 3225.02,4566.96C3271.75,4464.33 3285.75,4334.99 3274.49,4192.36C2978.42,4097.03 2763.95,3819.14 2763.95,3491.55C2763.95,3357.57 2799.82,3231.9 2862.49,3123.64ZM5129.72,4357.31C5125.33,4357.31 5121.77,4360.87 5121.77,4365.25C5121.77,4369.64 5125.33,4373.2 5129.72,4373.2C5134.1,4373.2 5137.66,4369.64 5137.66,4365.25C5137.66,4360.87 5134.1,4357.31 5129.72,4357.31ZM1870.28,4357.31C1874.67,4357.31 1878.23,4360.87 1878.23,4365.25C1878.23,4369.64 1874.67,4373.2 1870.28,4373.2C1865.9,4373.2 1862.34,4369.64 1862.34,4365.25C1862.34,4360.87 1865.9,4357.31 1870.28,4357.31ZM1870.28,4289.99C1874.67,4289.99 1878.23,4293.55 1878.23,4297.94C1878.23,4302.32 1874.67,4305.88 1870.28,4305.88C1865.9,4305.88 1862.34,4302.32 1862.34,4297.94C1862.34,4293.55 1865.9,4289.99 1870.28,4289.99ZM5129.72,4289.99C5125.33,4289.99 5121.77,4293.55 5121.77,4297.94C5121.77,4302.32 5125.33,4305.88 5129.72,4305.88C5134.1,4305.88 5137.66,4302.32 5137.66,4297.94C5137.66,4293.55 5134.1,4289.99 5129.72,4289.99ZM1870.28,4224.49C1874.67,4224.49 1878.23,4228.05 1878.23,4232.44C1878.23,4236.82 1874.67,4240.38 1870.28,4240.38C1865.9,4240.38 1862.34,4236.82 1862.34,4232.44C1862.34,4228.05 1865.9,4224.49 1870.28,4224.49ZM5129.72,4224.49C5125.33,4224.49 5121.77,4228.05 5121.77,4232.44C5121.77,4236.82 5125.33,4240.38 5129.72,4240.38C5134.1,4240.38 5137.66,4236.82 5137.66,4232.44C5137.66,4228.05 5134.1,4224.49 5129.72,4224.49ZM4048.24,3009.01C4013.84,3060.44 3979.8,3113.21 3946.11,3167.28C3946.11,3167.28 4007.46,3051.53 4007.46,2812.11L4007.46,2263.97C3972.17,2284.43 3938.62,2303.17 3906.69,2320.25L3906.69,2750.77C3906.69,2879.51 3938.98,2938.04 3938.98,2938.04C3938.98,2938.04 3904.15,2982.52 3850.95,3125.31C3797.76,3268.09 3793.68,3454.64 3793.68,3454.64C3785.68,3118.33 3702.72,2908.58 3539.28,2834.72C3539.28,2834.72 3554.76,2792.57 3554.76,2721.71L3554.76,2456.09C3535.62,2458.83 3500,2460.06 3500,2460.06C3500,2460.06 3464.38,2458.83 3445.24,2456.09L3445.24,2721.71C3445.24,2792.57 3460.72,2834.72 3460.72,2834.72C3353.84,2883.02 3281.37,2989.43 3241.78,3151.35C3236.86,2982.52 3286.35,2808.32 3309.64,2770.14L3309.64,2420.01C3282.22,2410.01 3253.1,2398.08 3222.12,2384.12L3222.12,3254C3213.3,3314.88 3208.05,3381.79 3206.32,3454.64C3206.32,3454.64 3202.24,3268.09 3149.05,3125.31C3095.85,2982.52 3061.02,2938.04 3061.02,2938.04C3061.02,2938.04 3093.31,2879.51 3093.31,2750.77L3093.31,2320.25C3061.38,2303.17 3027.83,2284.43 2992.54,2263.97L2992.54,2812.11C2992.54,3051.53 3053.89,3167.28 3053.89,3167.28C3026.75,3123.71 2989.39,3064.39 2955.68,3003.72C2955.45,3004.12 2955.22,3004.53 2955,3004.93C2931.42,3034.38 2910.18,3065.78 2891.56,3098.84C3031.53,3285.56 3150.77,3470.3 3195.96,3554.73C3238.09,3633.45 3336.11,3900.73 3371.34,4126.49C3413.04,4134.28 3456.05,4138.35 3500,4138.35C3543.95,4138.35 3586.96,4134.28 3628.66,4126.49C3663.89,3900.73 3761.91,3633.45 3804.04,3554.73C3849.23,3470.3 3968.47,3285.56 4108.44,3098.84C4090.67,3067.3 4070.52,3037.27 4048.24,3009.01ZM2527.28,4101.31C2531.67,4101.31 2535.23,4104.87 2535.23,4109.25C2535.23,4113.64 2531.67,4117.2 2527.28,4117.2C2522.9,4117.2 2519.34,4113.64 2519.34,4109.25C2519.34,4104.87 2522.9,4101.31 2527.28,4101.31ZM4472.72,4101.31C4468.33,4101.31 4464.77,4104.87 4464.77,4109.25C4464.77,4113.64 4468.33,4117.2 4472.72,4117.2C4477.1,4117.2 4480.66,4113.64 4480.66,4109.25C4480.66,4104.87 4477.1,4101.31 4472.72,4101.31ZM4128.39,3136.98C3938.51,3416.85 3783.34,3780.8 3736.41,4097.22C4005.34,4000.27 4197.81,3742.71 4197.81,3440.55C4197.81,3331.77 4172.86,3228.78 4128.39,3136.98ZM2871.61,3136.98C2827.14,3228.78 2802.19,3331.77 2802.19,3440.55C2802.19,3742.71 2994.66,4000.27 3263.59,4097.22C3216.66,3780.8 3061.49,3416.85 2871.61,3136.98ZM5140.57,3840.3C5174.67,3754.69 5287.58,3549.94 5434.88,3392.08C5525.18,3295.3 5710.92,3117.87 5747.77,2989.7C5821.08,2734.74 5651.23,2619.47 5430.68,2632.99C5294.98,2884.64 5200.02,3186.75 5182.45,3244.43C5161.44,3430.64 5149.12,3640.31 5140.57,3840.3ZM1569.32,2632.99C1348.77,2619.47 1178.92,2734.74 1252.23,2989.7C1289.08,3117.87 1474.82,3295.3 1565.12,3392.08C1712.42,3549.94 1825.33,3754.69 1859.43,3840.3C1850.88,3640.31 1838.56,3430.63 1817.55,3244.42C1799.98,3186.74 1705.02,2884.63 1569.32,2632.99ZM4940.57,2335.23C4906.47,2360.88 4871.83,2387.55 4837.25,2414.97C4831.84,2419.27 4826.46,2423.53 4821.11,2427.77L4821.11,2647.45C4821.11,2708.74 4670.81,2944.01 4614.47,3060.73C4578.85,3134.51 4552.11,3227.33 4532.04,3326.45C4583.64,3218.23 4698.71,3029.25 4934.25,2835.75C4937.05,2807.95 4940.57,2762.41 4940.57,2679.73L4940.57,2335.23ZM2059.43,2335.23L2059.43,2679.73C2059.43,2762.41 2062.95,2807.95 2065.75,2835.75C2301.29,3029.25 2416.36,3218.23 2467.96,3326.45C2447.89,3227.33 2421.15,3134.51 2385.53,3060.73C2329.19,2944.01 2178.89,2708.74 2178.89,2647.45L2178.89,2427.77C2173.54,2423.53 2168.16,2419.27 2162.75,2414.97C2128.17,2387.55 2093.53,2360.88 2059.43,2335.23ZM1843.27,2708.99C1845.33,2958.32 1865.7,3309.35 1865.7,3309.35C1865.7,3309.35 1933.5,2990.1 1933.5,2815.34L1933.5,2761.03C1904.18,2741.49 1873.95,2724.14 1843.27,2708.99ZM5156.73,2708.99C5126.05,2724.14 5095.82,2741.49 5066.5,2761.03L5066.5,2815.34C5066.5,2990.1 5134.3,3309.35 5134.3,3309.35C5134.3,3309.35 5154.67,2958.32 5156.73,2708.99ZM2953.13,2999.11C2909.76,2920.53 2873.08,2840.27 2873.08,2789.51L2873.08,2192.23C2844.99,2174.84 2815.94,2156.54 2785.9,2137.3C2779.41,2133.14 2772.96,2128.95 2766.53,2124.73L2766.53,2240.62C2766.53,2282.46 2766.96,2339.03 2769.04,2397.34L2769.03,2397.34C2769.68,2423.84 2780.37,2564.51 2786.8,2598.42C2799.95,2685.82 2819.36,2769.63 2842.19,2851.47C2769.09,2750.5 2694.39,2655.48 2618.01,2566.73C2618.01,2566.73 2641.63,2503.33 2640.61,2385.91C2639.47,2255.87 2637.99,2142.87 2636.74,2032.57C2599.26,2003.99 2562.89,1974.56 2527.6,1944.66L2527.6,2682.03C2553.82,2706.4 2578.66,2730.43 2601.86,2753.99C2694.61,2848.18 2793.4,2968.51 2883.99,3088.76C2904.74,3057.1 2927.88,3027.13 2953.13,2999.11ZM4116.01,3088.76C4206.6,2968.51 4305.39,2848.18 4398.14,2753.99C4421.35,2730.43 4446.18,2706.4 4472.4,2682.03L4472.4,1944.66C4437.11,1974.56 4400.74,2003.99 4363.26,2032.57C4362.01,2142.87 4360.52,2255.87 4359.39,2385.91C4358.37,2503.33 4381.99,2566.73 4381.99,2566.73C4268.16,2699 4158.07,2845.18 4051.44,3004.22C4074.92,3030.77 4096.52,3059.02 4116.01,3088.76ZM1599.83,2635.65C1670.44,2761.51 1736.89,2897.1 1781.52,3000.11C1761.21,2894.99 1735.95,2807.46 1704.26,2747.54C1704.26,2710.02 1715.86,2731.5 1719.39,2660.26C1678.95,2648.25 1638.76,2640.03 1599.83,2635.65ZM5218.48,3000.11C5263.11,2897.1 5329.56,2761.5 5400.17,2635.65C5361.24,2640.03 5321.05,2648.25 5280.61,2660.26C5284.14,2731.5 5295.74,2710.02 5295.74,2747.54C5264.05,2807.46 5238.79,2894.99 5218.48,3000.11ZM3777.88,2384.12C3746.9,2398.08 3717.78,2410.01 3690.36,2420.01L3690.36,2770.14C3722.44,2822.72 3757.54,2893.02 3777.88,2983.24L3777.88,2384.12ZM4699.36,2524.88C4662.77,2554.47 4627.38,2583.69 4592.76,2613.46C4595.67,2763.54 4604.78,2908.98 4604.78,2908.98C4604.78,2908.98 4699.36,2704.85 4699.36,2560.27L4699.36,2524.88ZM2300.64,2524.88L2300.64,2560.27C2300.64,2704.85 2395.22,2908.98 2395.22,2908.98C2395.22,2908.98 2404.33,2763.54 2407.24,2613.46C2372.62,2583.69 2337.23,2554.47 2300.64,2524.88ZM4233.47,2124.73C4227.04,2128.95 4220.59,2133.14 4214.1,2137.3C4184.06,2156.54 4155.01,2174.84 4126.92,2192.23L4126.92,2789.51C4126.92,2789.51 4159.39,2775.16 4204.41,2634.53C4230.62,2552.66 4233.47,2348.1 4233.47,2240.62L4233.47,2124.73ZM1835.72,2174.85C1840.53,2216.75 1843.1,2261.2 1843.1,2308.42L1843.1,2670.05C1843.1,2673.85 1843.1,2677.69 1843.11,2681.56C1868.24,2694.01 1890.04,2706.65 1907.67,2718.48C1916.4,2724.34 1925.01,2730.2 1933.5,2736.08L1933.5,2243.14C1899.11,2218.66 1866.26,2195.78 1835.72,2174.85ZM5164.28,2174.85C5133.74,2195.78 5100.89,2218.66 5066.5,2243.14L5066.5,2736.08C5074.99,2730.2 5083.6,2724.34 5092.33,2718.48C5109.96,2706.65 5131.76,2694.01 5156.89,2681.56C5156.9,2677.69 5156.9,2673.85 5156.9,2670.05L5156.9,2308.42C5156.9,2261.2 5159.47,2216.75 5164.28,2174.85ZM4699.16,1735.17C4664.74,1769.26 4628.98,1803.84 4591.87,1838.36L4591.87,2527.98C4591.87,2543.86 4591.97,2559.99 4592.17,2576.21C4626.61,2547.11 4662.46,2517.78 4699.36,2488.43L4699.36,1778.86C4699.36,1763.64 4699.29,1749.09 4699.16,1735.17ZM2300.84,1735.17C2300.71,1749.09 2300.64,1763.64 2300.64,1778.86L2300.64,2488.43C2337.54,2517.78 2373.39,2547.11 2407.83,2576.21C2408.03,2559.99 2408.13,2543.86 2408.13,2527.98L2408.13,1838.36C2371.02,1803.84 2335.26,1769.26 2300.84,1735.17ZM3554.76,1825.18C3515.47,1751.77 3500,1694.95 3500,1694.95L3499.83,1695.57C3498.05,1701.86 3482.16,1756.19 3445.24,1825.18L3445.24,2441.23C3460.18,2443.53 3474.61,2444.96 3488.53,2445.45C3492.04,2445.37 3495.92,2445.43 3500,2445.62C3504.08,2445.43 3507.96,2445.37 3511.47,2445.45C3525.39,2444.96 3539.82,2443.53 3554.76,2441.23L3554.76,1825.18ZM3296.86,2016.3C3287.47,2024.57 3277.7,2032.63 3267.53,2040.43C3251.91,2052.42 3236.76,2063.53 3222.12,2073.82L3222.12,2363.91C3252.43,2378.59 3281.62,2391.5 3309.64,2402.47L3309.64,2125.77C3308.76,2086.28 3304.85,2042.39 3296.86,2016.3ZM3690.36,2004.72L3690.36,2402.47C3718.38,2391.5 3747.57,2378.59 3777.88,2363.91L3777.88,2073.82C3763.24,2063.53 3748.1,2052.42 3732.47,2040.43C3717.6,2029.03 3703.58,2017.06 3690.36,2004.72ZM2165.76,1598.16C2094.5,1524.8 2030.12,1458 1972.25,1404.36C1778.56,1224.88 1623.25,1139.83 1552.51,1200.95C1481.77,1262.08 1716.82,1466.46 1872.16,1601.32C2027.5,1736.18 2059.43,1792.8 2059.43,1959.72L2059.43,2306.1C2099.65,2335.15 2139.61,2364.59 2178.89,2394.22L2178.89,1824.11C2178.89,1721.05 2153.06,1614.24 2153.06,1614.24C2157.3,1608.87 2161.54,1603.51 2165.76,1598.16ZM4940.57,2306.1L4940.57,1959.72C4940.57,1792.8 4972.5,1736.18 5127.84,1601.32C5283.18,1466.46 5518.23,1262.08 5447.49,1200.95C5376.75,1139.83 5221.44,1224.88 5027.75,1404.36C4969.88,1458 4905.5,1524.8 4834.24,1598.16C4838.46,1603.51 4842.7,1608.87 4846.94,1614.24C4846.94,1614.24 4821.11,1721.05 4821.11,1824.11L4821.11,2394.22C4860.4,2364.59 4900.35,2335.15 4940.57,2306.1ZM3093.31,2152.02C3050.65,2173.59 3016.63,2186.18 2992.54,2193.46L2992.54,2234.52C3027.1,2256.1 3060.7,2276.37 3093.31,2295.15L3093.31,2152.02ZM3906.69,2152.02L3906.69,2295.15C3939.3,2276.37 3972.9,2256.1 4007.46,2234.52L4007.46,2193.46C3983.37,2186.18 3949.35,2173.59 3906.69,2152.02ZM4091.27,1505.39C3756.25,1472.87 3517.38,1153.79 3500,662.451C3482.62,1153.79 3243.75,1472.87 2908.73,1505.39C2968.86,1624.21 3028.06,1691.73 3028.06,1691.73C3028.06,1691.73 2992.54,1740.11 2992.54,1801.51L2992.54,2161.85C3018.99,2152.48 3052.6,2138.12 3093.31,2116.14L3093.31,1811.19C3093.31,1645.91 2983.53,1533.52 2983.53,1533.52C3164.85,1515.26 3321.28,1398.29 3445.24,1152.52L3445.24,1558.61C3445.24,1641.02 3425.18,1711.89 3347.24,1878.37C3401.59,1872.01 3445.24,1767.47 3445.24,1767.47C3480.74,1698 3500,1643.29 3500,1643.29L3500.26,1644.01C3502.63,1650.63 3521.63,1702.62 3554.76,1767.47L3554.76,1152.52C3678.72,1398.29 3835.16,1515.26 4016.47,1533.52C4016.47,1533.52 3906.69,1645.91 3906.69,1811.19L3906.69,2116.14C3947.4,2138.12 3981.01,2152.48 4007.46,2161.85L4007.46,1801.51C4007.46,1740.11 3971.94,1691.73 3971.94,1691.73C3971.94,1691.73 4031.14,1624.21 4091.27,1505.39ZM4211.97,1504.95C4194.37,1506.76 4176.07,1507.82 4156.96,1508.08C4150.38,1508.17 4143.84,1508.16 4137.32,1508.04C4124.16,1562.6 4120.46,1619.15 4120.46,1678.81C4120.46,1803.01 4136.61,1817.65 4136.61,1817.65C4136.61,1817.65 4126.92,1871.08 4126.92,1937.11L4126.92,2157.38C4155.45,2138.43 4184.52,2118.8 4214.1,2098.55C4220.57,2094.12 4227.03,2089.64 4233.47,2085.1L4233.47,1643.29C4233.47,1587 4223.59,1540.34 4211.97,1504.95ZM2788.03,1504.95C2776.41,1540.34 2766.53,1587 2766.53,1643.29L2766.53,2085.1C2772.97,2089.64 2779.43,2094.12 2785.9,2098.55C2815.48,2118.8 2844.55,2138.43 2873.08,2157.38L2873.08,1937.11C2873.08,1871.08 2863.39,1817.65 2863.39,1817.65C2863.39,1817.65 2879.54,1803.01 2879.54,1678.81C2879.54,1619.15 2875.84,1562.6 2862.68,1508.04C2856.16,1508.16 2849.62,1508.17 2843.04,1508.08C2823.93,1507.82 2805.63,1506.76 2788.03,1504.95ZM5311.22,2053.1L5311.88,2050.12C5311.88,2050.12 5610.53,1874.05 5712.25,1788.59C5813.98,1703.13 5886.81,1609.95 5854.32,1565.8C5821.83,1521.66 5704.99,1496.77 5537.9,1656.21C5377.89,1808.88 5316.66,1964.03 5293.46,2064.61C5299.4,2060.75 5305.32,2056.91 5311.22,2053.1ZM1706.54,2064.61C1683.34,1964.03 1622.11,1808.88 1462.1,1656.21C1295.01,1496.77 1178.17,1521.66 1145.68,1565.8C1113.19,1609.95 1186.02,1703.13 1287.75,1788.59C1389.47,1874.05 1688.12,2050.12 1688.12,2050.12L1688.78,2053.1C1694.68,2056.91 1700.6,2060.75 1706.54,2064.61ZM3690.36,1964.46C3703.79,1978 3717.84,1990.54 3732.47,2001.69C3748.13,2013.62 3763.26,2024.75 3777.88,2035.13L3777.88,1788.59C3777.88,1519.74 3690.36,1446.34 3690.36,1446.34L3690.36,1964.46ZM3309.64,1446.34C3309.64,1446.34 3222.12,1519.74 3222.12,1788.59L3222.12,2022.29C3271.3,1959.44 3302.2,1881.95 3309.64,1785.67L3309.64,1446.34ZM2381.8,1271.34C2448.89,1411.13 2475.5,1614.22 2540.51,1701.41C2540.51,1701.41 2527.6,1733.78 2527.6,1788.59L2527.6,1889.43C2562.85,1922.08 2599.1,1954.1 2636.21,1984.93C2635.03,1875.2 2634.15,1766.1 2634.15,1643.29C2634.15,1573.02 2654.25,1520.71 2680.4,1482.4C2561.29,1443.32 2476.19,1363.73 2381.8,1271.34ZM4656.34,1234.11C4651.39,1238.87 4646.37,1243.74 4641.28,1248.72C4537.33,1350.61 4448.33,1440.16 4319.6,1482.4C4345.75,1520.71 4365.85,1573.02 4365.85,1643.29C4365.85,1766.1 4364.98,1875.2 4363.79,1984.93C4400.9,1954.1 4437.15,1922.08 4472.4,1889.43L4472.4,1788.59C4472.4,1733.78 4459.49,1701.41 4459.49,1701.41C4500.23,1646.76 4525.9,1546.58 4555.9,1444.99C4565.17,1413.59 4585.41,1349.34 4622.53,1277.7C4622.53,1277.7 4585.77,1361.23 4588,1493.89C4589.78,1599.75 4591.87,1732.63 4591.87,1773C4628.76,1735.34 4664.14,1697.72 4697.78,1660.96C4695,1566.54 4689.01,1510.41 4683.23,1477.2L4683.23,1477.2L4683.23,1477.2C4676.13,1436.32 4669.92,1429.65 4665.36,1416.19C4645.82,1358.63 4637.71,1290.27 4656.34,1234.11ZM2408.13,1773C2408.13,1586.19 2330.64,1430.19 2330.64,1430.19C2330.64,1430.19 2308.41,1450.31 2302.22,1660.96C2335.86,1697.72 2371.24,1735.34 2408.13,1773ZM3500,1567.61C3506.84,1567.61 3512.39,1573.16 3512.39,1580C3512.39,1586.84 3506.84,1592.39 3500,1592.39C3493.16,1592.39 3487.61,1586.84 3487.61,1580C3487.61,1573.16 3493.16,1567.61 3500,1567.61ZM2311.49,1204.15C2195.34,1099.52 2115.3,1070.07 2035.84,1148.55C1980.49,1203.21 1992.5,1277.57 2009.85,1326.56C2030.65,1349.74 2051.46,1373.67 2072.34,1397.91C2109.85,1441.45 2153.86,1493.42 2203.32,1550.09C2287.67,1439.86 2353.73,1331.02 2311.49,1204.15ZM4990.15,1326.56C5007.5,1277.57 5019.51,1203.21 4964.16,1148.55C4884.7,1070.07 4804.66,1099.52 4688.51,1204.15C4646.27,1331.02 4712.33,1439.86 4796.68,1550.09C4846.14,1493.42 4890.15,1441.45 4927.66,1397.91C4948.54,1373.67 4969.35,1349.74 4990.15,1326.56ZM3500,1497.61C3506.84,1497.61 3512.39,1503.16 3512.39,1510C3512.39,1516.84 3506.84,1522.39 3500,1522.39C3493.16,1522.39 3487.61,1516.84 3487.61,1510C3487.61,1503.16 3493.16,1497.61 3500,1497.61ZM2854.91,1479.71C2848.89,1460.19 2841.49,1440.91 2832.45,1421.81C2831.64,1420.12 2824.65,1426.97 2824.65,1426.97C2824.65,1426.97 2812.52,1443.63 2799.34,1474.75C2815.97,1476.35 2833.75,1477.84 2853.13,1479.56C2853.72,1479.61 2854.32,1479.66 2854.91,1479.71ZM3500,1427.61C3506.84,1427.61 3512.39,1433.16 3512.39,1440C3512.39,1446.84 3506.84,1452.39 3500,1452.39C3493.16,1452.39 3487.61,1446.84 3487.61,1440C3487.61,1433.16 3493.16,1427.61 3500,1427.61ZM3500,1357.61C3506.84,1357.61 3512.39,1363.16 3512.39,1370C3512.39,1376.84 3506.84,1382.39 3500,1382.39C3493.16,1382.39 3487.61,1376.84 3487.61,1370C3487.61,1363.16 3493.16,1357.61 3500,1357.61ZM2842.59,1368.55C2939.09,1318.89 3093.86,1226.16 3176.58,1107.32C3254.17,995.859 3234.65,897.418 3137.84,907.132C3041.03,916.846 2885.78,1095.78 2776.01,1165.43C2733.22,1192.58 2701.54,1208.31 2651.79,1210.71C2706.77,1236.67 2789.62,1286.54 2842.59,1368.55Z" style="fill:white;"/>
    </g>
</svg>
