<?xml version="1.0" encoding="UTF-8" standalone="no"?>
<!DOCTYPE svg PUBLIC "-//W3C//DTD SVG 1.1//EN" "http://www.w3.org/Graphics/SVG/1.1/DTD/svg11.dtd">
<svg width="100%" height="100%" viewBox="0 0 2921 1824" version="1.1" xmlns="http://www.w3.org/2000/svg" xmlns:xlink="http://www.w3.org/1999/xlink" xml:space="preserve" xmlns:serif="http://www.serif.com/" style="fill-rule:evenodd;clip-rule:evenodd;stroke-linejoin:round;stroke-miterlimit:2;">
    <g transform="matrix(1,0,0,1,-2039.62,-1546.09)">
        <path d="M3500,2903.01C3510.28,2940.01 3527.99,3245.55 3554,3282.55C3538.93,3299.18 3500,3370 3500,3370C3500,3370 3461.07,3299.18 3446,3282.55C3472.01,3245.55 3489.72,2940.01 3500,2903.01L3500,2903L3500,2903L3500,2903L3500,2903.01ZM3139.99,2091.76L3139.72,2091.49C3140.2,2091.43 3140.27,2091.53 3139.99,2091.76L3219.38,2171.14L3219.38,2503.49L3250.41,2537.19L3250.41,2768C3250.41,2768.2 3250.4,2768.39 3250.38,2768.58L3250.38,2947C3250.38,2958.8 3225.91,2968.38 3214.11,2968.38C3202.31,2968.38 3176.62,2958.8 3176.62,2947L3176.62,2470.72L3145.85,2437.31L3145.85,2173.34L3088.47,2166.7L3049.88,2128.12C3055.38,2126.61 3135.84,2095.09 3139.99,2091.76ZM3860.01,2091.76C3859.73,2091.53 3859.81,2091.43 3860.28,2091.49L3860.01,2091.76C3864.16,2095.09 3944.63,2126.61 3950.12,2128.12L3911.54,2166.7L3854.15,2173.34L3854.15,2437.31L3823.38,2470.72L3823.38,2947C3823.38,2958.8 3797.7,2968.38 3785.9,2968.38C3774.1,2968.38 3749.63,2958.8 3749.63,2947L3749.63,2768.58C3749.6,2768.39 3749.59,2768.2 3749.59,2768L3749.59,2537.19L3780.63,2503.49L3780.63,2171.14L3860.01,2091.76ZM3500,2766.15C3552.53,2587.34 3620.46,2430.03 3701.99,2291.72C3708.35,2280.94 3721.58,2277.78 3731.52,2284.68C3741.46,2291.57 3744.37,2305.92 3738.01,2316.7C3669.15,2433.53 3610.26,2564.24 3562.42,2710.37C3559.41,2719.56 3576.78,2748.98 3576.78,2748.98C3526.34,2802.58 3500,2890 3500,2890L3500,2889.99L3500,2890C3500,2890 3473.66,2802.58 3423.22,2748.98C3423.22,2748.98 3440.59,2719.56 3437.58,2710.37C3389.74,2564.24 3330.85,2433.53 3261.99,2316.7C3255.63,2305.92 3258.54,2291.57 3268.48,2284.68C3278.42,2277.78 3291.65,2280.94 3298.01,2291.72C3379.54,2430.03 3447.48,2587.34 3500,2766.15ZM2928.63,1918.44C2904.89,1959.53 2862.55,1986.43 2808.73,2004.29C2797.53,2008.01 2785.43,2001.93 2781.71,1990.73C2777.99,1979.54 2784.07,1967.43 2795.27,1963.71C2851,1945.22 2893.16,1916.67 2904.06,1863.69L2907.57,1846.62L3342.39,1846.62L3313.48,1881.62C3225.98,1987.54 3103.13,2063.98 2926.36,2094.95C3026.24,2250.55 3086.01,2446.49 3119.14,2668.85C3120.88,2680.52 3104.25,2693.31 3092.58,2695.05C3080.91,2696.79 3054.78,2692.54 3053.04,2680.87C3045.2,2628.23 3035.85,2577.1 3024.8,2527.69C3024.8,2527.69 3043.1,2497.88 3040.18,2486C3003.27,2335.41 2949.43,2201.8 2872.45,2091.21L2852.53,2062.58L2887.08,2057.82C2993.09,2043.22 3079.58,2012.3 3150.48,1968.27C3162.08,1961.07 3150.48,1945.63 3150.48,1945.63C3173.98,1928.43 3195.58,1909.63 3215.46,1889.38L3092.48,1889.38L3063.42,1918.44L2928.63,1918.44ZM3907.52,1889.38L3784.55,1889.38C3804.43,1909.63 3826.02,1928.43 3849.52,1945.63C3849.52,1945.63 3837.93,1961.07 3849.52,1968.27C3920.42,2012.3 4006.91,2043.22 4112.92,2057.82L4147.48,2062.58L4127.55,2091.21C4050.57,2201.8 3996.74,2335.41 3959.82,2486C3956.91,2497.88 3975.21,2527.69 3975.21,2527.69C3964.15,2577.1 3954.81,2628.23 3946.96,2680.87C3945.22,2692.54 3919.1,2696.79 3907.43,2695.05C3895.76,2693.31 3879.12,2680.52 3880.86,2668.85C3914,2446.49 3973.76,2250.55 4073.65,2094.95C3896.87,2063.98 3774.02,1987.54 3686.52,1881.62L3657.62,1846.62L4092.43,1846.62L4095.94,1863.69C4106.85,1916.67 4149,1945.22 4204.74,1963.71C4215.94,1967.43 4222.01,1979.54 4218.29,1990.73C4214.58,2001.93 4202.47,2008.01 4191.27,2004.29C4137.45,1986.43 4095.12,1959.53 4071.38,1918.44L3936.58,1918.44L3907.52,1889.38ZM3219.38,2622.28L3241.16,2661.62L3241.16,2540.81L3219.38,2517.15L3219.38,2622.28ZM3758.85,2540.81L3758.85,2661.62L3780.63,2622.28L3780.63,2517.15L3758.85,2540.81ZM3441.64,1878.6C3468.82,1836.46 3488.04,1771.02 3500,1740.01L3500,1740L3500,1740L3500,1740L3500,1740.01C3511.96,1771.02 3531.18,1836.44 3558.35,1878.59C3597.99,1922.04 3631.3,1968.99 3656.47,2018.67L3688.96,2031.87C3712.44,2072.62 3722.54,2102.54 3726.96,2127.87L3702.78,2154.93L3702.8,2155.03L3697.27,2162.61C3613.74,2277.01 3562.14,2417.25 3520.59,2565.76C3520.26,2566.93 3519.85,2568.04 3519.35,2569.1L3500,2634L3480.64,2569.07C3480.15,2568.02 3479.74,2566.91 3479.41,2565.76C3477.95,2560.55 3476.48,2555.35 3475,2550.17L3474.95,2550L3474.95,2550C3434.17,2407.36 3383.31,2272.96 3302.74,2162.61L3297.21,2155.03L3297.22,2154.94L3273.03,2127.87C3277.46,2102.54 3287.56,2072.62 3311.03,2031.87L3343.53,2018.67C3368.71,1968.98 3402.01,1922.05 3441.64,1878.6ZM2500.2,2371.04C2647.8,2397.68 2779.96,2465.99 2893.44,2584.77C2901.59,2593.3 2915.13,2593.61 2923.66,2585.46C2932.19,2577.31 2932.5,2563.76 2924.35,2555.23C2837.02,2463.82 2739.2,2400.68 2632.27,2362.17L2609.28,2330.03C2609.28,2330.03 2547.1,2312.76 2514.96,2306.96C2503.35,2304.87 2490.54,2323.23 2488.44,2334.84C2486.35,2346.45 2488.59,2368.94 2500.2,2371.04ZM4499.8,2371.04C4352.2,2397.68 4220.04,2465.99 4106.57,2584.77C4098.42,2593.3 4084.87,2593.61 4076.34,2585.46C4067.81,2577.31 4067.5,2563.76 4075.65,2555.23C4162.99,2463.82 4260.8,2400.68 4367.73,2362.17L4390.72,2330.03C4390.72,2330.03 4452.9,2312.76 4485.04,2306.96C4496.65,2304.87 4509.46,2323.23 4511.56,2334.84C4513.66,2346.45 4511.41,2368.94 4499.8,2371.04ZM3540.42,1922.81C3521.78,1933.22 3510.62,1938.65 3500,1965.99L3500,1966L3500,1966L3500,1966L3500,1965.99C3489.38,1938.65 3478.22,1933.22 3459.58,1922.81C3402.2,1989.61 3360.69,2064.59 3342.86,2145.17C3413.01,2243.77 3461.35,2360.15 3500,2484.37C3538.66,2360.15 3586.99,2243.77 3657.14,2145.17C3639.31,2064.59 3597.81,1989.61 3540.42,1922.81ZM3155.11,2433.69L3176.62,2457.06L3176.62,2188.86L3163.1,2175.33L3155.11,2174.41L3155.11,2433.69ZM3844.89,2174.41L3836.91,2175.33L3823.38,2188.86L3823.38,2457.06L3844.89,2433.69L3844.89,2174.41ZM4527.2,1718.62C4562.75,1683.95 4600.51,1650.48 4640.54,1618.24C4646.39,1613.53 4640.28,1594.85 4646.22,1590.2C4664.2,1576.11 4682.63,1562.26 4701.51,1548.66C4711.08,1541.76 4731.61,1549.93 4738.5,1559.5C4745.4,1569.07 4748.07,1590.44 4738.5,1597.34C4685.16,1635.78 4635.5,1676.23 4589.41,1718.62L4939,1718.62C4950.8,1718.62 4960.38,1739.26 4960.38,1751.06C4960.38,1762.86 4950.8,1782.44 4939,1782.44L4809.31,1782.44L4792.79,1761.38L4619.17,1761.38L4541.92,1838.63L4472.79,1838.63C4440.71,1875.67 4410.9,1913.94 4383.28,1953.41L4392.68,2008L4391.85,2011.52C4337.07,2086.25 4296.58,2176.51 4264.39,2244.81L4264.43,2244.88C4264.43,2244.88 4240.49,2305.89 4229.94,2337.16C4226.17,2348.34 4197.03,2346.66 4185.85,2342.89C4174.67,2339.12 4154.98,2317.34 4158.75,2306.16C4211.95,2148.5 4288.26,2003.43 4389.93,1872.22L4261,1872.22C4249.2,1872.22 4239.63,1855.06 4239.63,1843.27C4239.63,1831.47 4249.2,1815.89 4261,1815.89L4336.7,1815.89L4352.2,1829.37L4538.09,1829.37L4606.08,1761.38L4206.15,1761.38L4113.15,1668.38L3852.82,1668.38C3819.85,1737.53 3760.57,1795.75 3647.26,1830.44C3635.98,1833.9 3624.02,1827.54 3620.56,1816.26C3617.11,1804.98 3623.46,1793.01 3634.74,1789.56C3739.26,1757.55 3791.81,1703.68 3819.32,1638.67C3822.66,1630.76 3824.84,1625.62 3824.84,1625.62L4130.86,1625.62L4195.61,1690.37L4383.92,1690.37L4412.17,1718.62L4527.2,1718.62ZM2410.6,1718.62C2364.51,1676.23 2314.84,1635.78 2261.5,1597.34C2251.93,1590.44 2254.6,1569.07 2261.5,1559.5C2268.4,1549.93 2288.93,1541.76 2298.5,1548.66C2317.38,1562.26 2335.8,1576.11 2353.79,1590.2C2359.73,1594.85 2353.62,1613.53 2359.46,1618.24C2399.49,1650.48 2437.26,1683.95 2472.81,1718.62L2587.83,1718.62L2616.08,1690.37L2804.39,1690.37L2869.14,1625.62L3175.17,1625.62C3175.17,1625.62 3177.34,1630.76 3180.69,1638.67C3208.19,1703.68 3260.74,1757.55 3365.26,1789.56C3376.54,1793.01 3382.9,1804.98 3379.44,1816.26C3375.99,1827.54 3364.02,1833.9 3352.74,1830.44C3239.43,1795.75 3180.16,1737.53 3147.18,1668.38L2886.86,1668.38L2793.86,1761.38L2393.92,1761.38L2461.92,1829.37L2647.81,1829.37L2663.31,1815.89L2739,1815.89C2750.8,1815.89 2760.38,1831.47 2760.38,1843.27C2760.38,1855.06 2750.8,1872.22 2739,1872.22L2610.07,1872.22C2711.75,2003.43 2788.05,2148.5 2841.26,2306.16C2845.03,2317.34 2825.34,2339.12 2814.16,2342.89C2802.98,2346.66 2773.84,2348.34 2770.07,2337.16C2759.51,2305.89 2735.58,2244.88 2735.58,2244.88L2735.61,2244.81C2703.42,2176.51 2662.93,2086.25 2608.16,2011.52L2606.99,2009.94L2616.72,1953.41C2589.11,1913.94 2559.29,1875.67 2527.22,1838.63L2458.08,1838.63L2380.83,1761.38L2207.22,1761.38L2190.69,1782.44L2061,1782.44C2049.2,1782.44 2039.62,1762.86 2039.62,1751.06C2039.62,1739.26 2049.2,1718.62 2061,1718.62L2410.6,1718.62ZM3500,2010C3500,2010 3538.87,2084 3575,2121C3533.13,2154.27 3515.94,2194.94 3500,2235.99L3500,2236L3500,2236L3500,2236L3500,2235.99C3484.06,2194.94 3466.87,2154.27 3425,2121C3461.13,2084 3500,2010 3500,2010L3500,2010L3500,2010ZM2624.24,1964.27L2616.78,2007.64C2669.57,2080.13 2709.16,2166.78 2740.82,2234.14L2755.95,2203.13C2719.69,2119.33 2675.92,2039.63 2624.24,1964.27ZM4375.76,1964.27C4324.09,2039.63 4280.32,2119.33 4244.06,2203.13L4259.19,2234.14C4290.84,2166.78 4330.44,2080.13 4383.22,2007.64L4375.76,1964.27ZM4620.76,1815.89C4610.91,1824.7 4592.32,1842.75 4592.32,1842.75C4592.32,1842.75 4599.57,1855.54 4592.77,1862.67C4567.66,1889.02 4539.49,1920.85 4522.11,1944.48C4515.12,1953.98 4517.16,1967.38 4526.66,1974.37C4536.16,1981.36 4549.56,1979.32 4556.55,1969.81C4592.77,1920.58 4651.88,1858.77 4707.56,1815.89L4620.76,1815.89ZM2379.24,1815.89C2389.09,1824.7 2407.68,1842.75 2407.68,1842.75C2407.68,1842.75 2400.43,1855.54 2407.23,1862.67C2432.35,1889.02 2460.51,1920.85 2477.9,1944.48C2484.89,1953.98 2482.85,1967.38 2473.34,1974.37C2463.84,1981.36 2450.45,1979.32 2443.46,1969.81C2407.24,1920.58 2348.13,1858.77 2292.45,1815.89L2379.24,1815.89ZM3920.61,1889.38L3940.42,1909.18L4066.46,1909.18C4063.41,1902.89 4060.76,1896.3 4058.54,1889.38L3920.61,1889.38ZM3079.39,1889.38L2941.46,1889.38C2939.24,1896.3 2936.6,1902.89 2933.54,1909.18L3059.59,1909.18L3079.39,1889.38ZM2810,1871.38L2821.87,1871.38C2837.37,1871.38 2829.57,1886.62 2827.87,1902.03C2839.66,1902.03 2851.38,1861.8 2851.38,1850C2851.38,1838.2 2841.8,1828.62 2830,1828.62L2810,1828.62C2798.2,1828.62 2788.62,1838.2 2788.62,1850C2788.62,1861.8 2798.2,1871.38 2810,1871.38ZM4190,1871.38L4178.14,1871.38C4162.64,1871.38 4170.43,1886.62 4172.14,1902.03C4160.34,1902.03 4148.63,1861.8 4148.63,1850C4148.63,1838.2 4158.2,1828.62 4170,1828.62L4190,1828.62C4201.8,1828.62 4211.38,1838.2 4211.38,1850C4211.38,1861.8 4201.8,1871.38 4190,1871.38ZM3062.86,1761.38L2877.89,1761.38L2919.89,1718.62L3085.86,1718.62L3092.14,1728.68C3105.4,1749.94 3131.66,1770.62 3131.66,1770.62C3140.89,1777.97 3142.42,1791.43 3135.07,1800.66C3127.72,1809.89 3114.26,1811.42 3105.03,1804.07C3105.03,1804.07 3080.21,1784.14 3062.86,1761.38ZM3937.14,1761.38L4122.11,1761.38L4080.11,1718.62L3914.14,1718.62L3907.87,1728.68C3894.6,1749.94 3868.35,1770.62 3868.35,1770.62C3859.11,1777.97 3857.59,1791.43 3864.93,1800.66C3872.28,1809.89 3885.74,1811.42 3894.97,1804.07C3894.97,1804.07 3919.79,1784.14 3937.14,1761.38ZM4204.86,1699.63L4223.86,1718.62L4399.08,1718.62L4380.09,1699.63L4204.86,1699.63ZM2619.92,1699.63L2600.92,1718.62L2776.14,1718.62L2795.14,1699.63L2619.92,1699.63Z" style="fill:white;"/>
    </g>
</svg>
