<?xml version="1.0" encoding="UTF-8" standalone="no"?>
<!DOCTYPE svg PUBLIC "-//W3C//DTD SVG 1.1//EN" "http://www.w3.org/Graphics/SVG/1.1/DTD/svg11.dtd">
<svg width="100%" height="100%" viewBox="0 0 3508 3426" version="1.1" xmlns="http://www.w3.org/2000/svg" xmlns:xlink="http://www.w3.org/1999/xlink" xml:space="preserve" xmlns:serif="http://www.serif.com/" style="fill-rule:evenodd;clip-rule:evenodd;stroke-linejoin:round;stroke-miterlimit:2;">
    <g transform="matrix(1,0,0,1,-1746.42,-616)">
        <path id="vz" d="M3499.75,4041.24L3158.01,3449.24C3227.95,3467.3 3298.96,3478.03 3370.76,3483.39L3500,3707.24L3629.26,3483.36C3700.92,3477.98 3771.8,3467.25 3841.61,3449.21L3499.75,4041.24ZM2526.05,1003.95C2780.01,763.527 3122.79,616 3499.75,616C4078.51,616 4576.69,963.756 4796.56,1461.54L4964.33,1170.94L4654.23,1170.94C4606.99,1102.07 4561.47,1047.06 4517.4,1003.95L5060.25,1003.95L5060.23,1004.84L5060.75,1003.95L5253.59,1003.95L4705.84,1952.54C4695.7,1874.34 4680.03,1790.36 4658.64,1700.42L4710.04,1611.4C4646.69,1445.57 4550.22,1296.04 4428.73,1170.94L2621.56,1170.94C2686.32,1107.39 2756.54,1050.73 2833.12,1003.95L2923.16,1003.95C3093.68,908.114 3290.38,853.445 3499.75,853.445C3709.12,853.445 3905.82,908.114 4076.34,1003.95L4230.67,1003.95C4022.59,861.32 3770.84,777.845 3499.75,777.845C3228.66,777.845 2976.91,861.32 2768.83,1003.95L2770.98,1003.95C2733.71,1029.95 2700.03,1054.77 2669.54,1079.24C2513.21,1210.02 2388.15,1376.98 2307.3,1567.18L2222.2,1419.79C2264.75,1331.37 2316.21,1248.03 2375.42,1170.94L2035.67,1170.94L2203.16,1461.05L2203.19,1460.97L2289.69,1610.8L2289.66,1610.88L2359.24,1731.39C2412.12,1531.14 2516.39,1351.68 2657.06,1208L2959.88,1208C2702.71,1351.84 2512.75,1595.21 2446.92,1883.26L2447.01,1883.41C2428.82,1963.71 2421,2040.48 2422.75,2114C2437.45,2450.27 2606.51,2746.76 2860.74,2934.3L2466.69,2251.67C2452.17,2170.53 2452.67,2064.51 2472.17,1926.99L3139.25,3082.4C3139.68,3082.55 3140.11,3082.7 3140.54,3082.86L3192.83,3173.44L3191.63,3173.12L3294.8,3351.82C3361.56,3362.46 3430.01,3367.98 3499.75,3367.98C3569.68,3367.98 3638.32,3362.43 3705.25,3351.73L3808.46,3172.97C3710.05,3198.67 3606.55,3212.38 3499.75,3212.38C3411.37,3212.38 3325.25,3202.99 3242.41,3185.19L3193.2,3099.97C3290.38,3128.78 3393.27,3144.25 3499.75,3144.25C3626.39,3144.25 3747.96,3122.37 3860.88,3082.18L4552.72,1883.88C4487.02,1595.56 4296.98,1351.94 4039.63,1208L4342.44,1208C4550.73,1420.75 4679.22,1711.95 4679.22,2032.91C4679.22,2040.14 4679.15,2047.36 4679.02,2054.55C4679.15,2061.49 4679.22,2068.44 4679.22,2075.41C4679.22,2484.51 4454.6,2843.43 4117.86,3043.72L4218.49,2869.43C4411.07,2696.96 4541.35,2456.33 4571.24,2185.64L3931.06,3294.31C4434.05,3116.47 4794.82,2636.49 4794.82,2072.91C4794.82,2012.06 4790.61,1952.19 4782.48,1893.56L4882.14,1720.93C4904.74,1821.33 4916.66,1925.74 4916.66,2032.91C4916.66,2687.06 4472.42,3238.26 3869.43,3401.03L3868.99,3401.8C3796.43,3421.67 3724.55,3434.51 3653.2,3441.89L3653.38,3441.58C3602.91,3447.03 3551.66,3449.83 3499.75,3449.83C3448.03,3449.83 3396.95,3447.05 3346.65,3441.63L3346.83,3441.94C3275.35,3434.58 3203.34,3421.73 3130.64,3401.84L3130.2,3401.07C2527.14,3238.34 2082.84,2687.1 2082.84,2032.91C2082.84,1907.02 2099.29,1784.94 2130.16,1668.71L1746.41,1003.95L2526.05,1003.95ZM2226.44,1835.49C2212.15,1912.47 2204.68,1991.82 2204.68,2072.91C2204.68,2636.55 2565.52,3116.56 3068.6,3294.36L2943.84,3078.24C2572.85,2886.59 2320.28,2509.21 2320.28,2075.41C2320.28,2068.44 2320.35,2061.49 2320.48,2054.55C2320.35,2047.36 2320.28,2040.14 2320.28,2032.91C2320.28,2021.53 2320.44,2010.19 2320.76,1998.89L2226.44,1835.49Z" style="fill:white;"/>
    </g>
</svg>
